<svg width="2300" height="871" viewBox="0 0 2300 871" fill="none" xmlns="http://www.w3.org/2000/svg">
<path d="M1108.31 344.728L776.312 311.728" stroke="#F04A4A" stroke-width="4"/>
<path d="M786.312 342.728L810.312 423.728" stroke="#F04A4A" stroke-width="4"/>
<path d="M1100.31 343.728L809.312 420.728" stroke="#F04A4A" stroke-width="4"/>
<path d="M1517.31 456.728L1210.31 534.728" stroke="#F04A4A" stroke-width="4"/>
<path d="M1227.31 343.728L1574.31 269.728" stroke="#F04A4A" stroke-width="4"/>
<path d="M1172.31 454.728L1185.31 505.728" stroke="#F04A4A" stroke-width="4"/>
<path d="M1172.31 454.728L1108.31 551.728" stroke="#F04A4A" stroke-width="4"/>
<path d="M1167.81 356.728L1518.31 452.728" stroke="#F04A4A" stroke-width="4"/>
<path d="M798.797 461.993L1062.8 603.993" stroke="#F04A4A" stroke-width="4"/>
<path d="M1166.93 355.214L1172.42 454.655M1166.93 355.214C1185.37 307.809 1219.21 319.469 1229.11 343.896M1166.93 355.214L1229.11 343.896M1166.93 355.214C1150.23 322.417 1110.6 318.616 1101.34 343.896M1166.93 355.214L1101.34 343.896M1172.42 454.655C1172.42 454.655 1223.42 404.591 1231.31 368.244C1233.14 359.814 1232.1 351.273 1229.11 343.896M1172.42 454.655C1172.42 454.655 1105.14 417.964 1099.31 368.244C1098.15 358.318 1099.03 350.202 1101.34 343.896" stroke="#F04A4A" stroke-width="4"/>
<path d="M629.631 341.026C679.184 346.319 704.542 342.108 746.235 324.777C746.235 324.777 815.455 293.146 820.075 312.302C824.693 331.441 772.098 348.176 772.098 348.176C772.098 348.176 850.169 329.261 852.869 346.739C855.551 364.218 785.194 385.003 785.194 385.003C785.194 385.003 785.272 384.986 785.423 384.954C790.6 383.829 881.914 364 884.01 383.49C886.166 403.53 790.506 424.062 790.506 424.062C790.506 424.062 864.398 412.31 865.469 432.428C866.54 452.546 731.413 473.938 731.413 473.938C732.486 474.89 735.496 476.647 739.485 478.976C755.13 488.109 785.832 506.032 773.784 518.671C758.664 534.531 647.228 495.127 647.228 495.127" fill="#7AC76B"/>
<path d="M313.262 56.8452C360.355 73.972 398.873 102.463 427.096 144.76C451.51 181.353 477.006 217.275 503.17 252.639C522.63 278.938 545.477 302.307 573.225 320.302C591.673 332.271 610.487 339.351 629.631 341.026C679.184 346.319 704.542 342.108 746.235 324.777C746.235 324.777 815.455 293.146 820.075 312.302C824.693 331.441 772.098 348.176 772.098 348.176C772.098 348.176 850.169 329.261 852.869 346.739C855.551 364.218 785.194 385.003 785.194 385.003C785.194 385.003 785.272 384.986 785.423 384.954C790.606 383.828 881.914 364.001 884.01 383.49C886.166 403.53 790.506 424.062 790.506 424.062C790.506 424.062 864.398 412.31 865.469 432.428C866.54 452.546 731.413 473.938 731.413 473.938C732.486 474.89 735.496 476.647 739.485 478.976C755.13 488.109 785.832 506.032 773.784 518.671C758.664 534.531 647.228 495.127 647.228 495.127C568.233 476.593 499.563 442.546 445.212 381.964C435.876 371.556 427.678 360.126 419.481 348.697L419.48 348.696L419.479 348.694C415.82 343.592 412.161 338.491 408.401 333.481C385.331 302.73 359.427 274.905 326.329 254.597C298.369 237.432 268.813 228.331 237.825 227.107C188.494 225.158 172.5 217.5 73 227.107L73 40.1444C132.66 30.5707 212.328 37.9052 237.825 40.1444C263.323 42.3836 288.484 47.8358 313.262 56.8452Z" fill="#7AC76B"/>
<path d="M741.063 353.772C741.066 353.21 741.387 352.666 741.92 352.411C742.68 352.05 743.574 352.358 743.95 353.118C759.244 384.883 764.184 414.444 759.066 443.486C758.926 444.305 758.134 444.862 757.315 444.722C756.496 444.581 755.939 443.805 756.079 442.971C761.088 414.566 756.22 385.627 741.212 354.455C741.107 354.242 741.062 354.014 741.063 353.787L741.063 353.772Z" fill="#64B154"/>
<path d="M775.316 311.728C773.462 326.225 772.994 334.057 786.316 340.728" stroke="#F04A4A" stroke-width="4"/>
<path d="M798.799 461.992C795.776 443.59 792.693 439.296 811.299 420.992" stroke="#F04A4A" stroke-width="4"/>
<path d="M1746.28 356.732C1739.84 376.269 1654.51 508.953 1628.28 480.526C1606.68 457.094 1664.81 405.634 1650.47 396.705C1635.51 387.376 1612.37 405.555 1592.2 425.171C1566.09 450.561 1530.97 518.262 1515.45 508.813C1507.2 503.799 1509.22 480.286 1519.24 454.896C1513.85 448.804 1510.91 442.431 1509.76 436.039C1491.62 418.14 1491.16 400.7 1497.45 385.998L1496.03 387.795C1459.83 359.609 1595.31 253 1628.28 229" fill="#7AC76B"/>
<path d="M1746.28 356.732C1739.84 376.269 1654.51 508.953 1628.28 480.526C1606.68 457.094 1664.81 405.634 1650.47 396.705C1635.51 387.376 1612.37 405.555 1592.2 425.171C1566.09 450.561 1530.97 518.262 1515.45 508.813C1507.2 503.799 1509.22 480.286 1519.24 454.896C1513.85 448.804 1510.91 442.431 1509.76 436.039C1491.62 418.14 1491.16 400.7 1497.45 385.998L1496.03 387.795C1459.83 359.609 1595.31 253 1628.28 229C1661.24 205 1822.31 81 1995.31 87.9999C2168.31 94.9999 2299.31 194 2299.31 194L2211.31 387.795C2211.31 387.795 2055.81 269.5 1951.31 274.5C1846.81 279.5 1776.35 332.37 1746.28 356.732Z" fill="#7AC76B"/>
<path d="M1519.72 455.655C1519.49 455.655 1519.23 455.615 1518.99 455.516C1517.97 455.096 1517.47 453.937 1517.89 452.919C1525.42 434.281 1539.24 408.711 1562.33 392.69C1563.23 392.05 1564.49 392.29 1565.11 393.189C1565.73 394.088 1565.51 395.346 1564.61 395.966C1542.34 411.428 1528.91 436.298 1521.58 454.417C1521.26 455.196 1520.52 455.655 1519.72 455.655Z" fill="#64B154"/>
<path d="M1510.21 440.254C1509.31 440.254 1508.5 439.654 1508.28 438.735C1506.5 431.564 1506.86 423.793 1509.31 415.643C1514.17 399.502 1526.35 382.721 1543.63 368.358C1544.49 367.659 1545.75 367.779 1546.45 368.618C1547.15 369.457 1547.03 370.716 1546.19 371.435C1529.51 385.278 1517.78 401.399 1513.15 416.781C1510.89 424.252 1510.57 431.304 1512.17 437.777C1512.43 438.855 1511.79 439.934 1510.71 440.194C1510.55 440.234 1510.39 440.254 1510.23 440.254H1510.21Z" fill="#64B154"/>
<path d="M1495.81 392.39C1495.61 392.39 1495.41 392.35 1495.19 392.29C1494.13 391.951 1493.55 390.832 1493.89 389.773C1501.13 367.26 1522.02 351.618 1533.83 344.307C1534.77 343.727 1536 344.007 1536.58 344.946C1537.16 345.885 1536.88 347.123 1535.94 347.703C1524.6 354.734 1504.54 369.697 1497.71 390.992C1497.43 391.831 1496.65 392.37 1495.81 392.37V392.39Z" fill="#64B154"/>
<path d="M1565.06 462.478C1552.37 448.756 1541.36 443.071 1517.31 456.728" stroke="#F04A4A" stroke-width="4"/>
<path d="M1704.81 426.728L1563.31 461.728" stroke="#F04A4A" stroke-width="4"/>
<path d="M1574.31 269.728C1563.03 320.95 1582.9 348.07 1622.31 400.728L1651.31 407.728C1675.31 403.342 1687.24 407.33 1705.31 427.728" stroke="#F04A4A" stroke-width="4"/>
<g clip-path="url(#clip0_3001_150)">
<path d="M1304.88 604.555C1292.74 587.599 1242.88 618.025 1242.88 618.025C1242.88 618.025 1312.17 568.763 1300.03 554.49C1287.9 540.217 1222.46 582.032 1222.46 582.032C1222.46 582.032 1222.52 581.991 1222.63 581.911C1226.71 578.86 1306.4 519.356 1292.21 504.132C1277.66 488.508 1194.88 550.712 1194.88 550.712C1194.88 550.712 1255.55 499.825 1240.17 485.022C1230.94 476.133 1142.72 527.422 1109.31 552.847C1108.26 552.301 1105.96 550.767 1102.79 548.656C1085.99 537.44 1044.76 509.928 1036.34 527.531C1026.35 548.448 1065.83 606.782 1065.83 606.782C1065.83 606.782 1057.81 649.5 1053.31 689C1053.31 689 1045.31 799.5 1065.83 860.642C1086.34 921.785 1089.31 941 1089.31 941L1261.31 926C1261.31 926 1222.63 879.5 1216.63 860.642C1210.64 841.785 1190.81 754.693 1198.81 717.5C1206.81 680.307 1216.63 678.641 1216.63 678.641C1216.63 678.641 1317.01 621.512 1304.88 604.555Z" fill="#7AC76B"/>
<path d="M1235.13 637.098C1235.33 637.098 1235.53 637.061 1235.73 637.007C1236.68 636.678 1237.19 635.638 1236.87 634.689C1223.03 594.589 1202.19 565.148 1173.19 544.651C1172.36 544.067 1171.23 544.267 1170.65 545.089C1170.06 545.91 1170.26 547.06 1171.08 547.626C1199.43 567.667 1219.83 596.542 1233.41 635.875C1233.67 636.623 1234.38 637.098 1235.15 637.098H1235.13Z" fill="#64B154"/>
</g>
<path d="M1108.31 551.728C1078.61 562.807 1069.68 577.692 1062.81 606.228" stroke="#F04A4A" stroke-width="4"/>
<path d="M1185.31 505.728C1204.32 511.153 1209.66 518.217 1211.31 536.728" stroke="#F04A4A" stroke-width="4"/>
<defs>
<clipPath id="clip0_3001_150">
<rect width="271.182" height="387" fill="white" transform="matrix(-1 0 0 1 1305.9 484)"/>
</clipPath>
</defs>
</svg>
