<svg width="3656" height="1100" viewBox="0 0 3656 1100" fill="none" xmlns="http://www.w3.org/2000/svg">
<path d="M1738 572.5L1412.19 540.75" stroke="#F04A4A" stroke-width="4" stroke-linecap="round"/>
<path d="M1422.81 571.729L1446.81 652.729" stroke="#F04A4A" stroke-width="4"/>
<path d="M1736.81 572.729L1445.81 649.729" stroke="#F04A4A" stroke-width="4"/>
<path d="M2153.81 685.729L1846.81 763.728" stroke="#F04A4A" stroke-width="4"/>
<path d="M1808.81 683.729L1821.81 734.729" stroke="#F04A4A" stroke-width="4"/>
<path d="M1804.31 585.729L2154.81 681.729" stroke="#F04A4A" stroke-width="4"/>
<path d="M1803.43 584.214L1808.92 683.655M1803.43 584.214C1821.87 536.809 1855.71 548.469 1865.61 572.896M1803.43 584.214L1865.61 572.896M1803.43 584.214C1786.73 551.417 1747.1 547.616 1737.84 572.896M1803.43 584.214L1737.84 572.896M1808.92 683.655C1808.92 683.655 1859.92 633.591 1867.81 597.244C1869.64 588.814 1868.6 580.273 1865.61 572.896M1808.92 683.655C1808.92 683.655 1741.64 646.964 1735.81 597.244C1734.65 587.318 1735.53 579.202 1737.84 572.896" stroke="#F04A4A" stroke-width="4"/>
<path fill-rule="evenodd" clip-rule="evenodd" d="M1063.59 373.76C1035.37 331.463 996.854 302.972 949.762 285.845C924.983 276.836 899.822 271.383 874.325 269.144L872.655 268.997C846.322 266.678 741.999 265.5 714.827 268.341C681.999 269.144 501.148 258.963 435.958 232.65C373.853 207.583 319.408 163.975 255.835 78.782L255.588 78.4508L217.338 28.1218L67.6594 141.877L105.415 191.556C182.257 294.451 262.04 365.189 365.592 406.985C464.525 446.917 583.341 455.37 716.499 454.75C786.749 452.75 811.974 451.422 840.607 453.837C850.962 454.71 861.521 455.601 874.325 456.107C905.313 457.331 934.868 466.432 962.828 483.597C995.926 503.905 1021.83 531.73 1044.9 562.481C1048.66 567.491 1052.32 572.592 1055.98 577.694L1055.98 577.695L1055.98 577.697C1064.18 589.126 1072.38 600.555 1081.71 610.964C1136.06 671.546 1204.73 705.593 1283.73 724.127C1283.73 724.127 1395.16 763.531 1410.28 747.67C1422.33 735.032 1391.63 717.109 1375.98 707.976C1372 705.647 1368.99 703.89 1367.91 702.937C1367.91 702.937 1503.04 681.545 1501.97 661.427C1500.9 641.309 1427.01 653.062 1427.01 653.062C1427.01 653.062 1522.67 632.53 1520.51 612.489C1518.41 593.001 1427.1 612.828 1421.92 613.953C1421.77 613.986 1421.69 614.003 1421.69 614.003C1421.69 614.003 1492.05 593.218 1489.37 575.739C1486.67 558.261 1408.6 577.176 1408.6 577.176C1408.6 577.176 1461.19 560.441 1456.57 541.302C1451.95 522.146 1382.73 553.777 1382.73 553.777C1341.04 571.108 1315.68 575.319 1266.13 570.026C1246.99 568.35 1228.17 561.271 1209.72 549.302C1181.98 531.307 1159.13 507.938 1139.67 481.639C1113.51 446.275 1088.01 410.352 1063.59 373.76Z" fill="#7AC76B"/>
<path d="M1377.56 582.772C1377.57 582.21 1377.89 581.666 1378.42 581.41C1379.18 581.05 1380.07 581.358 1380.45 582.118C1395.74 613.883 1400.68 643.444 1395.57 672.486C1395.43 673.305 1394.63 673.862 1393.82 673.722C1393 673.581 1392.44 672.805 1392.58 671.971C1397.59 643.566 1392.72 614.627 1377.71 583.455C1377.61 583.242 1377.56 583.014 1377.56 582.787L1377.56 582.772Z" fill="#64B154"/>
<path d="M1411.81 540.728C1409.96 555.225 1409.43 564.578 1422.75 571.25" stroke="#F04A4A" stroke-width="4" stroke-linecap="round" stroke-linejoin="round"/>
<path fill-rule="evenodd" clip-rule="evenodd" d="M3655.26 144.663L3629.71 215.402C3629.42 216.271 3629.04 217.383 3628.58 218.726C3627.58 221.605 3626.18 225.549 3624.37 230.425C3620.75 240.164 3615.46 253.695 3608.43 269.94C3594.45 302.248 3573.19 346.233 3543.92 392.845C3487.47 482.73 3390.71 599.09 3243.83 641.821C3110.09 680.728 2996.27 665.14 2915.49 638.842C2890.24 630.619 2869.58 621.386 2849.79 612.443C2830 603.5 2789.48 577.379 2789.48 577.379C2734.66 543.474 2651.7 500.443 2587.81 503.5C2483.31 508.5 2412.85 561.37 2382.78 585.732C2376.34 605.269 2291.01 737.953 2264.78 709.526C2252.38 696.078 2266.25 673.4 2277.6 654.827C2286.03 641.037 2293.08 629.51 2286.97 625.705C2272.01 616.376 2248.87 634.555 2228.7 654.171C2218.94 663.665 2207.91 679.075 2197.13 694.155C2179.07 719.404 2161.67 743.729 2151.95 737.813C2143.7 732.799 2145.72 709.286 2155.74 683.896C2150.35 677.804 2147.41 671.431 2146.26 665.039C2128.12 647.14 2127.66 629.7 2133.95 614.998L2132.53 616.795C2096.33 588.609 2231.81 482 2264.78 458C2266.09 457.041 2267.61 455.923 2269.33 454.661L2269.34 454.654C2310.65 424.288 2465.73 310.28 2631.81 317C2760.1 322.191 2899.44 399.912 2911.09 406.456C2922.75 413 2956.1 431.211 2980.51 439.159C3028.73 454.86 3098.91 465.272 3185.17 440.18C3258.28 418.91 3319.53 355.271 3366.08 281.155C3388.31 245.767 3404.8 211.752 3415.69 186.56C3421.1 174.055 3425.03 163.961 3427.52 157.263C3428.77 153.92 3429.64 151.442 3430.16 149.954C3430.42 149.21 3430.58 148.715 3430.66 148.485L3430.67 148.442L3430.68 148.422L3430.71 148.341L3431.15 146.963L3457.74 73.3374L3655.26 144.663Z" fill="#7AC76B"/>
<path d="M2156.22 684.655C2155.99 684.655 2155.73 684.615 2155.49 684.516C2154.47 684.096 2153.97 682.937 2154.39 681.919C2161.92 663.281 2175.74 637.711 2198.83 621.69C2199.73 621.05 2200.99 621.29 2201.61 622.189C2202.23 623.088 2202.01 624.346 2201.11 624.966C2178.84 640.428 2165.41 665.298 2158.08 683.417C2157.76 684.196 2157.02 684.655 2156.22 684.655Z" fill="#64B154"/>
<path d="M2146.71 669.254C2145.81 669.254 2145 668.654 2144.78 667.735C2143 660.564 2143.36 652.793 2145.81 644.643C2150.67 628.502 2162.85 611.721 2180.13 597.358C2180.99 596.659 2182.25 596.779 2182.95 597.618C2183.65 598.457 2183.53 599.716 2182.69 600.435C2166.01 614.278 2154.28 630.399 2149.65 645.781C2147.39 653.252 2147.07 660.304 2148.67 666.777C2148.93 667.855 2148.29 668.934 2147.21 669.194C2147.05 669.234 2146.89 669.254 2146.73 669.254H2146.71Z" fill="#64B154"/>
<path d="M2132.31 621.39C2132.11 621.39 2131.91 621.35 2131.69 621.29C2130.63 620.951 2130.05 619.832 2130.39 618.773C2137.63 596.26 2158.52 580.618 2170.33 573.307C2171.27 572.727 2172.5 573.007 2173.08 573.946C2173.66 574.885 2173.38 576.123 2172.44 576.703C2161.1 583.734 2141.04 598.697 2134.21 619.992C2133.93 620.831 2133.15 621.37 2132.31 621.37V621.39Z" fill="#64B154"/>
<path d="M2152.56 685.979C2176.1 672.613 2187.14 677.773 2199.5 690.862C2200 691.392 2200.75 691.62 2201.46 691.445L2338.6 657.522C2340.06 657.161 2340.61 655.373 2339.59 654.269C2322.83 636.125 2310.96 632.568 2288.23 636.652C2287.96 636.701 2287.67 636.695 2287.4 636.629L2259.51 629.898C2259.06 629.788 2258.65 629.517 2258.37 629.144C2220.04 577.924 2200.37 550.865 2210.17 501.788C2210.45 500.362 2209.2 499.073 2207.77 499.377L1863.81 572.729" stroke="#F04A4A" stroke-width="4" stroke-linejoin="round"/>
<g clip-path="url(#clip0_3002_746)">
<path d="M1941.38 833.556C1929.24 816.599 1879.38 847.026 1879.38 847.026C1879.38 847.026 1948.67 797.763 1936.53 783.49C1924.4 769.217 1858.96 811.033 1858.96 811.033C1858.96 811.033 1859.02 810.991 1859.13 810.911C1863.21 807.86 1942.9 748.357 1928.71 733.132C1914.16 717.509 1831.38 779.712 1831.38 779.712C1831.38 779.712 1892.05 728.825 1876.67 714.022C1867.44 705.134 1779.22 756.422 1745.81 781.847C1744.76 781.301 1742.46 779.767 1739.29 777.656C1722.49 766.441 1681.26 738.929 1672.84 756.532C1662.85 777.449 1702.33 835.782 1702.33 835.782C1702.33 835.782 1694.31 878.5 1689.81 918C1689.81 918 1681.81 1028.5 1702.33 1089.64C1722.84 1150.79 1725.81 1170 1725.81 1170L1897.81 1155C1897.81 1155 1859.13 1108.5 1853.13 1089.64C1847.14 1070.79 1827.31 983.694 1835.31 946.5C1843.31 909.307 1853.13 907.641 1853.13 907.641C1853.13 907.641 1953.51 850.512 1941.38 833.556Z" fill="#7AC76B"/>
<path d="M1871.63 866.098C1871.83 866.098 1872.03 866.061 1872.23 866.007C1873.18 865.678 1873.69 864.638 1873.37 863.689C1859.53 823.589 1838.69 794.148 1809.69 773.651C1808.86 773.067 1807.73 773.268 1807.15 774.089C1806.56 774.91 1806.76 776.06 1807.58 776.626C1835.93 796.667 1856.33 825.542 1869.91 864.875C1870.17 865.623 1870.88 866.098 1871.65 866.098H1871.63Z" fill="#64B154"/>
</g>
<path d="M1821.75 734C1840.76 739.424 1846.59 745.363 1848.25 763.875" stroke="#F04A4A" stroke-width="4" stroke-linecap="round"/>
<path d="M1808.81 683.729L1745.17 780.184C1744.94 780.538 1744.59 780.811 1744.19 780.961C1715.86 791.683 1706.68 806 1699.93 832.708C1699.61 833.979 1698.18 834.621 1697.03 834L1436.18 693.695C1435.63 693.401 1435.25 692.868 1435.16 692.254C1432.4 674.269 1435.48 658.845 1444.75 650.25" stroke="#F04A4A" stroke-width="4" stroke-linecap="round"/>
<defs>
<clipPath id="clip0_3002_746">
<rect width="271.182" height="387" fill="white" transform="matrix(-1 0 0 1 1942.4 713)"/>
</clipPath>
</defs>
</svg>
