<svg width="1057" height="652" viewBox="0 0 1057 652" fill="none" xmlns="http://www.w3.org/2000/svg">
<path d="M528.5 285.729H401.5" stroke="#F04A4A" stroke-width="4"/>
<path d="M476 276.729L393.5 209.229" stroke="#F04A4A" stroke-width="4"/>
<path d="M707 200.729L586 454.729" stroke="#F04A4A" stroke-width="4"/>
<path d="M579.5 277.229L628.5 108.229" stroke="#F04A4A" stroke-width="4"/>
<path d="M533 362.368L579.5 425.729" stroke="#F04A4A" stroke-width="4"/>
<path d="M533 362.368L527 452.729" stroke="#F04A4A" stroke-width="4"/>
<path d="M386.5 192.729C492.023 206.622 551.273 202.98 657 181.729" stroke="#F04A4A" stroke-width="4"/>
<path d="M401 284.229L501.318 487.262" stroke="#F04A4A" stroke-width="4"/>
<g clip-path="url(#clip0_3007_113)">
<path d="M651.332 486.222C643.783 475.675 612.771 494.6 612.771 494.6C612.771 494.6 655.868 463.959 648.319 455.082C640.771 446.204 600.072 472.213 600.072 472.213C600.072 472.213 600.107 472.187 600.173 472.137C602.715 470.24 652.282 433.229 643.453 423.76C634.404 414.043 582.918 452.732 582.918 452.732C582.918 452.732 620.649 421.081 611.088 411.874C605.347 406.346 550.473 438.246 529.692 454.06C529.038 453.72 527.609 452.766 525.641 451.453C515.187 444.477 489.543 427.365 484.31 438.314C478.092 451.324 502.647 487.606 502.647 487.606C502.647 487.606 497.662 514.176 494.863 538.744C494.863 538.744 489.887 607.473 502.647 645.502C515.407 683.532 517.254 695.483 517.254 695.483L624.235 686.154C624.235 686.154 600.173 657.231 596.446 645.502C592.719 633.773 580.383 579.604 585.361 556.471C590.339 533.337 596.446 532.301 596.446 532.301C596.446 532.301 658.88 496.768 651.332 486.222Z" fill="#7AC76B"/>
<path d="M607.948 506.462C608.073 506.462 608.198 506.439 608.323 506.405C608.914 506.201 609.232 505.554 609.028 504.963C600.422 480.022 587.462 461.711 569.421 448.962C568.909 448.598 568.205 448.723 567.841 449.234C567.477 449.745 567.602 450.46 568.114 450.812C585.746 463.277 598.433 481.237 606.879 505.701C607.038 506.167 607.482 506.462 607.959 506.462H607.948Z" fill="#64B154"/>
</g>
<path d="M529.07 453.364C510.594 460.254 505.04 469.513 500.77 487.262" stroke="#F04A4A" stroke-width="4"/>
<path d="M576.961 424.753C588.783 428.127 592.102 432.52 593.132 444.034" stroke="#F04A4A" stroke-width="4"/>
<path d="M730.693 159.003C726.899 170.527 676.565 248.785 661.094 232.019C648.357 218.198 682.644 187.847 674.184 182.58C665.359 177.078 651.715 187.8 639.815 199.37C624.416 214.345 603.702 254.276 594.547 248.703C589.681 245.745 590.871 231.878 596.786 216.902C593.605 213.308 591.873 209.55 591.189 205.779C580.491 195.222 580.22 184.936 583.931 176.265L583.095 177.325C561.745 160.7 641.651 97.8206 661.094 83.6651" fill="#7AC76B"/>
<path d="M730.693 159.003C726.899 170.527 676.565 248.785 661.094 232.019C648.357 218.198 682.644 187.847 674.184 182.58C665.359 177.078 651.715 187.8 639.815 199.37C624.416 214.345 603.702 254.276 594.547 248.703C589.681 245.745 590.871 231.878 596.786 216.902C593.605 213.308 591.873 209.55 591.189 205.779C580.491 195.222 580.22 184.936 583.931 176.265L583.095 177.325C561.745 160.7 641.651 97.8206 661.094 83.6651C680.537 69.5095 775.54 -3.6275 877.577 0.501163C979.615 4.62983 1056.88 63.0216 1056.88 63.0216L1004.98 177.325C1004.98 177.325 913.261 107.553 851.626 110.502C789.99 113.451 748.428 144.634 730.693 159.003Z" fill="#7AC76B"/>
<path d="M597.07 217.35C596.929 217.35 596.776 217.326 596.634 217.268C596.033 217.02 595.739 216.337 595.986 215.736C600.428 204.743 608.582 189.661 622.202 180.212C622.732 179.835 623.475 179.976 623.84 180.506C624.205 181.037 624.075 181.779 623.545 182.144C610.408 191.264 602.49 205.933 598.166 216.62C597.977 217.079 597.541 217.35 597.07 217.35Z" fill="#64B154"/>
<path d="M591.459 208.265C590.929 208.265 590.446 207.912 590.316 207.37C589.267 203.14 589.479 198.557 590.929 193.75C593.792 184.229 600.979 174.332 611.171 165.861C611.678 165.448 612.42 165.519 612.832 166.014C613.245 166.509 613.174 167.251 612.679 167.675C602.841 175.84 595.924 185.349 593.191 194.421C591.86 198.828 591.671 202.987 592.614 206.804C592.767 207.441 592.39 208.077 591.753 208.23C591.659 208.254 591.565 208.265 591.471 208.265H591.459Z" fill="#64B154"/>
<path d="M582.966 180.035C582.848 180.035 582.73 180.011 582.6 179.976C581.976 179.776 581.634 179.116 581.835 178.491C586.1 165.213 598.424 155.987 605.388 151.675C605.941 151.333 606.672 151.498 607.014 152.052C607.355 152.606 607.19 153.336 606.637 153.678C599.944 157.825 588.115 166.65 584.085 179.21C583.92 179.705 583.461 180.023 582.966 180.023V180.035Z" fill="#64B154"/>
<path d="M623.812 221.374C616.325 213.28 609.833 209.928 595.648 217.983" stroke="#F04A4A" stroke-width="3.7931"/>
<path d="M706.236 200.288L622.777 220.932" stroke="#F04A4A" stroke-width="3.7931"/>
<path d="M629.264 107.687C622.61 137.898 634.329 153.894 657.575 184.953L674.68 189.081C688.833 186.494 695.868 188.847 706.53 200.878" stroke="#F04A4A" stroke-width="3.7931"/>
<path d="M296.47 210.913C327.529 214.231 343.424 211.592 369.556 200.729C369.556 200.729 412.943 180.903 415.839 192.91C418.734 204.906 385.767 215.395 385.767 215.395C385.767 215.395 434.701 203.54 436.394 214.494C438.075 225.45 393.976 238.478 393.976 238.478C393.976 238.478 394.025 238.468 394.119 238.447C397.364 237.742 454.599 225.314 455.913 237.529C457.264 250.091 397.305 262.96 397.305 262.96C397.305 262.96 443.62 255.594 444.291 268.203C444.963 280.813 360.266 294.222 360.266 294.222C360.939 294.819 362.825 295.92 365.325 297.379C375.132 303.104 394.376 314.338 386.824 322.26C377.347 332.201 307.499 307.503 307.499 307.503" fill="#7AC76B"/>
<path fill-rule="evenodd" clip-rule="evenodd" d="M217.205 155.513C200.806 133.347 184.825 110.831 169.522 87.8957L106.362 156.74C127.108 169.469 143.345 186.91 157.805 206.184C160.161 209.325 162.455 212.522 164.748 215.72L164.749 215.721L164.75 215.722C169.887 222.885 175.026 230.049 180.878 236.573C214.945 274.546 257.986 295.886 307.499 307.503C307.499 307.503 377.347 332.201 386.824 322.26C394.376 314.338 375.132 303.104 365.325 297.379C362.825 295.92 360.939 294.819 360.266 294.222C360.266 294.222 444.963 280.813 444.291 268.203C443.62 255.594 397.305 262.96 397.305 262.96C397.305 262.96 457.264 250.091 455.913 237.529C454.599 225.314 397.364 237.742 394.119 238.447C394.025 238.468 393.976 238.478 393.976 238.478C393.976 238.478 438.075 225.45 436.394 214.494C434.701 203.54 385.767 215.395 385.767 215.395C385.767 215.395 418.734 204.906 415.839 192.91C412.943 180.903 369.556 200.729 369.556 200.729C343.424 211.592 327.529 214.231 296.47 210.913C284.471 209.863 272.678 205.426 261.115 197.924C243.723 186.645 229.403 171.997 217.205 155.513Z" fill="#7AC76B"/>
<path fill-rule="evenodd" clip-rule="evenodd" d="M50.8892 22.3232L50.8892 139.51C70.3123 140.277 88.8375 145.982 106.362 156.74L169.522 87.8957C151.833 61.3843 127.69 43.5261 98.1726 32.7911C82.6416 27.1441 66.8707 23.7267 50.8892 22.3232Z" fill="#7AC76B"/>
<path d="M366.315 218.903C366.317 218.551 366.518 218.209 366.852 218.049C367.329 217.823 367.889 218.016 368.124 218.493C377.71 238.403 380.807 256.932 377.599 275.135C377.511 275.648 377.015 275.997 376.502 275.909C375.988 275.821 375.639 275.335 375.727 274.812C378.866 257.008 375.815 238.869 366.408 219.331C366.342 219.197 366.314 219.055 366.315 218.912L366.315 218.903Z" fill="#64B154"/>
<path d="M387.784 192.55C386.622 201.636 388.15 207.046 396.5 211.228" stroke="#F04A4A" stroke-width="4"/>
<path d="M402.503 286.734C400.608 275.2 398.676 272.508 410.338 261.036" stroke="#F04A4A" stroke-width="4"/>
<path d="M529.152 285.474L533.588 365.885M529.152 285.474C544.059 247.14 571.424 256.569 579.428 276.322M529.152 285.474C515.642 258.953 483.602 255.88 476.109 276.322M529.152 285.474L476.109 276.322M529.152 285.474L554.29 280.898L579.428 276.322M533.588 365.885C533.588 365.885 574.833 325.401 581.213 296.01C582.693 289.193 581.845 282.287 579.428 276.322M533.588 365.885C533.588 365.885 479.185 336.215 474.473 296.01C473.533 287.983 474.24 281.421 476.109 276.322" stroke="#F04A4A" stroke-width="4"/>
<defs>
<clipPath id="clip0_3007_113">
<rect width="168.67" height="240.706" fill="white" transform="matrix(-1 0 0 1 651.969 411.238)"/>
</clipPath>
</defs>
</svg>
