<svg aria-hidden="true" style="position: absolute; width: 0; height: 0; overflow: hidden;" version="1.1" xmlns="http://www.w3.org/2000/svg" xmlns:xlink="http://www.w3.org/1999/xlink">
<defs>
<symbol id="nav-arrow" viewBox="0 0 32 32">
<path d="M24.459 7.829v15.085h-3.52v-9.051l-11.565 11.565-2.514-2.514 11.565-11.565h-9.051v-3.52h15.085z"></path>
</symbol>
<symbol id="logo" viewBox="0 0 84 32">
<path fill="#f47920" style="fill: var(--color1, #f47920)" d="M83.765 10.458c0.020-1.441-0.483-2.842-1.421-3.956-1.647-1.8-4.36-1.973-6.254-1.925-2.624 0-30.856 0.963-34.072 1.117h-0.178c0-0.106 0-0.202 0-0.202-0.175-1.221-0.717-2.363-1.559-3.282-0.785-0.795-1.746-1.403-2.81-1.779s-2.201-0.508-3.326-0.387c-3.837 0.144-6.481 2.753-7.714 4.303l-0.099 0.125-0.158-0.058c-2.782-0.89-5.76-1.019-8.612-0.375-3.62 0.777-7.017 2.332-9.943 4.553-5.218 4.235-7.892 9.289-7.596 14.217 0.087 1.397 0.493 2.757 1.187 3.981s1.661 2.281 2.827 3.094c4.005 2.888 10.535 2.137 13.159 1.665 2.959-0.539 48.839-9.298 54.856-10.521 5.485-1.107 10.693-3.013 11.63-9.356 0.056-0.379 0.082-0.762 0.079-1.145v-0.067z"></path>
<path fill="#fff" style="fill: var(--color2, #fff)" d="M34.275 9.207c1.598-0.096 3.157-0.818 3.265-2.445 0.069-1.088-0.819-2.204-2.565-2.272-0.891-0.065-1.778 0.177-2.506 0.683-0.504 0.359-0.855 0.887-0.986 1.482-0.096 0.29-0.121 0.599-0.071 0.9s0.172 0.587 0.357 0.833c0.317 0.326 0.711 0.572 1.148 0.714s0.903 0.178 1.357 0.104z"></path>
<path fill="#fff" style="fill: var(--color2, #fff)" d="M80.245 11.142c-0.098 0.247-0.245 0.472-0.436 0.661s-0.418 0.337-0.67 0.436h-0.197c0 0 0.158-1.097 0.158-1.434 0-1.502-0.375-3.080-2.792-2.888-1.041 0.14-1.998 0.63-2.708 1.386s-1.126 1.73-1.179 2.753c-0.005 0.019-0.005 0.039 0 0.058-0.355 0.963-0.986 2.272-1.49 2.339-0.048 0.006-0.097 0.001-0.143-0.014s-0.088-0.040-0.123-0.073c-0.049-0.051-0.087-0.112-0.111-0.178s-0.033-0.137-0.027-0.207c0.046-0.443 0.131-0.881 0.256-1.309 0.195-0.745 0.327-1.505 0.395-2.272 0.148-1.848-0.986-2.195-2.21-2.089-0.739 0.063-1.434 0.368-1.973 0.866l-0.424 0.491c0 0 0.178-0.963 0.237-1.165l-2.673 0.202-0.878 3.764c-0.282 0.412-0.689 0.728-1.164 0.905h-0.178v-0.183c-0.018-0.192-0.051-0.381-0.099-0.568-0.069-0.424-0.474-1.858-1.904-1.713-3.699 0.356-3.522 4.813-1.322 4.168l0.256-0.087v0.27c-0.266 1.781-1.036 2.734-2.091 2.888-0.078 0.010-0.157 0.003-0.232-0.020s-0.144-0.063-0.202-0.115c-0.107-0.119-0.189-0.258-0.24-0.408s-0.070-0.31-0.056-0.468c0-0.876 1.667-8.172 1.667-8.172l-3.433 0.183c-0.158 0.664-0.829 3.561-0.829 3.571l-0.099 0.375c-0.128 0.501-0.217 0.828-0.276 1.165v0.067c-0.523 1.376-1.44 2.888-2.15 2.974-0.066 0.008-0.133 0.002-0.196-0.018s-0.121-0.053-0.169-0.097c-0.055-0.052-0.099-0.115-0.128-0.185s-0.043-0.144-0.040-0.219l0.049-0.597c0 0 1.716-6.536 1.835-6.969l-3.946 0.135-0.335 1.194c-0.136-0.348-0.358-0.657-0.645-0.901s-0.633-0.415-1.004-0.498-0.759-0.075-1.126 0.023c-0.368 0.098-0.705 0.283-0.982 0.538-1.638 1.492-2.052 3.687-2.269 5.852v0.077c-0.306 2.599-0.888 4.389-2.742 4.659-0.363 0.078-0.742 0.034-1.075-0.125 0.53-0.362 0.977-0.827 1.312-1.367 0.152-0.189 0.263-0.407 0.326-0.639s0.077-0.475 0.041-0.712c-0.036-0.238-0.121-0.466-0.25-0.67s-0.3-0.381-0.501-0.52c-0.319-0.175-0.678-0.269-1.044-0.274s-0.727 0.080-1.051 0.246c-0.324 0.167-0.6 0.41-0.802 0.707s-0.326 0.64-0.358 0.996c-0.115 0.707 0.043 1.431 0.444 2.031-0.46 0.342-0.992 0.579-1.559 0.693-0.178 0.031-0.361 0.020-0.532-0.034s-0.328-0.148-0.454-0.274c-0.414-0.529 0.109-2.281 0.187-2.503 0 0 2.417-7.412 2.555-7.874l-5.346 0.27c-0.158 0.462-0.71 2.272-1.292 3.947-1.154 3.273-4.557 7.758-8.118 8.73-1.904 0.51-3.383 0.443-4.34-0.106-1.302-0.751-2.062-2.599-1.608-5.198 0.175-1.238 0.545-2.442 1.095-3.571 2.89-6.266 7.744-4.938 7.458-4.457-0.318 0.112-0.625 0.25-0.917 0.414-0.556 0.319-1.025 0.764-1.368 1.296s-0.551 1.138-0.605 1.765c-0.035 0.398 0.018 0.799 0.154 1.175s0.352 0.721 0.635 1.010c0.286 0.247 0.624 0.43 0.991 0.535s0.752 0.129 1.13 0.072c0.945-0.078 1.826-0.5 2.466-1.184s0.992-1.577 0.986-2.503c0.036-0.493-0.033-0.988-0.202-1.453s-0.437-0.892-0.784-1.251c-1.085-1.068-2.348-1.598-5.139-1.482-4.291 0.183-10.792 3.292-12.567 9.982-0.27 1.083-0.259 2.215 0.034 3.293s0.858 2.067 1.643 2.877c1.973 1.675 4.33 2.272 8.483 1.454 3.699-0.751 6.708-3.263 8.878-5.891-0.004 0.042-0.004 0.084 0 0.125-0.503 1.925 0.256 3.918 3.502 3.456 1.921-0.338 3.735-1.109 5.297-2.252 0.512 0.366 1.097 0.624 1.717 0.755s1.262 0.133 1.883 0.006c0.736-0.157 1.431-0.461 2.042-0.891s1.125-0.979 1.509-1.612c1.075-1.55 1.578-4.553 1.855-6.18 0.057-0.497 0.166-0.988 0.326-1.463 0.087-0.237 0.258-0.435 0.483-0.558 0.572-0.25 0.888 0.308 0.779 0.722s-0.681 2.483-0.681 2.483l-0.109 0.327c-0.418 1.080-0.664 2.216-0.73 3.369-0.034 0.365 0.013 0.732 0.138 1.077s0.323 0.661 0.583 0.925c0.248 0.206 0.543 0.352 0.86 0.426s0.648 0.073 0.965-0.002c2.042-0.327 3.462-2.368 4.133-3.562l0.089-0.164 0.138-0.241 0.089 0.443c0.355 1.761 1.786 2.445 3.946 2.108 2.772-0.443 4.409-1.877 4.883-4.322v-0.106h0.099c0.267-0.105 0.521-0.237 0.76-0.395l0.207-0.144-0.927 3.927 3.206-0.558c0-0.241 1.105-5.005 1.105-5.005 0.178-0.828 0.7-2.397 1.312-2.445 0.062-0.007 0.125 0 0.184 0.022s0.111 0.057 0.152 0.103c0.153 0.17 0.235 0.39 0.227 0.616-0.047 0.605-0.166 1.203-0.355 1.781-0.256 0.911-0.431 1.842-0.523 2.782-0.048 0.224-0.036 0.456 0.035 0.674s0.198 0.415 0.37 0.571 0.382 0.266 0.61 0.319c0.228 0.053 0.466 0.048 0.692-0.014 0.986-0.154 2.348-0.683 3.443-3.148l0.069 0.26c0.122 0.621 0.489 1.171 1.022 1.531s1.19 0.502 1.828 0.394c0.729-0.095 1.419-0.381 1.994-0.829s1.015-1.040 1.271-1.712v-0.096h0.099c0.406-0.103 0.776-0.308 1.074-0.596s0.513-0.646 0.623-1.041c-0.037-0.144-0.083-0.285-0.138-0.424zM37.196 19.353c-0.74-1.097-0.059-2.358 0.661-2.339s0.819 0.356 0.503 1.040c-0.282 0.514-0.68 0.958-1.164 1.3zM59.105 13.712c-0.087 0.097-0.193 0.176-0.311 0.232s-0.248 0.089-0.379 0.095c-0.375 0.058-0.474-0.135-0.493-0.221-0.005-0.204 0.047-0.405 0.149-0.583s0.252-0.326 0.433-0.427c0.068-0.041 0.147-0.062 0.227-0.062s0.159 0.022 0.227 0.062c0.085 0.134 0.142 0.282 0.167 0.438s0.019 0.314-0.019 0.467zM77.038 12.21c-0.155-0.131-0.258-0.311-0.288-0.509s0.012-0.4 0.121-0.569c0.033-0.052 0.084-0.091 0.144-0.108s0.125-0.013 0.181 0.012c-0.003 0.396-0.056 0.791-0.158 1.174zM77.236 9.948v0.058c0 0-1.105 0.067-1.194 1.665-0.010 0.28 0.056 0.557 0.191 0.804s0.335 0.454 0.578 0.602v0.212c-0.227 0.674-0.523 1.415-1.144 1.502-0.090 0.019-0.183 0.018-0.272-0.004s-0.172-0.063-0.241-0.122c-0.217-0.183-0.306-0.356-0.306-0.963 0-1.453 0.73-5.073 1.776-5.14 0.073-0.004 0.146 0.008 0.212 0.037s0.126 0.072 0.172 0.127c0.235 0.363 0.317 0.802 0.227 1.222z"></path>
</symbol>
<symbol id="hero-right-hand-desk" viewBox="0 0 61 32">
<path fill="#7ac76b" style="fill: var(--color1, #7ac76b)" d="M19.438 20.399c-0.488 1.481-6.959 11.543-8.948 9.387-1.638-1.777 2.771-5.679 1.683-6.356-1.135-0.707-2.889 0.671-4.419 2.159-1.98 1.925-4.643 7.059-5.82 6.342-0.626-0.38-0.473-2.163 0.288-4.088-0.409-0.462-0.632-0.945-0.72-1.43-1.375-1.357-1.41-2.68-0.933-3.795l-0.108 0.136c-2.745-2.137 7.528-10.222 10.028-12.041z"></path>
<path fill="#7ac76b" style="fill: var(--color1, #7ac76b)" d="M19.438 20.399c-0.488 1.481-6.959 11.543-8.948 9.387-1.638-1.777 2.771-5.679 1.683-6.356-1.135-0.707-2.889 0.671-4.419 2.159-1.98 1.925-4.643 7.059-5.82 6.342-0.626-0.38-0.473-2.163 0.288-4.088-0.409-0.462-0.632-0.945-0.72-1.43-1.375-1.357-1.41-2.68-0.933-3.795l-0.108 0.136c-2.745-2.137 7.528-10.222 10.028-12.041s14.714-11.223 27.832-10.692c13.118 0.531 23.052 8.038 23.052 8.038l-6.673 14.695c0 0-11.791-8.97-19.716-8.591s-13.268 4.388-15.548 6.236z"></path>
<path fill="#64b154" style="fill: var(--color2, #64b154)" d="M2.259 27.901c-0.018 0-0.038-0.003-0.056-0.011-0.077-0.032-0.115-0.12-0.083-0.197 0.571-1.413 1.619-3.352 3.37-4.567 0.068-0.048 0.164-0.030 0.211 0.038s0.030 0.164-0.038 0.211c-1.689 1.172-2.707 3.058-3.263 4.432-0.024 0.059-0.080 0.094-0.141 0.094z"></path>
<path fill="#64b154" style="fill: var(--color2, #64b154)" d="M1.538 26.733c-0.068 0-0.13-0.046-0.147-0.115-0.135-0.544-0.108-1.133 0.079-1.751 0.368-1.224 1.292-2.496 2.602-3.586 0.065-0.053 0.161-0.044 0.214 0.020s0.044 0.159-0.020 0.214c-1.265 1.050-2.154 2.272-2.506 3.439-0.171 0.567-0.195 1.101-0.074 1.592 0.020 0.082-0.029 0.164-0.111 0.183-0.012 0.003-0.024 0.005-0.036 0.005h-0.002z"></path>
<path fill="#64b154" style="fill: var(--color2, #64b154)" d="M0.445 23.103c-0.015 0-0.030-0.003-0.047-0.008-0.080-0.026-0.124-0.111-0.098-0.191 0.548-1.707 2.133-2.893 3.028-3.448 0.071-0.044 0.165-0.023 0.209 0.048s0.023 0.165-0.048 0.209c-0.86 0.533-2.381 1.668-2.899 3.283-0.021 0.064-0.080 0.105-0.144 0.105v0.002z"></path>
</symbol>
<symbol id="hero-center-hand-desk" viewBox="0 0 23 32">
<path fill="#7ac76b" style="fill: var(--color1, #7ac76b)" d="M22.339 9.968c-1.003-1.402-5.126 1.114-5.126 1.114s5.729-4.073 4.726-5.254c-1.003-1.18-6.414 2.277-6.414 2.277s0.005-0.003 0.013-0.010c0.338-0.252 6.927-5.172 5.754-6.431-1.203-1.292-8.048 3.852-8.048 3.852s5.016-4.208 3.745-5.432c-0.763-0.735-8.058 3.506-10.821 5.608-0.087-0.045-0.277-0.172-0.539-0.347-1.39-0.927-4.799-3.202-5.495-1.747-0.827 1.73 2.438 6.553 2.438 6.553s-0.663 3.532-1.035 6.798c0 0-0.661 9.137 1.035 14.193s1.942 6.645 1.942 6.645l14.222-1.24c0 0-3.199-3.845-3.694-5.404s-2.135-8.761-1.474-11.836c0.662-3.075 1.474-3.213 1.474-3.213s8.3-4.724 7.297-6.126z"></path>
<path fill="#64b154" style="fill: var(--color2, #64b154)" d="M16.571 12.659c0.017 0 0.033-0.003 0.050-0.008 0.079-0.027 0.121-0.113 0.094-0.192-1.144-3.316-2.867-5.75-5.265-7.445-0.068-0.048-0.162-0.032-0.21 0.036s-0.032 0.163 0.036 0.21c2.344 1.657 4.031 4.045 5.154 7.297 0.021 0.062 0.080 0.101 0.144 0.101h-0.002z"></path>
</symbol>
<symbol id="hero-left-hand-desk" viewBox="0 0 49 32">
<path fill="#7ac76b" style="fill: var(--color1, #7ac76b)" d="M30.187 19.407c3.165 0.338 4.785 0.069 7.448-1.038 0 0 4.421-2.020 4.716-0.797 0.295 1.222-3.064 2.291-3.064 2.291s4.987-1.208 5.159-0.092c0.171 1.116-4.322 2.444-4.322 2.444s0.005-0.001 0.015-0.003c0.331-0.072 6.163-1.338 6.297-0.093 0.138 1.28-5.972 2.591-5.972 2.591s4.72-0.751 4.788 0.534c0.068 1.285-8.562 2.651-8.562 2.651 0.069 0.061 0.261 0.173 0.516 0.322 0.999 0.583 2.96 1.728 2.191 2.535-0.966 1.013-8.083-1.504-8.083-1.504z"></path>
<path fill="#7ac76b" style="fill: var(--color1, #7ac76b)" d="M22.109 13.762c-1.671-2.259-3.3-4.553-4.859-6.89l-6.436 7.015c2.114 1.297 3.769 3.074 5.242 5.038 0.24 0.32 0.474 0.646 0.708 0.972l0 0 0 0c0.524 0.73 1.047 1.46 1.643 2.125 3.472 3.869 7.858 6.044 12.903 7.228 0 0 7.118 2.517 8.083 1.504 0.77-0.807-1.192-1.952-2.191-2.535-0.255-0.149-0.447-0.261-0.516-0.322 0 0 8.631-1.366 8.562-2.651s-4.788-0.534-4.788-0.534c0 0 6.11-1.311 5.972-2.591-0.134-1.245-5.966 0.022-6.297 0.093-0.010 0.002-0.015 0.003-0.015 0.003s4.494-1.328 4.322-2.444c-0.172-1.116-5.159 0.092-5.159 0.092s3.359-1.069 3.064-2.291c-0.295-1.224-4.716 0.797-4.716 0.797-2.663 1.107-4.283 1.376-7.448 1.038-1.223-0.107-2.424-0.559-3.603-1.324-1.772-1.149-3.232-2.642-4.475-4.322z"></path>
<path fill="#7ac76b" style="fill: var(--color1, #7ac76b)" d="M5.161 0.19v11.942c1.979 0.078 3.867 0.659 5.653 1.756l6.436-7.015c-1.803-2.702-4.263-4.521-7.271-5.615-1.583-0.575-3.19-0.924-4.818-1.067z"></path>
<path fill="#64b154" style="fill: var(--color2, #64b154)" d="M37.304 20.222c0-0.036 0.021-0.071 0.055-0.087 0.049-0.023 0.106-0.003 0.13 0.045 0.977 2.029 1.292 3.917 0.966 5.772-0.009 0.052-0.060 0.088-0.112 0.079s-0.088-0.059-0.079-0.112c0.32-1.814 0.009-3.663-0.95-5.654-0.007-0.014-0.010-0.028-0.009-0.043v-0.001z"></path>
</symbol>
<symbol id="hero-left-hand-mobile" viewBox="0 0 48 32">
<path fill="#7ac76b" style="fill: var(--color1, #7ac76b)" d="M29.674 19.078c3.111 0.332 4.703 0.068 7.321-1.020 0 0 4.346-1.986 4.636-0.783 0.29 1.202-3.012 2.252-3.012 2.252s4.902-1.188 5.071-0.090c0.168 1.098-4.249 2.403-4.249 2.403s0.005-0.001 0.014-0.003c0.325-0.071 6.058-1.316 6.19-0.092 0.135 1.258-5.871 2.547-5.871 2.547s4.639-0.738 4.707 0.525c0.067 1.263-8.417 2.606-8.417 2.606 0.067 0.060 0.256 0.17 0.507 0.316 0.982 0.573 2.91 1.699 2.154 2.492-0.949 0.996-7.946-1.478-7.946-1.478z"></path>
<path fill="#7ac76b" style="fill: var(--color1, #7ac76b)" d="M21.733 13.528c-1.643-2.22-3.244-4.476-4.776-6.773l-6.327 6.896c2.078 1.275 3.705 3.022 5.153 4.953 0.236 0.315 0.466 0.635 0.696 0.955l0 0v0c0.515 0.718 1.029 1.435 1.616 2.089 3.413 3.804 7.724 5.941 12.684 7.105 0 0 6.997 2.474 7.946 1.478 0.757-0.794-1.171-1.919-2.154-2.492-0.25-0.146-0.439-0.256-0.507-0.316 0 0 8.484-1.343 8.417-2.606s-4.707-0.525-4.707-0.525c0 0 6.006-1.289 5.871-2.547-0.132-1.224-5.865 0.021-6.19 0.092-0.010 0.002-0.014 0.003-0.014 0.003s4.417-1.305 4.249-2.403c-0.169-1.097-5.071 0.090-5.071 0.090s3.302-1.051 3.012-2.252c-0.29-1.203-4.636 0.783-4.636 0.783-2.618 1.088-4.21 1.353-7.321 1.020-1.202-0.105-2.383-0.55-3.542-1.301-1.742-1.13-3.177-2.597-4.399-4.248z"></path>
<path fill="#7ac76b" style="fill: var(--color1, #7ac76b)" d="M5.073 0.186v11.739c1.946 0.077 3.801 0.648 5.557 1.726l6.327-6.896c-1.772-2.656-4.19-4.445-7.147-5.52-1.556-0.566-3.136-0.908-4.736-1.049z"></path>
<path fill="#64b154" style="fill: var(--color2, #64b154)" d="M36.67 19.878c0-0.035 0.020-0.069 0.054-0.085 0.048-0.023 0.104-0.003 0.127 0.044 0.96 1.994 1.27 3.851 0.949 5.674-0.009 0.051-0.059 0.086-0.11 0.078s-0.086-0.058-0.078-0.11c0.314-1.784 0.009-3.6-0.934-5.558-0.007-0.013-0.009-0.028-0.009-0.042v-0.001z"></path>
</symbol>
<symbol id="hero-right-hand-mobile" viewBox="0 0 61 32">
<path fill="#7ac76b" style="fill: var(--color1, #7ac76b)" d="M19.399 20.359c-0.487 1.479-6.945 11.52-8.93 9.369-1.634-1.773 2.765-5.668 1.68-6.343-1.132-0.706-2.883 0.67-4.41 2.154-1.976 1.922-4.634 7.045-5.808 6.33-0.624-0.38-0.472-2.159 0.287-4.080-0.408-0.461-0.63-0.943-0.718-1.427-1.373-1.355-1.407-2.674-0.931-3.787l-0.107 0.136c-2.739-2.133 7.513-10.201 10.008-12.017z"></path>
<path fill="#7ac76b" style="fill: var(--color1, #7ac76b)" d="M19.399 20.359c-0.487 1.479-6.945 11.52-8.93 9.369-1.634-1.773 2.765-5.668 1.68-6.343-1.132-0.706-2.883 0.67-4.41 2.154-1.976 1.922-4.634 7.045-5.808 6.33-0.624-0.38-0.472-2.159 0.287-4.080-0.408-0.461-0.63-0.943-0.718-1.427-1.373-1.355-1.407-2.674-0.931-3.787l-0.107 0.136c-2.739-2.133 7.513-10.201 10.008-12.017s14.684-11.2 27.777-10.671c13.092 0.53 23.006 8.022 23.006 8.022l-6.66 14.666c0 0-11.768-8.952-19.676-8.574s-13.241 4.38-15.517 6.223z"></path>
<path fill="#64b154" style="fill: var(--color2, #64b154)" d="M2.254 27.845c-0.018 0-0.038-0.003-0.056-0.011-0.077-0.032-0.115-0.119-0.083-0.197 0.57-1.411 1.616-3.346 3.364-4.558 0.068-0.048 0.163-0.030 0.21 0.038s0.030 0.163-0.038 0.21c-1.686 1.17-2.702 3.052-3.256 4.424-0.024 0.059-0.080 0.094-0.141 0.094z"></path>
<path fill="#64b154" style="fill: var(--color2, #64b154)" d="M1.534 26.679c-0.068 0-0.13-0.045-0.147-0.115-0.135-0.543-0.107-1.131 0.079-1.748 0.367-1.222 1.29-2.491 2.597-3.578 0.065-0.053 0.16-0.044 0.213 0.020s0.044 0.159-0.020 0.213c-1.262 1.048-2.15 2.268-2.501 3.432-0.171 0.565-0.195 1.099-0.074 1.589 0.020 0.082-0.029 0.163-0.11 0.183-0.012 0.003-0.024 0.005-0.036 0.005h-0.002z"></path>
<path fill="#64b154" style="fill: var(--color2, #64b154)" d="M0.444 23.057c-0.015 0-0.030-0.003-0.047-0.008-0.080-0.026-0.124-0.11-0.098-0.191 0.547-1.704 2.129-2.887 3.022-3.441 0.071-0.044 0.165-0.023 0.209 0.048s0.023 0.165-0.048 0.209c-0.859 0.532-2.377 1.665-2.894 3.276-0.021 0.064-0.080 0.104-0.144 0.104v0.001z"></path>
</symbol>
<symbol id="hero-center-hand-mobile" viewBox="0 0 22 32">
<path fill="#7ac76b" style="fill: var(--color1, #7ac76b)" d="M22.312 9.956c-1.002-1.4-5.12 1.112-5.12 1.112s5.722-4.068 4.72-5.247c-1.002-1.179-6.406 2.275-6.406 2.275s0.005-0.003 0.013-0.010c0.338-0.252 6.919-5.166 5.747-6.423-1.202-1.29-8.038 3.847-8.038 3.847s5.010-4.203 3.74-5.425c-0.762-0.734-8.048 3.502-10.808 5.601-0.087-0.045-0.277-0.172-0.538-0.346-1.388-0.926-4.793-3.198-5.488-1.745-0.826 1.727 2.435 6.545 2.435 6.545s-0.662 3.528-1.034 6.79c0 0-0.661 9.126 1.034 14.175s1.94 6.636 1.94 6.636l14.205-1.239c0 0-3.195-3.84-3.69-5.398s-2.133-8.75-1.472-11.822c0.661-3.072 1.472-3.209 1.472-3.209s8.29-4.718 7.288-6.119z"></path>
<path fill="#64b154" style="fill: var(--color2, #64b154)" d="M16.552 12.644c0.017 0 0.033-0.003 0.050-0.008 0.078-0.027 0.121-0.113 0.094-0.191-1.143-3.312-2.864-5.743-5.259-7.436-0.068-0.048-0.162-0.032-0.21 0.036s-0.032 0.163 0.036 0.21c2.341 1.655 4.026 4.040 5.147 7.288 0.021 0.062 0.080 0.101 0.143 0.101h-0.001z"></path>
</symbol>
</defs>
</svg>
