<svg aria-hidden="true" style="position: absolute; width: 0; height: 0; overflow: hidden;" version="1.1" xmlns="http://www.w3.org/2000/svg" xmlns:xlink="http://www.w3.org/1999/xlink">
<defs>
<symbol id="nav-arrow" viewBox="0 0 32 32">
<path d="M24.459 7.829v15.085h-3.52v-9.051l-11.565 11.565-2.514-2.514 11.565-11.565h-9.051v-3.52h15.085z"></path>
</symbol>
<symbol id="logo" viewBox="0 0 84 32">
<path fill="#f47920" style="fill: var(--color1, #f47920)" d="M83.765 10.458c0.020-1.441-0.483-2.842-1.421-3.956-1.647-1.8-4.36-1.973-6.254-1.925-2.624 0-30.856 0.963-34.072 1.117h-0.178c0-0.106 0-0.202 0-0.202-0.175-1.221-0.717-2.363-1.559-3.282-0.785-0.795-1.746-1.403-2.81-1.779s-2.201-0.508-3.326-0.387c-3.837 0.144-6.481 2.753-7.714 4.303l-0.099 0.125-0.158-0.058c-2.782-0.89-5.76-1.019-8.612-0.375-3.62 0.777-7.017 2.332-9.943 4.553-5.218 4.235-7.892 9.289-7.596 14.217 0.087 1.397 0.493 2.757 1.187 3.981s1.661 2.281 2.827 3.094c4.005 2.888 10.535 2.137 13.159 1.665 2.959-0.539 48.839-9.298 54.856-10.521 5.485-1.107 10.693-3.013 11.63-9.356 0.056-0.379 0.082-0.762 0.079-1.145v-0.067z"></path>
<path fill="#fff" style="fill: var(--color2, #fff)" d="M34.275 9.207c1.598-0.096 3.157-0.818 3.265-2.445 0.069-1.088-0.819-2.204-2.565-2.272-0.891-0.065-1.778 0.177-2.506 0.683-0.504 0.359-0.855 0.887-0.986 1.482-0.096 0.29-0.121 0.599-0.071 0.9s0.172 0.587 0.357 0.833c0.317 0.326 0.711 0.572 1.148 0.714s0.903 0.178 1.357 0.104z"></path>
<path fill="#fff" style="fill: var(--color2, #fff)" d="M80.245 11.142c-0.098 0.247-0.245 0.472-0.436 0.661s-0.418 0.337-0.67 0.436h-0.197c0 0 0.158-1.097 0.158-1.434 0-1.502-0.375-3.080-2.792-2.888-1.041 0.14-1.998 0.63-2.708 1.386s-1.126 1.73-1.179 2.753c-0.005 0.019-0.005 0.039 0 0.058-0.355 0.963-0.986 2.272-1.49 2.339-0.048 0.006-0.097 0.001-0.143-0.014s-0.088-0.040-0.123-0.073c-0.049-0.051-0.087-0.112-0.111-0.178s-0.033-0.137-0.027-0.207c0.046-0.443 0.131-0.881 0.256-1.309 0.195-0.745 0.327-1.505 0.395-2.272 0.148-1.848-0.986-2.195-2.21-2.089-0.739 0.063-1.434 0.368-1.973 0.866l-0.424 0.491c0 0 0.178-0.963 0.237-1.165l-2.673 0.202-0.878 3.764c-0.282 0.412-0.689 0.728-1.164 0.905h-0.178v-0.183c-0.018-0.192-0.051-0.381-0.099-0.568-0.069-0.424-0.474-1.858-1.904-1.713-3.699 0.356-3.522 4.813-1.322 4.168l0.256-0.087v0.27c-0.266 1.781-1.036 2.734-2.091 2.888-0.078 0.010-0.157 0.003-0.232-0.020s-0.144-0.063-0.202-0.115c-0.107-0.119-0.189-0.258-0.24-0.408s-0.070-0.31-0.056-0.468c0-0.876 1.667-8.172 1.667-8.172l-3.433 0.183c-0.158 0.664-0.829 3.561-0.829 3.571l-0.099 0.375c-0.128 0.501-0.217 0.828-0.276 1.165v0.067c-0.523 1.376-1.44 2.888-2.15 2.974-0.066 0.008-0.133 0.002-0.196-0.018s-0.121-0.053-0.169-0.097c-0.055-0.052-0.099-0.115-0.128-0.185s-0.043-0.144-0.040-0.219l0.049-0.597c0 0 1.716-6.536 1.835-6.969l-3.946 0.135-0.335 1.194c-0.136-0.348-0.358-0.657-0.645-0.901s-0.633-0.415-1.004-0.498-0.759-0.075-1.126 0.023c-0.368 0.098-0.705 0.283-0.982 0.538-1.638 1.492-2.052 3.687-2.269 5.852v0.077c-0.306 2.599-0.888 4.389-2.742 4.659-0.363 0.078-0.742 0.034-1.075-0.125 0.53-0.362 0.977-0.827 1.312-1.367 0.152-0.189 0.263-0.407 0.326-0.639s0.077-0.475 0.041-0.712c-0.036-0.238-0.121-0.466-0.25-0.67s-0.3-0.381-0.501-0.52c-0.319-0.175-0.678-0.269-1.044-0.274s-0.727 0.080-1.051 0.246c-0.324 0.167-0.6 0.41-0.802 0.707s-0.326 0.64-0.358 0.996c-0.115 0.707 0.043 1.431 0.444 2.031-0.46 0.342-0.992 0.579-1.559 0.693-0.178 0.031-0.361 0.020-0.532-0.034s-0.328-0.148-0.454-0.274c-0.414-0.529 0.109-2.281 0.187-2.503 0 0 2.417-7.412 2.555-7.874l-5.346 0.27c-0.158 0.462-0.71 2.272-1.292 3.947-1.154 3.273-4.557 7.758-8.118 8.73-1.904 0.51-3.383 0.443-4.34-0.106-1.302-0.751-2.062-2.599-1.608-5.198 0.175-1.238 0.545-2.442 1.095-3.571 2.89-6.266 7.744-4.938 7.458-4.457-0.318 0.112-0.625 0.25-0.917 0.414-0.556 0.319-1.025 0.764-1.368 1.296s-0.551 1.138-0.605 1.765c-0.035 0.398 0.018 0.799 0.154 1.175s0.352 0.721 0.635 1.010c0.286 0.247 0.624 0.43 0.991 0.535s0.752 0.129 1.13 0.072c0.945-0.078 1.826-0.5 2.466-1.184s0.992-1.577 0.986-2.503c0.036-0.493-0.033-0.988-0.202-1.453s-0.437-0.892-0.784-1.251c-1.085-1.068-2.348-1.598-5.139-1.482-4.291 0.183-10.792 3.292-12.567 9.982-0.27 1.083-0.259 2.215 0.034 3.293s0.858 2.067 1.643 2.877c1.973 1.675 4.33 2.272 8.483 1.454 3.699-0.751 6.708-3.263 8.878-5.891-0.004 0.042-0.004 0.084 0 0.125-0.503 1.925 0.256 3.918 3.502 3.456 1.921-0.338 3.735-1.109 5.297-2.252 0.512 0.366 1.097 0.624 1.717 0.755s1.262 0.133 1.883 0.006c0.736-0.157 1.431-0.461 2.042-0.891s1.125-0.979 1.509-1.612c1.075-1.55 1.578-4.553 1.855-6.18 0.057-0.497 0.166-0.988 0.326-1.463 0.087-0.237 0.258-0.435 0.483-0.558 0.572-0.25 0.888 0.308 0.779 0.722s-0.681 2.483-0.681 2.483l-0.109 0.327c-0.418 1.080-0.664 2.216-0.73 3.369-0.034 0.365 0.013 0.732 0.138 1.077s0.323 0.661 0.583 0.925c0.248 0.206 0.543 0.352 0.86 0.426s0.648 0.073 0.965-0.002c2.042-0.327 3.462-2.368 4.133-3.562l0.089-0.164 0.138-0.241 0.089 0.443c0.355 1.761 1.786 2.445 3.946 2.108 2.772-0.443 4.409-1.877 4.883-4.322v-0.106h0.099c0.267-0.105 0.521-0.237 0.76-0.395l0.207-0.144-0.927 3.927 3.206-0.558c0-0.241 1.105-5.005 1.105-5.005 0.178-0.828 0.7-2.397 1.312-2.445 0.062-0.007 0.125 0 0.184 0.022s0.111 0.057 0.152 0.103c0.153 0.17 0.235 0.39 0.227 0.616-0.047 0.605-0.166 1.203-0.355 1.781-0.256 0.911-0.431 1.842-0.523 2.782-0.048 0.224-0.036 0.456 0.035 0.674s0.198 0.415 0.37 0.571 0.382 0.266 0.61 0.319c0.228 0.053 0.466 0.048 0.692-0.014 0.986-0.154 2.348-0.683 3.443-3.148l0.069 0.26c0.122 0.621 0.489 1.171 1.022 1.531s1.19 0.502 1.828 0.394c0.729-0.095 1.419-0.381 1.994-0.829s1.015-1.040 1.271-1.712v-0.096h0.099c0.406-0.103 0.776-0.308 1.074-0.596s0.513-0.646 0.623-1.041c-0.037-0.144-0.083-0.285-0.138-0.424zM37.196 19.353c-0.74-1.097-0.059-2.358 0.661-2.339s0.819 0.356 0.503 1.040c-0.282 0.514-0.68 0.958-1.164 1.3zM59.105 13.712c-0.087 0.097-0.193 0.176-0.311 0.232s-0.248 0.089-0.379 0.095c-0.375 0.058-0.474-0.135-0.493-0.221-0.005-0.204 0.047-0.405 0.149-0.583s0.252-0.326 0.433-0.427c0.068-0.041 0.147-0.062 0.227-0.062s0.159 0.022 0.227 0.062c0.085 0.134 0.142 0.282 0.167 0.438s0.019 0.314-0.019 0.467zM77.038 12.21c-0.155-0.131-0.258-0.311-0.288-0.509s0.012-0.4 0.121-0.569c0.033-0.052 0.084-0.091 0.144-0.108s0.125-0.013 0.181 0.012c-0.003 0.396-0.056 0.791-0.158 1.174zM77.236 9.948v0.058c0 0-1.105 0.067-1.194 1.665-0.010 0.28 0.056 0.557 0.191 0.804s0.335 0.454 0.578 0.602v0.212c-0.227 0.674-0.523 1.415-1.144 1.502-0.090 0.019-0.183 0.018-0.272-0.004s-0.172-0.063-0.241-0.122c-0.217-0.183-0.306-0.356-0.306-0.963 0-1.453 0.73-5.073 1.776-5.14 0.073-0.004 0.146 0.008 0.212 0.037s0.126 0.072 0.172 0.127c0.235 0.363 0.317 0.802 0.227 1.222z"></path>
</symbol>
<symbol id="hero-right-hand-desk" viewBox="0 0 61 32">
<path fill="#7ac76b" style="fill: var(--color1, #7ac76b)" d="M19.438 20.399c-0.488 1.481-6.959 11.543-8.948 9.387-1.638-1.777 2.771-5.679 1.683-6.356-1.135-0.707-2.889 0.671-4.419 2.159-1.98 1.925-4.643 7.059-5.82 6.342-0.626-0.38-0.473-2.163 0.288-4.088-0.409-0.462-0.632-0.945-0.72-1.43-1.375-1.357-1.41-2.68-0.933-3.795l-0.108 0.136c-2.745-2.137 7.528-10.222 10.028-12.041z"></path>
<path fill="#7ac76b" style="fill: var(--color1, #7ac76b)" d="M19.438 20.399c-0.488 1.481-6.959 11.543-8.948 9.387-1.638-1.777 2.771-5.679 1.683-6.356-1.135-0.707-2.889 0.671-4.419 2.159-1.98 1.925-4.643 7.059-5.82 6.342-0.626-0.38-0.473-2.163 0.288-4.088-0.409-0.462-0.632-0.945-0.72-1.43-1.375-1.357-1.41-2.68-0.933-3.795l-0.108 0.136c-2.745-2.137 7.528-10.222 10.028-12.041s14.714-11.223 27.832-10.692c13.118 0.531 23.052 8.038 23.052 8.038l-6.673 14.695c0 0-11.791-8.97-19.716-8.591s-13.268 4.388-15.548 6.236z"></path>
<path fill="#64b154" style="fill: var(--color2, #64b154)" d="M2.259 27.901c-0.018 0-0.038-0.003-0.056-0.011-0.077-0.032-0.115-0.12-0.083-0.197 0.571-1.413 1.619-3.352 3.37-4.567 0.068-0.048 0.164-0.030 0.211 0.038s0.030 0.164-0.038 0.211c-1.689 1.172-2.707 3.058-3.263 4.432-0.024 0.059-0.080 0.094-0.141 0.094z"></path>
<path fill="#64b154" style="fill: var(--color2, #64b154)" d="M1.538 26.733c-0.068 0-0.13-0.046-0.147-0.115-0.135-0.544-0.108-1.133 0.079-1.751 0.368-1.224 1.292-2.496 2.602-3.586 0.065-0.053 0.161-0.044 0.214 0.020s0.044 0.159-0.020 0.214c-1.265 1.050-2.154 2.272-2.506 3.439-0.171 0.567-0.195 1.101-0.074 1.592 0.020 0.082-0.029 0.164-0.111 0.183-0.012 0.003-0.024 0.005-0.036 0.005h-0.002z"></path>
<path fill="#64b154" style="fill: var(--color2, #64b154)" d="M0.445 23.103c-0.015 0-0.030-0.003-0.047-0.008-0.080-0.026-0.124-0.111-0.098-0.191 0.548-1.707 2.133-2.893 3.028-3.448 0.071-0.044 0.165-0.023 0.209 0.048s0.023 0.165-0.048 0.209c-0.86 0.533-2.381 1.668-2.899 3.283-0.021 0.064-0.080 0.105-0.144 0.105v0.002z"></path>
</symbol>
<symbol id="hero-center-hand-desk" viewBox="0 0 23 32">
<path fill="#7ac76b" style="fill: var(--color1, #7ac76b)" d="M22.339 9.968c-1.003-1.402-5.126 1.114-5.126 1.114s5.729-4.073 4.726-5.254c-1.003-1.18-6.414 2.277-6.414 2.277s0.005-0.003 0.013-0.010c0.338-0.252 6.927-5.172 5.754-6.431-1.203-1.292-8.048 3.852-8.048 3.852s5.016-4.208 3.745-5.432c-0.763-0.735-8.058 3.506-10.821 5.608-0.087-0.045-0.277-0.172-0.539-0.347-1.39-0.927-4.799-3.202-5.495-1.747-0.827 1.73 2.438 6.553 2.438 6.553s-0.663 3.532-1.035 6.798c0 0-0.661 9.137 1.035 14.193s1.942 6.645 1.942 6.645l14.222-1.24c0 0-3.199-3.845-3.694-5.404s-2.135-8.761-1.474-11.836c0.662-3.075 1.474-3.213 1.474-3.213s8.3-4.724 7.297-6.126z"></path>
<path fill="#64b154" style="fill: var(--color2, #64b154)" d="M16.571 12.659c0.017 0 0.033-0.003 0.050-0.008 0.079-0.027 0.121-0.113 0.094-0.192-1.144-3.316-2.867-5.75-5.265-7.445-0.068-0.048-0.162-0.032-0.21 0.036s-0.032 0.163 0.036 0.21c2.344 1.657 4.031 4.045 5.154 7.297 0.021 0.062 0.080 0.101 0.144 0.101h-0.002z"></path>
</symbol>
<symbol id="hero-left-hand-desk" viewBox="0 0 49 32">
<path fill="#7ac76b" style="fill: var(--color1, #7ac76b)" d="M30.187 19.407c3.165 0.338 4.785 0.069 7.448-1.038 0 0 4.421-2.020 4.716-0.797 0.295 1.222-3.064 2.291-3.064 2.291s4.987-1.208 5.159-0.092c0.171 1.116-4.322 2.444-4.322 2.444s0.005-0.001 0.015-0.003c0.331-0.072 6.163-1.338 6.297-0.093 0.138 1.28-5.972 2.591-5.972 2.591s4.72-0.751 4.788 0.534c0.068 1.285-8.562 2.651-8.562 2.651 0.069 0.061 0.261 0.173 0.516 0.322 0.999 0.583 2.96 1.728 2.191 2.535-0.966 1.013-8.083-1.504-8.083-1.504z"></path>
<path fill="#7ac76b" style="fill: var(--color1, #7ac76b)" d="M22.109 13.762c-1.671-2.259-3.3-4.553-4.859-6.89l-6.436 7.015c2.114 1.297 3.769 3.074 5.242 5.038 0.24 0.32 0.474 0.646 0.708 0.972l0 0 0 0c0.524 0.73 1.047 1.46 1.643 2.125 3.472 3.869 7.858 6.044 12.903 7.228 0 0 7.118 2.517 8.083 1.504 0.77-0.807-1.192-1.952-2.191-2.535-0.255-0.149-0.447-0.261-0.516-0.322 0 0 8.631-1.366 8.562-2.651s-4.788-0.534-4.788-0.534c0 0 6.11-1.311 5.972-2.591-0.134-1.245-5.966 0.022-6.297 0.093-0.010 0.002-0.015 0.003-0.015 0.003s4.494-1.328 4.322-2.444c-0.172-1.116-5.159 0.092-5.159 0.092s3.359-1.069 3.064-2.291c-0.295-1.224-4.716 0.797-4.716 0.797-2.663 1.107-4.283 1.376-7.448 1.038-1.223-0.107-2.424-0.559-3.603-1.324-1.772-1.149-3.232-2.642-4.475-4.322z"></path>
<path fill="#7ac76b" style="fill: var(--color1, #7ac76b)" d="M5.161 0.19v11.942c1.979 0.078 3.867 0.659 5.653 1.756l6.436-7.015c-1.803-2.702-4.263-4.521-7.271-5.615-1.583-0.575-3.19-0.924-4.818-1.067z"></path>
<path fill="#64b154" style="fill: var(--color2, #64b154)" d="M37.304 20.222c0-0.036 0.021-0.071 0.055-0.087 0.049-0.023 0.106-0.003 0.13 0.045 0.977 2.029 1.292 3.917 0.966 5.772-0.009 0.052-0.060 0.088-0.112 0.079s-0.088-0.059-0.079-0.112c0.32-1.814 0.009-3.663-0.95-5.654-0.007-0.014-0.010-0.028-0.009-0.043v-0.001z"></path>
</symbol>
<symbol id="hero-left-hand-mobile" viewBox="0 0 48 32">
<path fill="#7ac76b" style="fill: var(--color1, #7ac76b)" d="M29.674 19.078c3.111 0.332 4.703 0.068 7.321-1.020 0 0 4.346-1.986 4.636-0.783 0.29 1.202-3.012 2.252-3.012 2.252s4.902-1.188 5.071-0.090c0.168 1.098-4.249 2.403-4.249 2.403s0.005-0.001 0.014-0.003c0.325-0.071 6.058-1.316 6.19-0.092 0.135 1.258-5.871 2.547-5.871 2.547s4.639-0.738 4.707 0.525c0.067 1.263-8.417 2.606-8.417 2.606 0.067 0.060 0.256 0.17 0.507 0.316 0.982 0.573 2.91 1.699 2.154 2.492-0.949 0.996-7.946-1.478-7.946-1.478z"></path>
<path fill="#7ac76b" style="fill: var(--color1, #7ac76b)" d="M21.733 13.528c-1.643-2.22-3.244-4.476-4.776-6.773l-6.327 6.896c2.078 1.275 3.705 3.022 5.153 4.953 0.236 0.315 0.466 0.635 0.696 0.955l0 0v0c0.515 0.718 1.029 1.435 1.616 2.089 3.413 3.804 7.724 5.941 12.684 7.105 0 0 6.997 2.474 7.946 1.478 0.757-0.794-1.171-1.919-2.154-2.492-0.25-0.146-0.439-0.256-0.507-0.316 0 0 8.484-1.343 8.417-2.606s-4.707-0.525-4.707-0.525c0 0 6.006-1.289 5.871-2.547-0.132-1.224-5.865 0.021-6.19 0.092-0.010 0.002-0.014 0.003-0.014 0.003s4.417-1.305 4.249-2.403c-0.169-1.097-5.071 0.090-5.071 0.090s3.302-1.051 3.012-2.252c-0.29-1.203-4.636 0.783-4.636 0.783-2.618 1.088-4.21 1.353-7.321 1.020-1.202-0.105-2.383-0.55-3.542-1.301-1.742-1.13-3.177-2.597-4.399-4.248z"></path>
<path fill="#7ac76b" style="fill: var(--color1, #7ac76b)" d="M5.073 0.186v11.739c1.946 0.077 3.801 0.648 5.557 1.726l6.327-6.896c-1.772-2.656-4.19-4.445-7.147-5.52-1.556-0.566-3.136-0.908-4.736-1.049z"></path>
<path fill="#64b154" style="fill: var(--color2, #64b154)" d="M36.67 19.878c0-0.035 0.020-0.069 0.054-0.085 0.048-0.023 0.104-0.003 0.127 0.044 0.96 1.994 1.27 3.851 0.949 5.674-0.009 0.051-0.059 0.086-0.11 0.078s-0.086-0.058-0.078-0.11c0.314-1.784 0.009-3.6-0.934-5.558-0.007-0.013-0.009-0.028-0.009-0.042v-0.001z"></path>
</symbol>
<symbol id="hero-right-hand-mobile" viewBox="0 0 61 32">
<path fill="#7ac76b" style="fill: var(--color1, #7ac76b)" d="M19.399 20.359c-0.487 1.479-6.945 11.52-8.93 9.369-1.634-1.773 2.765-5.668 1.68-6.343-1.132-0.706-2.883 0.67-4.41 2.154-1.976 1.922-4.634 7.045-5.808 6.33-0.624-0.38-0.472-2.159 0.287-4.080-0.408-0.461-0.63-0.943-0.718-1.427-1.373-1.355-1.407-2.674-0.931-3.787l-0.107 0.136c-2.739-2.133 7.513-10.201 10.008-12.017z"></path>
<path fill="#7ac76b" style="fill: var(--color1, #7ac76b)" d="M19.399 20.359c-0.487 1.479-6.945 11.52-8.93 9.369-1.634-1.773 2.765-5.668 1.68-6.343-1.132-0.706-2.883 0.67-4.41 2.154-1.976 1.922-4.634 7.045-5.808 6.33-0.624-0.38-0.472-2.159 0.287-4.080-0.408-0.461-0.63-0.943-0.718-1.427-1.373-1.355-1.407-2.674-0.931-3.787l-0.107 0.136c-2.739-2.133 7.513-10.201 10.008-12.017s14.684-11.2 27.777-10.671c13.092 0.53 23.006 8.022 23.006 8.022l-6.66 14.666c0 0-11.768-8.952-19.676-8.574s-13.241 4.38-15.517 6.223z"></path>
<path fill="#64b154" style="fill: var(--color2, #64b154)" d="M2.254 27.845c-0.018 0-0.038-0.003-0.056-0.011-0.077-0.032-0.115-0.119-0.083-0.197 0.57-1.411 1.616-3.346 3.364-4.558 0.068-0.048 0.163-0.030 0.21 0.038s0.030 0.163-0.038 0.21c-1.686 1.17-2.702 3.052-3.256 4.424-0.024 0.059-0.080 0.094-0.141 0.094z"></path>
<path fill="#64b154" style="fill: var(--color2, #64b154)" d="M1.534 26.679c-0.068 0-0.13-0.045-0.147-0.115-0.135-0.543-0.107-1.131 0.079-1.748 0.367-1.222 1.29-2.491 2.597-3.578 0.065-0.053 0.16-0.044 0.213 0.020s0.044 0.159-0.020 0.213c-1.262 1.048-2.15 2.268-2.501 3.432-0.171 0.565-0.195 1.099-0.074 1.589 0.020 0.082-0.029 0.163-0.11 0.183-0.012 0.003-0.024 0.005-0.036 0.005h-0.002z"></path>
<path fill="#64b154" style="fill: var(--color2, #64b154)" d="M0.444 23.057c-0.015 0-0.030-0.003-0.047-0.008-0.080-0.026-0.124-0.11-0.098-0.191 0.547-1.704 2.129-2.887 3.022-3.441 0.071-0.044 0.165-0.023 0.209 0.048s0.023 0.165-0.048 0.209c-0.859 0.532-2.377 1.665-2.894 3.276-0.021 0.064-0.080 0.104-0.144 0.104v0.001z"></path>
</symbol>
<symbol id="hero-center-hand-mobile" viewBox="0 0 22 32">
<path fill="#7ac76b" style="fill: var(--color1, #7ac76b)" d="M22.312 9.956c-1.002-1.4-5.12 1.112-5.12 1.112s5.722-4.068 4.72-5.247c-1.002-1.179-6.406 2.275-6.406 2.275s0.005-0.003 0.013-0.010c0.338-0.252 6.919-5.166 5.747-6.423-1.202-1.29-8.038 3.847-8.038 3.847s5.010-4.203 3.74-5.425c-0.762-0.734-8.048 3.502-10.808 5.601-0.087-0.045-0.277-0.172-0.538-0.346-1.388-0.926-4.793-3.198-5.488-1.745-0.826 1.727 2.435 6.545 2.435 6.545s-0.662 3.528-1.034 6.79c0 0-0.661 9.126 1.034 14.175s1.94 6.636 1.94 6.636l14.205-1.239c0 0-3.195-3.84-3.69-5.398s-2.133-8.75-1.472-11.822c0.661-3.072 1.472-3.209 1.472-3.209s8.29-4.718 7.288-6.119z"></path>
<path fill="#64b154" style="fill: var(--color2, #64b154)" d="M16.552 12.644c0.017 0 0.033-0.003 0.050-0.008 0.078-0.027 0.121-0.113 0.094-0.191-1.143-3.312-2.864-5.743-5.259-7.436-0.068-0.048-0.162-0.032-0.21 0.036s-0.032 0.163 0.036 0.21c2.341 1.655 4.026 4.040 5.147 7.288 0.021 0.062 0.080 0.101 0.143 0.101h-0.001z"></path>
</symbol>
<symbol id="message" viewBox="0 0 30 32">
<path fill="#86b0e8" style="fill: var(--color1, #86b0e8)" d="M0.631 5.813c-0.198 0.289-0.315 0.638-0.315 1.016l0.064 18.469c0 1.001 0.816 1.802 1.805 1.802h0.277l0.28 2.732c-0.011 0.779 0.48 1.468 1.206 1.722 0.179 0.063 0.378 0.103 0.598 0.103 0.54 0 1.064-0.241 1.415-0.685l3.076-3.872h14.53c0.408 0 0.786-0.136 1.090-0.366l4.904-7.052 0.043-0.095c0.101-0.224 0.166-0.481 0.166-0.764v-16.635c0-1.017-0.827-1.844-1.844-1.844h-19.607c-0.283 0-0.541 0.065-0.764 0.166l-0.088 0.040-0.081 0.053-6.756 5.211zM5.906 5l2.62-2.156h18.745v15.767l-1.897 2.837v-14.646c0-1.001-0.816-1.802-1.805-1.802h-17.662zM2.881 24.6v-17.1h19.992v17.1h-15.042l-2.566 3.231 0.022-1.967 0.014-1.264h-2.42z"></path>
</symbol>
<symbol id="money" viewBox="0 0 38 32">
<path fill="#ff7029" style="fill: var(--color2, #ff7029)" d="M21.689 6.044c0-1.974-1.664-3.374-3.452-4.208-1.888-0.88-4.408-1.392-7.126-1.392s-5.237 0.512-7.126 1.392c-1.787 0.834-3.452 2.234-3.452 4.208 0 0.132 0.008 0.261 0.022 0.389-0.014 0.075-0.022 0.154-0.022 0.233v14.933c0 1.974 1.664 3.374 3.452 4.208 1.888 0.88 4.408 1.392 7.126 1.392 1.333 0 2.62-0.123 3.806-0.353-0.048-0.285-0.073-0.582-0.073-0.891v-1.635c-1.112 0.247-2.378 0.39-3.733 0.39-2.437 0-4.583-0.464-6.073-1.159-1.591-0.742-2.016-1.52-2.016-1.952v-1.288c0.311 0.193 0.635 0.364 0.963 0.518 1.888 0.88 4.408 1.392 7.126 1.392 1.307 0 2.567-0.118 3.733-0.339v-2.54c-1.112 0.247-2.378 0.39-3.733 0.39-2.437 0-4.583-0.464-6.073-1.159-1.591-0.742-2.016-1.52-2.016-1.952v-1.288c0.311 0.193 0.635 0.364 0.963 0.518 1.888 0.88 4.408 1.392 7.126 1.392 1.307 0 2.567-0.118 3.733-0.339v-0.283c0-0.090 0.005-0.18 0.011-0.269-0.006-0.117-0.011-0.235-0.011-0.353 0-0.614 0.1-1.179 0.275-1.699-1.178 0.286-2.54 0.454-4.008 0.454-2.438 0-4.583-0.464-6.073-1.159-1.591-0.742-2.016-1.52-2.016-1.952v-1.91c0.311 0.193 0.635 0.364 0.963 0.518 1.888 0.88 4.408 1.392 7.126 1.392s5.237-0.512 7.126-1.392c0.328-0.154 0.652-0.325 0.963-0.518v0.45c0.059-0.028 0.117-0.056 0.174-0.082 0.711-0.333 1.489-0.614 2.315-0.845v-2.59c0-0.079-0.008-0.159-0.022-0.233 0.014-0.128 0.022-0.257 0.022-0.389l-0.001 0zM11.111 2.933c2.438 0 4.583 0.464 6.073 1.159 1.591 0.742 2.016 1.52 2.016 1.952s-0.425 1.21-2.016 1.952c-1.49 0.695-3.635 1.159-6.073 1.159s-4.583-0.464-6.073-1.159c-1.591-0.742-2.016-1.52-2.016-1.952s0.425-1.21 2.016-1.952c1.49-0.695 3.635-1.159 6.073-1.159z"></path>
<path fill="#ff7029" style="fill: var(--color2, #ff7029)" d="M37.868 16c0-1.974-1.664-3.374-3.452-4.208-1.888-0.88-4.408-1.392-7.126-1.392s-5.237 0.512-7.126 1.392c-1.787 0.834-3.452 2.234-3.452 4.208 0 0.132 0.008 0.261 0.022 0.389-0.014 0.075-0.022 0.154-0.022 0.233v9.333c0 1.974 1.664 3.374 3.452 4.208 1.888 0.88 4.408 1.392 7.126 1.392s5.237-0.512 7.126-1.392c1.787-0.834 3.452-2.234 3.452-4.208v-9.333c0-0.079-0.008-0.159-0.022-0.233 0.014-0.127 0.022-0.257 0.022-0.389zM27.291 12.889c2.437 0 4.583 0.464 6.073 1.159 1.591 0.742 2.016 1.52 2.016 1.952s-0.425 1.21-2.016 1.952c-1.49 0.695-3.635 1.159-6.073 1.159s-4.583-0.464-6.073-1.159c-1.591-0.742-2.016-1.52-2.016-1.952s0.425-1.21 2.016-1.952c1.49-0.695 3.635-1.159 6.073-1.159zM19.202 25.955v-1.288c0.311 0.193 0.635 0.364 0.963 0.518 1.888 0.88 4.408 1.392 7.126 1.392s5.237-0.512 7.126-1.392c0.328-0.154 0.652-0.325 0.963-0.518v1.288c0 0.432-0.425 1.21-2.016 1.952-1.49 0.695-3.635 1.159-6.073 1.159s-4.582-0.464-6.073-1.159c-1.591-0.742-2.016-1.52-2.016-1.952zM33.363 22.93c1.591-0.742 2.016-1.52 2.016-1.952v-1.288c-0.311 0.193-0.635 0.364-0.963 0.518-1.888 0.88-4.408 1.392-7.126 1.392s-5.237-0.512-7.126-1.392c-0.328-0.154-0.652-0.325-0.963-0.518v1.288c0 0.432 0.425 1.21 2.016 1.952 1.49 0.695 3.635 1.159 6.073 1.159s4.583-0.463 6.073-1.159h0z"></path>
</symbol>
<symbol id="artemsil" viewBox="0 0 34 32">
<path fill="#fff" style="fill: var(--color3, #fff)" d="M0.75 0h32.842v32h-32.842v-32z"></path>
<path fill="none" stroke="#876dc7" style="stroke: var(--color4, #876dc7)" stroke-linejoin="bevel" stroke-linecap="butt" stroke-miterlimit="4" stroke-width="2.1053" d="M17.119 28.211c0 0-7.043-4.010-10.58-6.019M17.119 28.211c-0.038-3.884-0.078-8.175-0.116-12.035M17.119 28.211l10.258-5.846c0.263-0.15 0.425-0.429 0.425-0.732v-11.749M17.119 28.211l-10.58-6.019M6.539 22.192v-12.236M6.539 9.956l10.152-5.922c0.26-0.151 0.58-0.153 0.841-0.004l10.269 5.854M6.539 9.956l10.464 6.219M27.802 9.884l-10.799 6.291"></path>
</symbol>
<symbol id="armor" viewBox="0 0 41 32">
<path fill="#64b154" style="fill: var(--color5, #64b154)" d="M27.714 4.2h-15.886v3.2h3.143v2h-7.209c-0.508 0-0.997 0.193-1.368 0.541l-5.191 4.867c-0.199 0.187-0.358 0.413-0.467 0.664s-0.165 0.521-0.165 0.795v9.134c0 0.53 0.211 1.039 0.586 1.414s0.884 0.586 1.414 0.586h0.539c0.542 2.293 2.602 4 5.061 4s4.519-1.707 5.061-4h11.478c0.542 2.293 2.602 4 5.061 4s4.519-1.707 5.061-4h2.139c0.955 0 1.87-0.379 2.546-1.054s1.054-1.591 1.054-2.546v-2.4h-3.2v2.4c0 0.106-0.042 0.208-0.117 0.283s-0.177 0.117-0.283 0.117v-6.4c0-0.53-0.211-1.039-0.586-1.414s-0.884-0.586-1.414-0.586h-4.4v-2.365c-0-0.413-0.128-0.816-0.366-1.153l-1.436-2.035c-0.185-0.262-0.429-0.475-0.714-0.622s-0.6-0.224-0.92-0.224h-8.964v-2h2c0 0.424 0.169 0.831 0.469 1.131s0.707 0.469 1.131 0.469 0.831-0.169 1.131-0.469c0.3-0.3 0.469-0.707 0.469-1.131h4.343v-3.2zM11.371 12.6h8v4.4c0 0.53 0.211 1.039 0.586 1.414s0.884 0.586 1.414 0.586h12.4v3.877c-0.954-1.147-2.392-1.877-4-1.877-2.163 0-4.018 1.321-4.802 3.2h-11.997c-0.784-1.879-2.638-3.2-4.802-3.2-0.879-0-1.744 0.222-2.513 0.646s-1.419 1.037-1.887 1.781v-6.428l1.052-1.2 3.348-3.139 3.2-0.061zM9.586 27.614c-0.375 0.375-0.884 0.586-1.414 0.586s-1.039-0.211-1.414-0.586c-0.375-0.375-0.586-0.884-0.586-1.414s0.211-1.039 0.586-1.414c0.375-0.375 0.884-0.586 1.414-0.586s1.039 0.211 1.414 0.586c0.375 0.375 0.586 0.884 0.586 1.414s-0.211 1.039-0.586 1.414zM31.186 27.614c-0.375 0.375-0.884 0.586-1.414 0.586s-1.039-0.211-1.414-0.586c-0.375-0.375-0.586-0.884-0.586-1.414s0.211-1.039 0.586-1.414c0.375-0.375 0.884-0.586 1.414-0.586s1.039 0.211 1.414 0.586c0.375 0.375 0.586 0.884 0.586 1.414s-0.211 1.039-0.586 1.414zM27.371 13.816v1.984h-4.8v-3.2h3.942l0.858 1.216z"></path>
</symbol>
<symbol id="slider-nav-arrow-next" viewBox="0 0 32 32">
<path d="M18.333 16l-7.156-7.156 2.178-2.178 9.333 9.333-9.333 9.333-2.178-2.178 7.156-7.156z"></path>
</symbol>
<symbol id="slider-nav-arrow-prev" viewBox="0 0 32 32">
<path d="M13.667 16l7.156-7.156-2.178-2.178-9.333 9.333 9.333 9.333 2.178-2.178-7.156-7.156z"></path>
</symbol>
<symbol id="new-post" viewBox="0 0 89 32">
<path fill="#fff" style="fill: var(--color1, #fff)" d="M38.956 5.806c0 0 0 0 1.855 0 0.676 0 1.016 0.332 1.016 1.081 0 0 0 0 0 2.654 0 0 0 0 3.633 0 0 0 0 0 0-2.654 0-0.749 0.335-1.081 1.098-1.081 0 0 0 0 1.773 0 0 0 0 0 0 1.744 0 0 0 0-0.757 0l-0.086 0.085c0 0 0 0 0 7.469 0 0 0 0-2.027 0 0 0 0 0 0-3.735 0 0 0 0-3.633 0 0 0 0 0 0 3.735 0 0 0 0-2.027 0 0 0 0 0 0-7.469 0 0 0-0.085-0.086-0.085 0 0 0 0-0.757 0 0 0 0 0 0-1.744z"></path>
<path fill="#fff" style="fill: var(--color1, #fff)" d="M53.651 5.64l0.046 0.005v1.915l-0.046-0.010c-1.519 0-2.703 1.246-2.703 2.825 0 1.659 1.184 2.986 2.703 2.986l0.046-0.010v1.915l-0.046 0.005c-2.703 0-4.898-2.156-4.898-4.896 0-2.659 2.195-4.735 4.898-4.735z"></path>
<path fill="#fff" style="fill: var(--color1, #fff)" d="M53.694 5.645l0.94 0.090c2.231 0.432 3.913 2.312 3.913 4.639 0 2.393-1.682 4.348-3.913 4.795l-0.94 0.095v-1.915l1.032-0.221c0.996-0.452 1.712-1.513 1.712-2.754 0-1.186-0.716-2.181-1.712-2.604l-1.032-0.211v-1.915z"></path>
<path fill="#fff" style="fill: var(--color1, #fff)" d="M58.972 5.806c0 0 0 0 2.83 0h1.352v1.744h-0.127c-0.168 0-0.508 0-1.184 0 0 0 0 0 0 1.91 0 0 0 0 0.574 0h0.737v1.659h-0.432c-0.213 0-0.498 0-0.879 0 0 0 0 0 0 2.076 0 0.085 0 0.085 0.086 0.085 0 0 0 0 0.605 0h0.62v1.825h-0.178c-0.305 0-0.92 0-2.144 0-0.676 0-1.011-0.332-1.011-1.081v-6.474c0 0 0 0-0.849 0 0 0 0 0 0-1.744z"></path>
<path fill="#fff" style="fill: var(--color1, #fff)" d="M63.153 5.806h0.041c1.86 0 2.957 0.995 2.957 2.493 0 0.91-0.422 1.493-0.844 1.91 0.762 0.332 1.265 1.161 1.265 2.071 0 1.744-1.352 2.825-3.293 2.825 0 0 0 0-0.036 0h-0.091v-1.825h0.208c0.676 0 1.103-0.417 1.103-1.081s-0.427-1.081-1.103-1.081c0 0 0 0-0.188 0h-0.020v-1.659h0.041c0.594 0 0.93-0.417 0.93-0.995 0-0.583-0.335-0.915-0.93-0.915 0 0 0 0-0.020 0h-0.020v-1.744z"></path>
<path fill="#fff" style="fill: var(--color1, #fff)" d="M70.46 5.806c0 0 0 0 0.853 0h0.158v2.659c-0.082 0.166-0.168 0.412-0.168 0.664 0 0 0 0-0.676 1.91 0 0 0 0 0.716 0h0.127v1.739h-0.457c-0.259 0-0.554 0-0.889 0 0 0 0 0-0.594 1.498-0.168 0.578-0.503 0.829-1.179 0.829 0 0 0 0-1.27 0 0 0 0 0 0-1.825 0 0 0 0 0.422 0 0.173 0 0.173 0 0.254-0.085 0 0 0 0 2.703-7.389z"></path>
<path fill="#fff" style="fill: var(--color1, #fff)" d="M71.472 5.806h1.016c0 0 0 0 2.703 7.389 0.082 0.085 0.082 0.085 0.249 0.085 0 0 0 0 0.341 0 0 0 0 0 0 1.825 0 0 0 0-1.184 0-0.676 0-1.011-0.251-1.184-0.915 0 0 0 0-0.589-1.412 0 0 0 0-1.138 0h-0.213v-1.739h0.843c0 0 0 0-0.671-1.91 0-0.251-0.087-0.498-0.173-0.664v-2.659z"></path>
<path fill="#fff" style="fill: var(--color1, #fff)" d="M38.956 17.758c0 0 0 0 7.348 0 0.676 0 1.098 0.332 1.098 1.081 0 0 0 0 0 6.308 0 0.080 0 0.080 0.086 0.080 0 0 0 0 0.676 0 0 0 0 0 0 1.83 0 0 0 0-1.773 0-0.762 0-1.098-0.332-1.098-1.081 0 0 0 0 0-6.388 0 0 0-0.085-0.086-0.085 0 0 0 0-3.379 0 0 0 0 0 0 7.555 0 0 0 0-2.027 0 0 0 0 0 0-7.555 0 0 0 0-0.844 0 0 0 0 0 0-1.744z"></path>
<path fill="#fff" style="fill: var(--color1, #fff)" d="M53.484 17.592l0.041 0.005v1.915l-0.041-0.010c-1.524 0-2.703 1.247-2.703 2.825 0 1.659 1.179 2.986 2.703 2.986l0.041-0.010v1.915l-0.041 0.005c-2.703 0-4.817-2.161-4.817-4.896 0-2.659 2.114-4.735 4.817-4.735z"></path>
<path fill="#fff" style="fill: var(--color1, #fff)" d="M53.522 17.598l0.971 0.090c2.271 0.432 3.887 2.312 3.887 4.639 0 2.393-1.616 4.348-3.887 4.795l-0.971 0.096v-1.915l1.072-0.221c1.011-0.452 1.677-1.513 1.677-2.755 0-1.186-0.666-2.181-1.677-2.604l-1.072-0.211v-1.915z"></path>
<path fill="#fff" style="fill: var(--color1, #fff)" d="M58.803 17.758c0 0 0 0 1.86 0 0.676 0 1.011 0.332 1.011 1.081 0 0 0 0 0 6.308 0 0.080 0 0.080 0.086 0.080 0 0 0 0 2.449 0 0 0 0 0 0-7.469 0 0 0 0 2.027 0 0 0 0 0 0 7.469 0 0 0 0 2.449 0 0.086 0 0.086 0 0.086-0.080 0 0 0 0 0-6.308 0-0.749 0.335-1.081 1.011-1.081 0 0 0 0 1.86 0 0 0 0 0 0 1.744 0 0 0 0-0.762 0-0.086 0-0.086 0.085-0.086 0.085s0 0 0 6.388c0 0.749-0.335 1.081-1.011 1.081 0 0 0 0-9.040 0-0.757 0-1.098-0.332-1.098-1.081 0 0 0 0 0-6.388 0 0 0-0.085-0.081-0.085 0 0 0 0-0.762 0 0 0 0 0 0-1.744z"></path>
<path fill="#fff" style="fill: var(--color1, #fff)" d="M73.244 17.758c0 0 0 0 6.337 0 0.762 0 1.016 0.332 1.016 0.995 0 0 0 0 0 1.578h-1.86c0 0 0 0 0-0.744 0-0.085 0-0.085-0.086-0.085 0 0 0 0-1.179 0 0 0 0 0 0 7.555 0 0 0 0-2.032 0 0 0 0 0 0-7.555 0 0 0 0-1.179 0-0.086 0-0.086 0-0.086 0.085 0 0 0 0 0 0.744 0 0 0 0-1.86 0 0 0 0 0 0-1.578 0-0.663 0.255-0.995 0.93-0.995z"></path>
<path fill="#fff" style="fill: var(--color1, #fff)" d="M83.212 17.758c0 0 0 0 0.854 0h0.157v2.659c-0.086 0.166-0.167 0.412-0.167 0.663 0 0 0 0-0.676 1.91 0 0 0 0 0.712 0h0.132v1.739h-0.457c-0.259 0-0.554 0-0.894 0 0 0 0 0-0.59 1.412-0.168 0.663-0.508 0.915-1.184 0.915 0 0 0 0-1.265 0 0 0 0 0 0-1.83 0 0 0 0 0.422 0 0.173 0 0.173 0 0.254-0.080 0 0 0 0 2.703-7.389z"></path>
<path fill="#fff" style="fill: var(--color1, #fff)" d="M84.225 17.758h1.011c0 0 0 0 2.709 7.389 0.081 0.080 0.081 0.080 0.254 0.080h0.336c0 0 0 0 0 1.83 0 0 0 0-1.184 0-0.676 0-1.011-0.251-1.184-0.915 0 0 0 0-0.59-1.412 0 0 0 0-1.138 0h-0.214v-1.739h0.844c0 0 0 0-0.676-1.91 0-0.251-0.081-0.498-0.168-0.663v-2.659z"></path>
<path fill="#fff" style="fill: var(--color1, #fff)" d="M25.935 9.762c0.097-0.030 0.224 0.030 0.351 0.196 0 0 0 0 5.742 5.559 0.335 0.332 0.335 0.834 0 1.081 0 0 0 0-5.742 5.645-0.127 0.166-0.254 0.206-0.351 0.156s-0.157-0.196-0.157-0.407v-11.867c0-0.206 0.061-0.332 0.157-0.362z"></path>
<path fill="#fff" style="fill: var(--color1, #fff)" d="M16.116 0.498h0.406l0.391 0.161c0 0 0 0 5.91 5.81 0.254 0.332 0.168 0.583-0.254 0.583 0 0 0 0-2.449 0-0.422 0-0.757 0.332-0.757 0.749 0 0 0 0 0 4.313 0 0.417-0.34 0.749-0.849 0.749 0 0 0 0-4.304 0-0.422 0-0.762-0.332-0.762-0.749 0 0 0 0 0-4.313 0-0.417-0.335-0.749-0.762-0.749h-2.617c-0.422 0-0.508-0.251-0.254-0.583 0 0 0 0 5.915-5.81l0.386-0.161z"></path>
<path fill="#fff" style="fill: var(--color1, #fff)" d="M6.857 9.636c0.107 0.050 0.173 0.196 0.173 0.407v12.113c0 0.211-0.066 0.337-0.173 0.377-0.102 0.040-0.249 0-0.422-0.126 0 0 0 0-5.828-5.81-0.335-0.246-0.335-0.749 0-1.081 0 0 0 0 5.828-5.725 0.173-0.166 0.32-0.206 0.422-0.156z"></path>
<path fill="#fff" style="fill: var(--color1, #fff)" d="M14.21 19.171c0 0 0 0 4.304 0 0.508 0 0.849 0.332 0.849 0.749 0 0 0 0 0 4.564 0 0.498 0.335 0.829 0.757 0.829h2.281c0.422 0 0.589 0.246 0.254 0.498 0 0 0 0-5.742 5.725-0.173 0.166-0.381 0.251-0.595 0.251-0.208 0-0.422-0.085-0.589-0.251 0 0 0 0-5.742-5.725-0.34-0.251-0.173-0.498 0.249-0.498 0 0 0 0 2.449 0 0.427 0 0.762-0.332 0.762-0.829 0 0 0 0 0-4.564 0-0.417 0.34-0.749 0.762-0.749z"></path>
</symbol>
<symbol id="okko" viewBox="0 0 24 32">
<path fill="#fff" style="fill: var(--color1, #fff)" d="M15.811 9.672c0.486-0.214 0.973-0.428 1.576-0.694-0.040 1.335-0.318 2.401-1.489 3.078 0.255-0.083 0.509-0.166 0.765-0.249 0.061 0.95-0.335 1.638-1.175 2.026-0.622 0.288-1.25 0.567-1.843 0.993 0.293 0.022 0.588 0.030 0.879 0.070 1.231 0.172 2.234 0.633 2.564 1.999 0.102 0.427 0.338 0.819 0.456 1.244 0.278 1.008 0.695 1.809 1.928 1.804 0.217 0 0.534 0.249 0.635 0.463 0.307 0.657 0.542 1.351 0.785 2.035 0.152 0.427 0.022 0.747-0.463 0.768-0.691 0.030-1.383 0.008-2.1 0.008 0.023-0.858 0.571-0.983 1.192-1.047 0-0.66-0.269-1.044-0.931-1.077-0.747-0.038-1.498-0.022-2.238-0.108-0.306-0.036-0.705-0.197-0.858-0.433-0.463-0.711-0.824-1.488-1.264-2.312-2.924 0.222-5.597 1.296-7.487 3.617-1.158 1.423-2.397 1.519-3.957 1.288-0.030-0.635 0.318-0.968 0.908-0.91 0.725 0.070 1.073-0.274 1.366-0.869 0.286-0.578 0.668-1.108 1.001-1.651-0.020-0.063-0.020-0.13-0.053-0.156-1.124-0.943-1.16-2.027-0.483-3.256 0.371-0.675 0.655-1.399 1.057-2.274l-0.733 0.439-0.432-0.799c0.334-0.156 0.624-0.283 0.896-0.438 0.025-0.014-0.057-0.217-0.092-0.333-0.317 0.103-0.635 0.205-1.046 0.338 0.070 0.025 0.012 0.019-0.025-0.011-1.052-0.852-1.083-1.041-0.116-1.956 0.708-0.669 1.478-1.272 2.28-1.956 1.032 0.766 1.911 1.809 2.457 3.101 0.363 0.858 0.175 1.677-0.458 2.404 1.129-0.445 1.639-1.465 1.27-2.689-0.185-0.613-0.581-1.157-0.81-1.76-0.126-0.333-0.27-0.822-0.124-1.071 1.961-3.325 4.325-6.337 7.085-9.064 1.012 2.607 1.274 4.526-1.645 6.766 0.806-0.514 1.613-1.027 2.436-1.551 0.478 1.655-0.020 2.804-1.715 4.221z"></path>
<path fill="#fff" style="fill: var(--color1, #fff)" d="M3.068 26.265c1.94 0.008 2.78 0.866 2.769 2.828-0.011 1.952-0.857 2.795-2.811 2.804-1.94 0.006-2.793-0.85-2.789-2.811 0.003-2.031 0.804-2.831 2.831-2.823v0.002zM3.053 27.517c-1.281-0.005-1.557 0.264-1.568 1.529-0.011 1.268 0.307 1.602 1.52 1.598 1.231-0.005 1.576-0.342 1.59-1.548 0.014-1.251-0.301-1.573-1.54-1.579h-0.002z"></path>
<path fill="#fff" style="fill: var(--color1, #fff)" d="M21.031 26.267c1.961 0.003 2.802 0.849 2.785 2.797-0.019 2.012-0.855 2.845-2.848 2.834-1.916-0.009-2.763-0.893-2.743-2.859 0.020-1.982 0.824-2.776 2.808-2.772h-0.002zM21.065 27.514c-1.268-0.022-1.585 0.278-1.596 1.51-0.011 1.265 0.307 1.607 1.504 1.619 1.236 0.011 1.585-0.32 1.607-1.527 0.022-1.265-0.275-1.58-1.515-1.601v-0.002z"></path>
<path fill="#fff" style="fill: var(--color1, #fff)" d="M14.979 29.537c-0.939 0.4-0.922 1.218-0.824 2.109h-1.222v-5.162h1.16v2.226c0.692-0.663 1.265-1.13 1.737-1.684 0.571-0.671 1.246-0.678 2.074-0.542-0.705 0.671-1.354 1.287-2.023 1.921 0.778 1.133 1.461 2.131 2.151 3.137-1.011 0.381-1.43 0.261-1.973-0.527-0.309-0.449-0.621-0.896-0.934-1.34-0.043-0.063-0.11-0.108-0.144-0.141l-0.002 0.002z"></path>
<path fill="#fff" style="fill: var(--color1, #fff)" d="M11.756 26.489c-0.742 0.672-1.406 1.272-2.083 1.885 0.806 1.177 1.489 2.176 2.176 3.183-1.057 0.37-1.419 0.256-2.021-0.605-0.326-0.466-0.652-0.932-0.984-1.408-1.049 0.36-0.92 1.246-0.919 2.112h-1.158v-5.16h1.118v1.952l0.175 0.108c0.528-0.502 1.108-0.958 1.569-1.515 0.57-0.686 1.245-0.688 2.127-0.552z"></path>
</symbol>
<symbol id="dou" viewBox="0 0 65 32">
<path fill="#fff" style="fill: var(--color1, #fff)" d="M6.758 10.065v11.626c0.621 0.058 1.035 0.058 1.715 0.058 4.082 0 6.685-2.18 6.685-6.046 0-3.749-2.81-5.726-6.655-5.726-0.503 0-1.154 0-1.745 0.087zM2.024 5.705h0.414c1.095 0 4.763-0.087 6.123-0.087 8.282 0 11.625 4.68 11.625 10.086 0 5.697-3.964 10.406-11.862 10.406-1.094 0-3.816-0.058-5.798-0.058h-0.503v-20.346z"></path>
<path fill="#fff" style="fill: var(--color1, #fff)" d="M32.265 22.040c3.934 0 5.975-2.732 5.975-6.162 0-3.721-2.633-6.162-5.975-6.162-3.431 0-5.975 2.442-5.975 6.162 0 3.488 2.662 6.162 5.975 6.162zM32.265 5.357c6.3 0 11.004 4.040 11.004 10.522 0 6.162-4.703 10.522-11.004 10.522s-11.004-4.040-11.004-10.522c0-5.901 4.407-10.522 11.004-10.522z"></path>
<path fill="#fff" style="fill: var(--color1, #fff)" d="M61.935 17.651c0 6.22-4.023 8.749-8.46 8.749-5.325 0-9.022-2.994-9.022-8.952v-11.743h4.733v10.754c0 3.168 0.976 5.581 4.289 5.581 2.869 0 3.727-2.064 3.727-5.319v-11.016h4.733v11.946z"></path>
</symbol>
<symbol id="come-back-alive" viewBox="0 0 63 32">
<path fill="#fff" style="fill: var(--color1, #fff)" d="M19.967 12.355v-5.644h2.921v5.644h-0.917v-4.79h-1.087v4.79h-0.917z"></path>
<path fill="#fff" style="fill: var(--color1, #fff)" d="M25.512 11.576c0.003 0 0.005 0.001 0.008 0.002s0.005 0.002 0.008 0.002c0.108-0.002 0.195-0.025 0.259-0.067s0.114-0.097 0.149-0.165c0.035-0.068 0.057-0.147 0.068-0.236s0.016-0.181 0.016-0.275v-2.612c0-0.092-0.005-0.182-0.014-0.271s-0.031-0.168-0.066-0.237c-0.035-0.069-0.085-0.125-0.151-0.167s-0.157-0.063-0.273-0.063c-0.008 0-0.014-0.001-0.019-0.004-0.108 0.002-0.195 0.025-0.259 0.067s-0.113 0.097-0.147 0.165c-0.034 0.068-0.055 0.147-0.066 0.236s-0.016 0.181-0.016 0.275v2.612c0 0.092 0.005 0.182 0.014 0.271s0.031 0.168 0.066 0.238c0.035 0.069 0.085 0.125 0.151 0.167s0.157 0.063 0.273 0.063zM25.512 6.637c0-0.003 0.001-0.004 0.004-0.004 0.289 0 0.526 0.043 0.71 0.128s0.329 0.2 0.433 0.345c0.105 0.145 0.177 0.313 0.217 0.506s0.060 0.396 0.060 0.609v2.62c0 0.215-0.020 0.419-0.060 0.612s-0.113 0.362-0.219 0.506c-0.106 0.145-0.251 0.259-0.435 0.343s-0.42 0.126-0.706 0.126l-0.004-0.004v0.004c-0.289 0-0.526-0.043-0.71-0.128s-0.33-0.2-0.435-0.345c-0.106-0.145-0.179-0.314-0.219-0.506s-0.060-0.396-0.060-0.609v-2.62c0-0.215 0.020-0.419 0.060-0.611s0.113-0.36 0.221-0.505c0.107-0.145 0.253-0.26 0.437-0.345s0.42-0.128 0.706-0.128v0.004z"></path>
<path fill="#fff" style="fill: var(--color1, #fff)" d="M30.111 10.355c0-0.077-0.011-0.148-0.033-0.215s-0.054-0.125-0.097-0.174c-0.043-0.050-0.097-0.088-0.163-0.117s-0.143-0.043-0.23-0.043h-0.492v1.696h0.495c0.085 0 0.16-0.008 0.225-0.024s0.119-0.046 0.164-0.089c0.045-0.043 0.079-0.103 0.101-0.178s0.032-0.172 0.029-0.291v-0.564zM30.045 8.066c0-0.082-0.009-0.156-0.027-0.223s-0.046-0.124-0.085-0.172c-0.039-0.048-0.089-0.085-0.151-0.111s-0.138-0.039-0.228-0.039h-0.457v1.484h0.391c0.106 0 0.195-0.012 0.267-0.035s0.131-0.060 0.176-0.11c0.045-0.049 0.077-0.111 0.095-0.185s0.026-0.163 0.023-0.267l-0.004-0.341zM31.028 10.904c0 0.26-0.029 0.481-0.087 0.664s-0.146 0.333-0.265 0.449c-0.119 0.116-0.267 0.201-0.445 0.254s-0.388 0.080-0.631 0.080h-1.42v-5.64h1.401c0.237 0 0.443 0.029 0.617 0.087s0.318 0.142 0.431 0.252c0.113 0.11 0.198 0.244 0.253 0.403s0.083 0.339 0.083 0.542v0.33c0 0.294-0.043 0.528-0.128 0.701s-0.224 0.287-0.418 0.341c0.188 0.050 0.337 0.16 0.445 0.332s0.162 0.39 0.162 0.655v0.549z"></path>
<path fill="#fff" style="fill: var(--color1, #fff)" d="M32.268 12.355v-5.644h2.488v0.854h-1.571v1.492h1.304v0.853h-1.304v1.596h1.571v0.85h-2.488z"></path>
<path fill="#fff" style="fill: var(--color1, #fff)" d="M37.777 8.092c0-0.173-0.038-0.304-0.112-0.393s-0.206-0.134-0.395-0.134h-0.437v2h0.402c0.199 0 0.339-0.043 0.42-0.13s0.122-0.232 0.122-0.438v-0.905zM38.698 8.997c0 0.272-0.034 0.499-0.101 0.681s-0.163 0.327-0.288 0.436c-0.125 0.109-0.277 0.186-0.457 0.23s-0.381 0.067-0.605 0.067h-0.414v1.944h-0.917v-5.644h1.351c0.217 0 0.413 0.023 0.588 0.070s0.326 0.124 0.451 0.232c0.125 0.108 0.222 0.249 0.29 0.425s0.103 0.393 0.103 0.653v0.905z"></path>
<path fill="#fff" style="fill: var(--color1, #fff)" d="M39.757 12.355v-5.644h0.921v2.371h1.087v-2.371h0.917v5.644h-0.917v-2.419h-1.087v2.419h-0.921z"></path>
<path fill="#fff" style="fill: var(--color1, #fff)" d="M46.233 12.355l0.035-3.711-1.138 3.711h-1.072l0.012-5.644h0.917l-0.031 3.622 1.049-3.622h1.149v5.644h-0.921z"></path>
<path fill="#fff" style="fill: var(--color1, #fff)" d="M51.087 10.567v0.334c0 0.2-0.021 0.393-0.062 0.577s-0.114 0.346-0.22 0.486c-0.106 0.14-0.25 0.252-0.433 0.336s-0.416 0.126-0.7 0.126c-0.003 0-0.004 0.001-0.004 0.004-0.291 0-0.529-0.043-0.714-0.128s-0.329-0.2-0.433-0.345c-0.104-0.145-0.176-0.314-0.216-0.506s-0.060-0.396-0.060-0.609v-2.62c0-0.215 0.020-0.419 0.060-0.61s0.112-0.36 0.216-0.505c0.104-0.145 0.249-0.26 0.433-0.345s0.42-0.128 0.706-0.128l0.004-0.004c0.289 0 0.526 0.043 0.71 0.128s0.329 0.199 0.435 0.341c0.106 0.142 0.178 0.306 0.219 0.492s0.060 0.378 0.060 0.579v0.323h-0.921v-0.319c0-0.084-0.006-0.167-0.017-0.249s-0.035-0.155-0.070-0.221c-0.035-0.065-0.085-0.119-0.151-0.159s-0.152-0.061-0.261-0.061c-0.113 0-0.203 0.021-0.269 0.063s-0.117 0.097-0.153 0.165-0.059 0.147-0.070 0.236c-0.010 0.089-0.016 0.182-0.016 0.278v2.612c0 0.091 0.005 0.182 0.014 0.271s0.031 0.168 0.066 0.237c0.035 0.069 0.085 0.125 0.151 0.167s0.157 0.063 0.272 0.063c0.106 0 0.192-0.019 0.257-0.056s0.117-0.087 0.153-0.15c0.036-0.063 0.061-0.135 0.073-0.217s0.019-0.167 0.019-0.256v-0.33h0.921z"></path>
<path fill="#fff" style="fill: var(--color1, #fff)" d="M53.957 10.069c0-0.205-0.040-0.351-0.122-0.438s-0.221-0.13-0.42-0.13h-0.402v2h0.437c0.188 0 0.32-0.045 0.395-0.134s0.112-0.22 0.112-0.393v-0.905zM54.878 10.975c0 0.26-0.034 0.477-0.103 0.653s-0.165 0.317-0.29 0.425c-0.125 0.108-0.276 0.185-0.451 0.232s-0.372 0.071-0.588 0.071h-1.351v-5.644h0.917v1.944h0.414c0.224 0 0.426 0.022 0.606 0.067s0.331 0.121 0.456 0.23c0.125 0.109 0.221 0.254 0.288 0.436s0.101 0.409 0.101 0.681v0.905z"></path>
<path fill="#fff" style="fill: var(--color1, #fff)" d="M9.046 12.492l-2.375-3.201c-0.277-0.373-0.391-0.824-0.351-1.26 0.040-0.437 0.234-0.859 0.574-1.174 0.047-0.044 0.097-0.085 0.15-0.124 0.366-0.272 0.806-0.383 1.23-0.339 0.416 0.042 0.817 0.231 1.12 0.558 0.303-0.327 0.704-0.516 1.12-0.558 0.424-0.043 0.863 0.067 1.23 0.339 0.053 0.039 0.103 0.080 0.15 0.124 0.34 0.315 0.534 0.737 0.574 1.174 0.040 0.436-0.074 0.886-0.351 1.26l-2.722 3.669-0.348-0.468zM7.367 8.758l2.027 2.732 2.027-2.732c0.143-0.192 0.201-0.423 0.181-0.647-0.020-0.222-0.12-0.437-0.295-0.599-0.026-0.024-0.052-0.046-0.078-0.065-0.187-0.139-0.412-0.195-0.63-0.173-0.216 0.022-0.425 0.123-0.582 0.297-0.023 0.026-0.045 0.053-0.064 0.080l-0.559 0.776-0.559-0.776c-0.019-0.027-0.041-0.054-0.064-0.080-0.156-0.174-0.365-0.275-0.582-0.297-0.218-0.022-0.443 0.034-0.63 0.173-0.026 0.019-0.052 0.041-0.078 0.065-0.175 0.162-0.275 0.377-0.295 0.599-0.020 0.223 0.039 0.454 0.181 0.647z"></path>
<path fill="#fff" style="fill: var(--color1, #fff)" d="M3.598 15.416h11.589v-11.779h-11.589v11.779zM47.212 15.416h11.589v-11.779h-42.742v11.779h31.153zM59.237 16.302h-12.024v12.665h-32.025v-12.665h-12.461v-13.552h56.947v13.552h-0.436zM16.059 28.081h30.28v-11.779h-30.28v11.779z"></path>
<path fill="#fff" style="fill: var(--color1, #fff)" d="M21.844 25.051v-2.419h-0.375l0.004 0.004-0.906 2.416h-0.979l1.080-2.887-1.006-2.757h0.983l0.855 2.371h0.344v-2.371h0.917v2.371h0.341l0.859-2.371h0.979l-1.010 2.757 1.087 2.887h-0.983l-0.905-2.416v-0.004h-0.368v2.419h-0.917z"></path>
<path fill="#fff" style="fill: var(--color1, #fff)" d="M28.156 25.051l0.035-3.711-1.138 3.711h-1.072l0.012-5.644h0.917l-0.031 3.622 1.049-3.622h1.149v5.644h-0.921z"></path>
<path fill="#fff" style="fill: var(--color1, #fff)" d="M32.223 23.051c0-0.077-0.011-0.148-0.033-0.215s-0.054-0.125-0.097-0.174c-0.043-0.050-0.097-0.088-0.162-0.117s-0.143-0.043-0.23-0.043h-0.492v1.696h0.495c0.085 0 0.16-0.008 0.225-0.024s0.119-0.046 0.164-0.089c0.045-0.043 0.079-0.103 0.101-0.178s0.032-0.172 0.029-0.291v-0.564zM32.157 20.762c0-0.082-0.009-0.156-0.027-0.223s-0.046-0.124-0.085-0.172c-0.039-0.048-0.089-0.085-0.151-0.111s-0.138-0.039-0.228-0.039h-0.457v1.484h0.391c0.106 0 0.195-0.012 0.267-0.035s0.131-0.060 0.176-0.11c0.045-0.049 0.077-0.111 0.095-0.185s0.026-0.163 0.023-0.267l-0.004-0.341zM33.14 23.601c0 0.26-0.029 0.481-0.087 0.664s-0.146 0.333-0.265 0.449c-0.119 0.116-0.267 0.201-0.445 0.254s-0.388 0.080-0.631 0.080h-1.42v-5.64h1.401c0.237 0 0.443 0.029 0.617 0.087s0.318 0.142 0.431 0.252c0.114 0.11 0.198 0.244 0.253 0.403s0.083 0.339 0.083 0.542v0.33c0 0.294-0.043 0.528-0.128 0.701s-0.224 0.287-0.418 0.341c0.188 0.049 0.337 0.16 0.445 0.332s0.162 0.39 0.162 0.655v0.549z"></path>
<path fill="#fff" style="fill: var(--color1, #fff)" d="M36.406 25.051l0.035-3.711-1.138 3.711h-1.072l0.012-5.644h0.917l-0.031 3.622 1.049-3.622h1.149v5.644h-0.921z"></path>
<path fill="#fff" style="fill: var(--color1, #fff)" d="M39.37 20.922l0.093 4.13h-0.917v-5.644h1.188l0.774 3.428 0.778-3.428h1.184v5.644h-0.921l0.093-4.074-0.735 3.369h-0.793l-0.743-3.425z"></path>
</symbol>
<symbol id="monobank" viewBox="0 0 139 32">
<path fill="#fff" style="fill: var(--color1, #fff)" d="M20.989 20.104v-10.076c0-2.858-1.53-4.215-4.1-4.215-2.136 0-3.984 1.27-4.793 2.541-0.52-1.588-1.819-2.541-3.869-2.541-2.136 0-3.984 1.328-4.562 2.165v-1.819h-3.667v13.944h3.667v-9.383c0.549-0.78 1.617-1.646 2.887-1.646 1.501 0 2.079 0.924 2.079 2.223v8.806h3.695v-9.412c0.52-0.751 1.588-1.617 2.887-1.617 1.501 0 2.079 0.924 2.079 2.223v8.806h3.695z"></path>
<path fill="#fff" style="fill: var(--color1, #fff)" d="M31.051 20.451c4.619 0 7.391-3.349 7.391-7.333 0-3.955-2.772-7.304-7.391-7.304-4.59 0-7.362 3.349-7.362 7.304 0 3.984 2.772 7.333 7.362 7.333zM31.051 17.188c-2.281 0-3.551-1.877-3.551-4.071 0-2.165 1.27-4.042 3.551-4.042s3.58 1.877 3.58 4.042c0 2.194-1.299 4.071-3.58 4.071z"></path>
<path fill="#fff" style="fill: var(--color1, #fff)" d="M54.241 20.104v-9.845c0-2.714-1.472-4.446-4.533-4.446-2.281 0-3.984 1.097-4.879 2.165v-1.819h-3.667v13.944h3.667v-9.383c0.606-0.837 1.732-1.646 3.176-1.646 1.559 0 2.569 0.664 2.569 2.598v8.43h3.667z"></path>
<path fill="#fff" style="fill: var(--color1, #fff)" d="M64.347 20.451c4.619 0 7.391-3.349 7.391-7.333 0-3.955-2.772-7.304-7.391-7.304-4.59 0-7.362 3.349-7.362 7.304 0 3.984 2.772 7.333 7.362 7.333zM64.347 17.188c-2.281 0-3.551-1.877-3.551-4.071 0-2.165 1.27-4.042 3.551-4.042s3.58 1.877 3.58 4.042c0 2.194-1.299 4.071-3.58 4.071z"></path>
<path fill="#fff" style="fill: var(--color1, #fff)" d="M78.129 15.629v-4.937c0.606-0.924 1.963-1.617 3.147-1.617 2.136 0 3.551 1.646 3.551 4.071s-1.415 4.042-3.551 4.042c-1.183 0-2.54-0.664-3.147-1.559zM78.129 20.104v-1.79c1.097 1.386 2.627 2.136 4.301 2.136 3.523 0 6.179-2.656 6.179-7.304 0-4.561-2.628-7.333-6.179-7.333-1.645 0-3.205 0.722-4.301 2.136v-7.102h-3.667v19.257h3.667z"></path>
<path fill="#fff" style="fill: var(--color1, #fff)" d="M103.415 20.104v-9.008c0-4.013-2.916-5.283-6.092-5.283-2.194 0-4.388 0.693-6.092 2.194l1.386 2.454c1.184-1.097 2.569-1.646 4.071-1.646 1.849 0 3.061 0.924 3.061 2.339v1.877c-0.924-1.097-2.57-1.703-4.417-1.703-2.223 0-4.851 1.241-4.851 4.504 0 3.118 2.627 4.619 4.851 4.619 1.818 0 3.465-0.664 4.417-1.79v1.444h3.666zM96.804 17.968c-1.444 0-2.627-0.751-2.627-2.050 0-1.357 1.183-2.108 2.627-2.108 1.184 0 2.339 0.404 2.945 1.213v1.732c-0.606 0.808-1.761 1.212-2.945 1.212z"></path>
<path fill="#fff" style="fill: var(--color1, #fff)" d="M120.132 20.104v-9.845c0-2.714-1.473-4.446-4.533-4.446-2.281 0-3.984 1.097-4.879 2.165v-1.819h-3.667v13.944h3.667v-9.383c0.606-0.837 1.732-1.646 3.176-1.646 1.559 0 2.569 0.664 2.569 2.598v8.43h3.667z"></path>
<path fill="#fff" style="fill: var(--color1, #fff)" d="M137.4 20.104l-5.688-7.622 5.515-6.323h-4.504l-5.283 6.207v-11.519h-3.666v19.257h3.666v-3.58l1.675-1.79 3.695 5.37h4.591z"></path>
<path fill="#fff" style="fill: var(--color1, #fff)" opacity="0.5" d="M135.197 26.422h0.926v2.963h0.051l1.203-1.423 0.853-0.002-1.32 1.556 1.59 1.945h-1.066l-1.3-1.811h-0.013v1.811h-0.926v-5.039z"></path>
<path fill="#fff" style="fill: var(--color1, #fff)" opacity="0.5" d="M91.197 26.647v2.763c0 0.941 0.277 1.456 1.052 1.456 0.743 0 1.040-0.624 1.040-1.401v-2.817h0.875v2.989c0 1.215-0.791 1.904-1.941 1.904-1.318 0-2.003-0.641-2.003-1.952v-2.941h0.977z"></path>
<path fill="#fff" style="fill: var(--color1, #fff)" opacity="0.5" d="M96.21 28.427c0.313-0.329 0.749-0.488 1.186-0.488 0.812 0 1.24 0.439 1.24 1.305v2.213h-0.92v-2.109c0-0.482-0.214-0.798-0.693-0.798-0.451 0-0.805 0.296-0.805 0.86v2.047h-0.921v-3.436h0.914v0.406z"></path>
<path fill="#fff" style="fill: var(--color1, #fff)" opacity="0.5" d="M99.719 31.457h0.922v-3.436h-0.922v3.436zM99.629 26.991c0-0.261 0.222-0.529 0.534-0.529 0.319 0 0.567 0.262 0.567 0.529 0 0.295-0.213 0.577-0.554 0.577-0.326 0-0.548-0.282-0.548-0.577z"></path>
<path fill="#fff" style="fill: var(--color1, #fff)" opacity="0.5" d="M102.68 31.457l-1.476-3.451h0.977c0.298 0.791 0.608 1.534 0.899 2.489h0.015c0.312-0.955 0.607-1.699 0.926-2.489h0.864l-1.561 3.451h-0.644z"></path>
<path fill="#fff" style="fill: var(--color1, #fff)" opacity="0.5" d="M107.628 29.328c0.037-0.524-0.151-0.88-0.607-0.88-0.529 0-0.767 0.419-0.756 0.88h1.363zM106.249 29.822c-0.020 0.646 0.436 1.127 1.012 1.127 0.341 0 0.7-0.117 0.93-0.275l0.263 0.482c-0.471 0.275-0.964 0.385-1.359 0.385-1.046 0-1.829-0.736-1.829-1.87 0-1.059 0.775-1.731 1.767-1.731 1.081 0 1.533 0.858 1.464 1.883h-2.248z"></path>
<path fill="#fff" style="fill: var(--color1, #fff)" opacity="0.5" d="M110.304 28.626h0.014l0.187-0.268c0.104-0.152 0.311-0.419 0.596-0.419 0.207 0 0.431 0.11 0.624 0.309l-0.347 0.632c-0.152-0.076-0.25-0.117-0.436-0.117-0.319 0-0.631 0.254-0.631 0.996v1.698h-0.924v-3.436h0.917v0.605z"></path>
<path fill="#fff" style="fill: var(--color1, #fff)" opacity="0.5" d="M114.191 28.667c-0.207-0.151-0.423-0.219-0.59-0.219-0.207 0-0.416 0.116-0.416 0.35 0 0.275 0.334 0.433 0.721 0.714 0.495 0.366 0.639 0.723 0.639 1.037 0 0.483-0.535 0.991-1.296 0.991-0.479 0-0.832-0.166-1.157-0.392l0.291-0.475c0.207 0.166 0.504 0.33 0.753 0.33 0.266 0 0.5-0.138 0.5-0.426 0-0.323-0.362-0.501-0.693-0.735-0.396-0.268-0.665-0.529-0.665-0.954 0-0.544 0.526-0.948 1.205-0.948 0.382 0 0.755 0.096 1.007 0.316l-0.3 0.411z"></path>
<path fill="#fff" style="fill: var(--color1, #fff)" opacity="0.5" d="M116.815 29.629c-0.45 0.144-0.679 0.398-0.679 0.79 0 0.303 0.194 0.509 0.418 0.509 0.367 0 0.845-0.454 0.776-1.464l-0.515 0.165zM117.107 31.128c-0.25 0.206-0.569 0.413-0.887 0.413-0.541 0-0.993-0.413-0.993-1.045 0-0.654 0.48-1.017 1.284-1.252l0.818-0.241c-0.049-0.316-0.333-0.514-0.63-0.514-0.396 0-0.674 0.144-0.916 0.351l-0.299-0.433c0.431-0.35 0.852-0.467 1.33-0.467 0.64 0 1.424 0.205 1.424 1.278v1.401c0 0.275 0.033 0.599 0.145 0.839h-0.977c-0.071-0.117-0.091-0.316-0.091-0.501l-0.207 0.172z"></path>
<path fill="#fff" style="fill: var(--color1, #fff)" opacity="0.5" d="M119.273 31.457h0.922v-5.051h-0.922v5.051z"></path>
<path fill="#fff" style="fill: var(--color1, #fff)" opacity="0.5" d="M128.363 29.629c-0.452 0.144-0.681 0.398-0.681 0.79 0 0.303 0.194 0.509 0.416 0.509 0.367 0 0.846-0.454 0.778-1.464l-0.513 0.165zM128.651 31.128c-0.247 0.206-0.567 0.413-0.886 0.413-0.54 0-0.992-0.413-0.992-1.045 0-0.654 0.479-1.017 1.285-1.252l0.818-0.241c-0.050-0.316-0.334-0.514-0.633-0.514-0.395 0-0.672 0.144-0.915 0.351l-0.298-0.433c0.431-0.35 0.853-0.467 1.333-0.467 0.636 0 1.419 0.205 1.419 1.278v1.401c0 0.275 0.035 0.599 0.145 0.839h-0.976c-0.069-0.117-0.091-0.316-0.091-0.501l-0.208 0.172z"></path>
<path fill="#fff" style="fill: var(--color1, #fff)" opacity="0.5" d="M131.729 28.427c0.312-0.329 0.75-0.488 1.186-0.488 0.811 0 1.24 0.439 1.24 1.305v2.213h-0.921v-2.109c0-0.482-0.215-0.798-0.693-0.798-0.451 0-0.805 0.296-0.805 0.86v2.047h-0.922v-3.436h0.915v0.406z"></path>
<path fill="#fff" style="fill: var(--color1, #fff)" opacity="0.5" d="M123.56 30.879h0.499c0.541 0 0.951-0.281 0.951-0.817 0-0.564-0.423-0.804-0.957-0.804h-0.494v1.621zM123.56 28.667h0.306c0.562 0 0.945-0.357 0.945-0.805 0-0.425-0.321-0.61-0.744-0.61h-0.507v1.415zM122.583 31.47v-4.81h1.754c0.818 0 1.394 0.371 1.394 1.024 0 0.769-0.631 1.086-0.971 1.175v0.014c0.604 0.028 1.275 0.439 1.275 1.175 0 0.831-0.701 1.423-1.843 1.423h-1.61z"></path>
</symbol>
<symbol id="sun" viewBox="0 0 152 32">
<path d="M150.208 14.595c0 0.715-0.047 1.431-0.187 2.146h-22.253c0.984 3.679 4.403 6.388 8.479 6.388 2.623 0 4.919-1.124 6.559-2.862h6.090c-2.202 4.599-7.027 7.768-12.649 7.768-7.683 0-13.914-5.979-13.914-13.44 0-7.41 6.231-13.44 13.914-13.44 6.98 0 12.743 4.906 13.773 11.345 0.141 0.664 0.187 1.38 0.187 2.095zM129.501 12.499h15.225c-0.937-3.679-4.403-6.388-8.479-6.388-3.795 0-7.074 2.402-8.245 5.672-0.141 0.409-0.328 0.818-0.562 1.175l-0.89 1.431 0.609 0.409 0.89-1.482c0.328-0.511 0.843-0.818 1.452-0.818z"></path>
<path d="M118.924 1.819v21.259h2.016l-0.639 7.768h-4.768v-1.942c0-0.613 0.147-1.175 0.492-1.686l1.131-1.84-0.59-0.409-0.59 0.92c-0.541 0.869-1.524 1.431-2.507 1.431h-20.402v-25.5h5.408v21.259h14.994v-21.259h5.457z"></path>
<path d="M84.69 1.87h5.588v25.5h-5.588v-10.629h-15.355v10.629h-5.538v-25.5h5.538v10.629h15.355v-10.629z"></path>
<path d="M16.146 23.129c2.753 0 5.162-1.124 6.883-2.862h6.391c-2.311 4.599-7.374 7.768-13.273 7.768-8.062 0-14.601-5.979-14.601-13.44 0-7.41 6.538-13.44 14.601-13.44 5.899 0 10.963 3.219 13.273 7.768h-6.391c-1.721-1.737-4.13-2.811-6.883-2.811-5.064 0-9.193 3.782-9.193 8.483s4.13 8.534 9.193 8.534z"></path>
<path d="M46.144 28.477c7.697 0 13.938-6.096 13.938-13.617s-6.24-13.617-13.938-13.617c-7.697 0-13.937 6.096-13.937 13.617s6.24 13.617 13.937 13.617zM52.768 8.388c1.757 1.716 2.744 4.044 2.744 6.472h-18.736c0-2.427 0.987-4.755 2.744-6.472s4.14-2.681 6.624-2.681c2.485 0 4.867 0.964 6.624 2.681z"></path>
</symbol>
<symbol id="drones" viewBox="0 0 170 32">
<path fill="#fff" style="fill: var(--color1, #fff)" d="M39.595 4.827h3.998c2.741 0 4.848 1.602 4.848 4.297 0 2.684-2.107 4.319-4.848 4.319h-3.998v-8.616zM41.905 6.793v4.695h1.688c1.438 0 2.503-0.851 2.503-2.353 0-1.513-1.065-2.331-2.503-2.331h-1.688v-0.011z"></path>
<path fill="#fff" style="fill: var(--color1, #fff)" d="M49.991 6.815h2.288v0.685c0.498-0.53 1.212-0.851 2.027-0.851v2.309c-0.181-0.044-0.476-0.066-0.691-0.066-0.612 0-1.178 0.32-1.325 0.906v3.645h-2.288v-6.628h-0.011z"></path>
<path fill="#fff" style="fill: var(--color1, #fff)" d="M55.181 10.129c0-2.121 1.586-3.469 3.749-3.469s3.749 1.348 3.749 3.469c0 2.121-1.586 3.469-3.749 3.469s-3.749-1.348-3.749-3.469zM57.492 10.129c0 0.862 0.566 1.381 1.438 1.381s1.438-0.519 1.438-1.381-0.566-1.381-1.438-1.381c-0.872 0-1.438 0.519-1.438 1.381z"></path>
<path fill="#fff" style="fill: var(--color1, #fff)" d="M64.181 6.815h2.288v0.685c0.498-0.53 1.212-0.851 2.027-0.851 2.073 0 2.752 1.524 2.752 3.347v3.435h-2.288v-3.391c0-0.729-0.453-1.281-1.167-1.281-0.815 0-1.302 0.486-1.325 1.315v3.38h-2.288v-6.639z"></path>
<path fill="#fff" style="fill: var(--color1, #fff)" d="M80.053 10.957v0.42c-0.419 1.259-1.846 2.22-3.692 2.22-2.163 0-3.749-1.348-3.749-3.469s1.586-3.469 3.749-3.469c2.039 0 3.5 1.193 3.692 2.938v0.817h-5.119c0.113 0.729 0.657 1.171 1.427 1.171 0.555 0 1.042-0.199 1.302-0.641h2.39v0.011zM75.070 9.245h2.582c-0.227-0.464-0.657-0.729-1.291-0.729-0.6 0-1.065 0.265-1.291 0.729z"></path>
<path fill="#fff" style="fill: var(--color1, #fff)" d="M88.096 9.278h-2.367c-0.079-0.387-0.6-0.751-1.167-0.751-0.544 0-0.94 0.155-0.94 0.508 0 1.038 4.553-0.011 4.553 2.463 0 1.215-1.302 2.11-3.42 2.11-1.722 0-3.285-0.817-3.738-2.176v-0.409h2.367c0.147 0.475 0.736 0.795 1.302 0.795 0.668 0 1.031-0.243 1.031-0.519 0-0.806-4.497 0.066-4.497-2.452 0-1.193 1.359-2.187 3.319-2.187 1.903 0 3.149 0.972 3.556 2.209v0.409z"></path>
<path fill="#fff" style="fill: var(--color1, #fff)" d="M92.569 7.511h0.951v-0.133c0-2.121 1.359-3.336 3.59-3.336v2.099c-0.872 0-1.302 0.387-1.302 1.248v0.133h1.45v2.055h-1.45v3.866h-2.288v-3.866h-0.951v-2.066z"></path>
<path fill="#fff" style="fill: var(--color1, #fff)" d="M98.267 10.129c0-2.121 1.586-3.469 3.749-3.469s3.749 1.348 3.749 3.469c0 2.121-1.586 3.469-3.749 3.469s-3.749-1.348-3.749-3.469zM100.578 10.129c0 0.862 0.566 1.381 1.438 1.381s1.438-0.519 1.438-1.381-0.566-1.381-1.438-1.381c-0.872 0-1.438 0.519-1.438 1.381z"></path>
<path fill="#fff" style="fill: var(--color1, #fff)" d="M107.267 6.815h2.288v0.685c0.498-0.53 1.212-0.851 2.028-0.851v2.309c-0.182-0.044-0.476-0.066-0.691-0.066-0.612 0-1.178 0.32-1.326 0.906v3.645h-2.288v-6.628h-0.011z"></path>
<path fill="#fff" style="fill: var(--color1, #fff)" d="M116.276 9.389v-4.562h2.311v4.75c0 1.259 0.634 1.878 1.96 1.933 1.313-0.055 1.959-0.674 1.959-1.933v-4.75h2.311v4.562c0 2.817-1.562 4.209-4.269 4.209-2.708 0-4.27-1.381-4.27-4.209z"></path>
<path fill="#fff" style="fill: var(--color1, #fff)" d="M129.5 10.968h-0.488v2.474h-2.287v-9.279h2.287v5.125h0.465l1.937-2.474h2.289v0.309l-2.243 2.795v0.276l2.413 2.938v0.309h-2.401l-1.971-2.474z"></path>
<path fill="#fff" style="fill: var(--color1, #fff)" d="M134.862 6.815h2.287v0.685c0.499-0.53 1.212-0.851 2.027-0.851v2.309c-0.181-0.044-0.476-0.066-0.691-0.066-0.611 0-1.177 0.32-1.325 0.906v3.645h-2.287v-6.628h-0.011z"></path>
<path fill="#fff" style="fill: var(--color1, #fff)" d="M147.389 13.443h-2.276v-0.619c-0.533 0.508-1.224 0.784-2.028 0.784-1.756 0-3.023-1.348-3.023-3.469s1.28-3.469 3.023-3.469c0.804 0 1.495 0.287 2.028 0.795v-0.652h2.276v6.628zM145.18 10.129c0-0.862-0.555-1.381-1.416-1.381s-1.416 0.519-1.416 1.381c0 0.862 0.555 1.381 1.416 1.381s1.416-0.519 1.416-1.381z"></path>
<path fill="#fff" style="fill: var(--color1, #fff)" d="M150.387 3.865c0.702 0 1.155 0.442 1.155 1.127 0 0.707-0.454 1.127-1.155 1.127-0.703 0-1.167-0.42-1.167-1.127 0-0.696 0.465-1.127 1.167-1.127zM149.242 6.815h2.276v6.628h-2.276v-6.628z"></path>
<path fill="#fff" style="fill: var(--color1, #fff)" d="M153.388 6.815h2.287v0.685c0.499-0.53 1.213-0.851 2.028-0.851 2.072 0 2.752 1.524 2.752 3.347v3.435h-2.289v-3.391c0-0.729-0.452-1.281-1.166-1.281-0.815 0-1.302 0.486-1.325 1.315v3.38h-2.287v-6.639z"></path>
<path fill="#fff" style="fill: var(--color1, #fff)" d="M169.269 10.957v0.42c-0.419 1.259-1.846 2.22-3.692 2.22-2.164 0-3.75-1.348-3.75-3.469s1.586-3.469 3.75-3.469c2.038 0 3.499 1.193 3.692 2.938v0.817h-5.12c0.114 0.729 0.658 1.171 1.428 1.171 0.555 0 1.042-0.199 1.302-0.641h2.39v0.011zM164.274 9.245h2.583c-0.227-0.464-0.658-0.729-1.292-0.729-0.588 0-1.053 0.265-1.291 0.729z"></path>
<path fill="#fff" style="fill: var(--color1, #fff)" d="M39.595 19.187h6.796v1.966h-4.485v1.458h4.304v1.955h-4.304v3.237h-2.31v-8.616z"></path>
<path fill="#fff" style="fill: var(--color1, #fff)" d="M50.151 24.588c0 0.729 0.453 1.281 1.167 1.281 0.827 0 1.337-0.519 1.337-1.381v-3.314h2.277v6.628h-2.277v-0.685c-0.521 0.541-1.212 0.851-2.027 0.851-2.073 0-2.752-1.524-2.752-3.347v-3.447h2.277v3.413z"></path>
<path fill="#fff" style="fill: var(--color1, #fff)" d="M56.81 21.175h2.288v0.685c0.498-0.53 1.212-0.851 2.027-0.851 2.073 0 2.752 1.524 2.752 3.347v3.435h-2.288v-3.402c0-0.729-0.453-1.281-1.167-1.281-0.815 0-1.303 0.486-1.325 1.315v3.38h-2.288v-6.628z"></path>
<path fill="#fff" style="fill: var(--color1, #fff)" d="M72.578 27.803h-2.277v-0.619c-0.532 0.508-1.223 0.784-2.027 0.784-1.756 0-3.024-1.348-3.024-3.468s1.28-3.469 3.024-3.469c0.804 0 1.495 0.287 2.027 0.795v-3.303h2.277v9.279zM67.549 24.489c0 0.862 0.555 1.381 1.416 1.381 0.849 0 1.416-0.519 1.416-1.381s-0.555-1.381-1.416-1.381-1.416 0.519-1.416 1.381z"></path>
<path fill="#fff" style="fill: var(--color1, #fff)" d="M74.267 25.649h2.458v2.165h-2.458v-2.165z"></path>
<path fill="#fff" style="fill: var(--color1, #fff)" d="M21.404 5.036c0.861-0.84 2.005-1.303 3.228-1.303s2.367 0.464 3.228 1.303 1.337 1.955 1.337 3.148c0 1.193-0.476 2.309-1.337 3.148-0.747 0.729-1.744 1.182-2.798 1.281l0.091 1.889c1.858-0.011 3.602-0.718 4.916-1.999 2.718-2.651 2.718-6.981 0-9.632-1.314-1.281-3.069-1.988-4.938-1.988s-3.624 0.707-4.938 1.999c-1.314 1.281-2.039 2.983-2.050 4.794l1.937 0.088c0.102-1.027 0.578-1.999 1.325-2.728z"></path>
<path fill="#fff" style="fill: var(--color1, #fff)" d="M11.151 27.626c-1.778 1.734-4.678 1.734-6.456 0s-1.778-4.562 0-6.296c0.748-0.729 1.744-1.182 2.798-1.281l-0.091-1.889c-1.857 0.011-3.602 0.718-4.916 1.999-2.718 2.651-2.718 6.981 0 9.632 1.359 1.326 3.149 1.988 4.938 1.988s3.579-0.663 4.938-1.988c1.314-1.281 2.039-2.983 2.050-4.794l-1.937-0.088c-0.113 1.016-0.578 1.988-1.325 2.717z"></path>
<path fill="#fff" style="fill: var(--color1, #fff)" d="M2.478 2.883c-2.718 2.651-2.718 6.981 0 9.632 1.314 1.281 3.058 1.988 4.916 1.999l0.091-1.889c-1.053-0.099-2.050-0.552-2.798-1.281-0.849-0.851-1.325-1.966-1.325-3.159s0.476-2.309 1.337-3.148c0.861-0.84 2.005-1.303 3.228-1.303s2.367 0.464 3.228 1.303c0.747 0.729 1.212 1.701 1.314 2.728l1.937-0.088c-0.011-1.812-0.736-3.513-2.050-4.794-2.718-2.662-7.147-2.662-9.876 0z"></path>
<path fill="#fff" style="fill: var(--color1, #fff)" d="M25.155 18.159l-0.091 1.889c1.053 0.099 2.050 0.552 2.798 1.281 0.861 0.84 1.336 1.955 1.336 3.148s-0.476 2.309-1.336 3.148c-0.895 0.873-2.061 1.303-3.228 1.303s-2.333-0.431-3.228-1.303c-0.748-0.729-1.212-1.701-1.314-2.728l-1.937 0.088c0.011 1.812 0.736 3.513 2.050 4.794 1.314 1.292 3.058 1.999 4.927 1.999s3.624-0.707 4.938-1.999c2.718-2.651 2.718-6.981 0-9.632-1.314-1.27-3.058-1.977-4.916-1.988z"></path>
<path fill="#fff" style="fill: var(--color1, #fff)" d="M24.894 22.754l-3.998-3.899c0.895-1.558 0.895-3.48 0-5.037l3.998-3.899c0.43-0.033 0.861-0.21 1.189-0.53 0.736-0.718 0.736-1.889 0-2.607s-1.937-0.718-2.673 0c-0.328 0.32-0.51 0.74-0.544 1.16l-3.998 3.899c-1.597-0.873-3.568-0.873-5.165 0l-4.009-3.91c-0.034-0.431-0.215-0.84-0.544-1.16-0.736-0.718-1.937-0.718-2.673 0s-0.736 1.889 0 2.607c0.328 0.32 0.748 0.497 1.178 0.53l3.998 3.899c-0.895 1.558-0.895 3.479 0 5.037l-3.998 3.899c-0.43 0.033-0.861 0.21-1.189 0.53-0.736 0.718-0.736 1.889 0 2.607s1.937 0.718 2.673 0c0.328-0.32 0.51-0.74 0.544-1.16l3.998-3.899c1.597 0.873 3.568 0.873 5.165 0l3.998 3.899c0.034 0.42 0.215 0.84 0.544 1.16 0.736 0.718 1.937 0.718 2.673 0s0.736-1.889 0-2.607c-0.306-0.309-0.736-0.486-1.167-0.519zM25.449 8.637c-0.317 0.309-0.816 0.342-1.167 0.088l1.269-1.237c0.249 0.354 0.215 0.84-0.102 1.149zM8.482 8.527l-1.269-1.237c0.351-0.254 0.849-0.221 1.167 0.088 0.328 0.32 0.362 0.806 0.102 1.149zM7.1 24.025c0.317-0.309 0.816-0.343 1.167-0.088l-1.257 1.226c-0.249-0.342-0.227-0.828 0.091-1.138zM24.169 25.273c-0.317-0.309-0.351-0.795-0.091-1.138l1.269 1.237c-0.362 0.243-0.861 0.21-1.178-0.099z"></path>
<path fill="#fff" style="fill: var(--color1, #fff)" d="M16.276 23.351c3.966 0 7.181-3.136 7.181-7.003s-3.215-7.003-7.181-7.003c-3.966 0-7.181 3.135-7.181 7.003s3.215 7.003 7.181 7.003z"></path>
<path fill="#fff" style="fill: var(--color1, #fff)" d="M14.921 15.618l-3.874-0.961v3.391l3.874-0.95v-1.48z"></path>
<path fill="#fff" style="fill: var(--color1, #fff)" d="M10.819 14.37v3.966l4.327-1.071v-1.823l-4.327-1.071zM11.283 17.761v-2.817l3.409 0.851v1.127l-3.409 0.84z"></path>
<path fill="#fff" style="fill: var(--color1, #fff)" d="M17.638 15.618l3.873-0.961v3.391l-3.873-0.95v-1.48z"></path>
<path fill="#fff" style="fill: var(--color1, #fff)" d="M17.584 15.408l-0.17 0.044v1.823l4.327 1.071v-3.966l-4.157 1.027zM17.867 16.921v-1.127l3.409-0.851v2.817l-3.409-0.84z"></path>
<path fill="#fff" style="fill: var(--color1, #fff)" d="M15.546 17.618l-0.985 3.778h3.477l-0.974-3.778h-1.518z"></path>
<path fill="#fff" style="fill: var(--color1, #fff)" d="M17.276 17.563l-0.045-0.166h-1.869l-1.099 4.22h4.066l-1.053-4.054zM14.852 21.175l0.872-3.325h1.155l0.861 3.325h-2.888z"></path>
<path fill="#fff" style="fill: var(--color1, #fff)" d="M15.528 15.042l-0.985-3.778h3.477l-0.974 3.778h-1.518z"></path>
<path fill="#fff" style="fill: var(--color1, #fff)" d="M14.25 11.043l1.065 4.054 0.045 0.166h1.869l1.099-4.22h-4.077zM15.7 14.821l-0.872-3.325h2.888l-0.861 3.325h-1.155z"></path>
<path fill="#fff" style="fill: var(--color1, #fff)" d="M18.725 16.347c0 1.326-1.099 2.386-2.446 2.386s-2.446-1.072-2.446-2.386c0-1.314 1.098-2.386 2.446-2.386s2.446 1.060 2.446 2.386z"></path>
<path fill="#fff" style="fill: var(--color1, #fff)" d="M16.273 14.312c-0.102 0.11-0.159 0.254-0.159 0.409 0.011 0.342 0.045 0.696 0.057 1.038 0.011 0.32-0.091 0.63-0.215 0.917-0.045 0.077-0.079 0.166-0.125 0.243l-0.125-0.022c-0.113-0.022-0.192-0.133-0.17-0.243 0.023-0.099 0.113-0.166 0.204-0.166h0.045l-0.102-0.839c-0.034-0.376-0.238-0.707-0.521-0.917-0.045-0.033-0.102-0.066-0.159-0.099v3.005h0.713c0.057 0.276 0.215 0.53 0.43 0.696 0.057 0.033 0.102 0.077 0.125 0.133 0.034-0.055 0.079-0.099 0.125-0.133 0.227-0.166 0.385-0.409 0.43-0.696h0.714v-3.005c-0.057 0.033-0.113 0.066-0.159 0.099-0.294 0.21-0.487 0.541-0.521 0.917l-0.102 0.839h0.045c0.102 0 0.193 0.066 0.204 0.166 0.023 0.11-0.057 0.221-0.17 0.243l-0.125 0.022c-0.045-0.077-0.091-0.155-0.125-0.243-0.125-0.298-0.215-0.597-0.215-0.917 0-0.342 0.045-0.696 0.057-1.038 0-0.155-0.057-0.298-0.159-0.409zM15.208 15.063c0.136 0.155 0.227 0.354 0.261 0.574l0.091 0.696c-0.113 0.055-0.193 0.155-0.227 0.265h-0.125v-1.535zM17.337 15.063v1.535h-0.125c-0.034-0.122-0.113-0.21-0.227-0.265l0.091-0.696c0.034-0.221 0.125-0.42 0.261-0.574zM16.273 16.455c0.057 0.177 0.136 0.353 0.238 0.519-0.091 0.022-0.17 0.077-0.238 0.155-0.057-0.077-0.136-0.122-0.238-0.155 0.102-0.155 0.181-0.331 0.238-0.519zM15.208 16.797h0.125c0.034 0.144 0.147 0.254 0.294 0.298l0.102 0.022c-0.023 0.099-0.045 0.199-0.045 0.298h-0.476v-0.619zM17.213 16.797h0.125v0.619h-0.476c0-0.11-0.011-0.21-0.045-0.298l0.102-0.022c0.147-0.044 0.261-0.155 0.294-0.298zM15.944 17.162c0.125 0.022 0.227 0.122 0.227 0.254h-0.261c-0.011-0.088 0-0.166 0.034-0.254zM16.613 17.162c0.023 0.077 0.034 0.166 0.034 0.254h-0.272c0-0.122 0.102-0.232 0.238-0.254zM15.922 17.626h0.238v0.431c-0.113-0.11-0.193-0.265-0.238-0.431zM16.375 17.626h0.238c-0.034 0.166-0.125 0.32-0.238 0.431v-0.431z"></path>
<path fill="#fff" style="fill: var(--color1, #fff)" d="M16.274 13.749c-1.472 0-2.662 1.171-2.662 2.596 0 1.436 1.201 2.596 2.662 2.596 1.472 0 2.662-1.171 2.662-2.596 0-1.436-1.189-2.596-2.662-2.596zM16.274 18.521c-1.235 0-2.243-0.983-2.243-2.187s1.008-2.187 2.243-2.187c1.235 0 2.243 0.983 2.243 2.187s-1.008 2.187-2.243 2.187z"></path>
</symbol>
<symbol id="united24" viewBox="0 0 329 32">
<path fill="#fff" style="fill: var(--color1, #fff)" d="M97.64 6.547h16.307v24.965h-16.307v-24.965zM30.334 17.105c0 3.566-1.976 5.243-6.212 5.243s-6.213-1.676-6.213-5.243v-10.557h-16.309v11.163c0 10.45 5.891 14.159 22.52 14.159s22.519-3.709 22.519-14.159v-11.163h-16.307v10.557h0.002zM115.673 15.82h13.648v15.693h16.307v-15.691h13.648v-9.275h-43.602v9.275l-0.002-0.002zM79.469 19.493l-12.751-12.946h-17.995v24.965h16.092v-12.946l12.751 12.946h17.994v-24.965h-16.091v12.946zM285.594 11.825c0-6.812-6.069-9.987-18.854-9.987-13.792 0-19.612 3.639-19.612 12.341h12.821c0-2.996 2.121-4.067 6.321-4.067s5.387 0.713 5.387 1.818c0 1.462-0.467 1.462-10.773 3.853-11.422 2.675-14.978 7.952-14.978 13.053v2.675h38.754v-8.097h-22.665c1.365-1.285 5.246-1.641 13.828-3.282 5.711-1.071 9.769-3.031 9.769-8.311l0.002 0.004zM161 31.513h37.101v-7.454h-21.514v-2.105h15.302v-5.85h-15.302v-2.104h21.514v-7.452h-37.101v24.965zM326.933 18.245v8.346h-5.818v4.921h-13.252v-4.921h-21.873v-8.418l15.693-15.334h19.43v15.407h5.82zM307.863 10.042l-8.369 8.204h8.369v-8.204zM246.447 19.030c0 8.381-5.316 12.483-16.271 12.483h-29.99v-24.965h29.99c10.955 0 16.271 4.102 16.271 12.483zM230.534 19.030c0-2.817-1.581-4.137-4.885-4.137h-9.553v8.274h9.553c3.305 0 4.885-1.32 4.885-4.137z"></path>
</symbol>
<symbol id="city24" viewBox="0 0 95 32">
<path fill="#fff" style="fill: var(--color1, #fff)" d="M19.988 8.126c-1.040 0-1.869-0.305-2.489-0.914-0.62-0.629-0.93-1.375-0.93-2.24s0.3-1.601 0.9-2.211c0.62-0.629 1.459-0.943 2.519-0.943s1.889 0.314 2.489 0.943c0.62 0.609 0.93 1.346 0.93 2.211s-0.31 1.611-0.93 2.24c-0.6 0.609-1.429 0.914-2.489 0.914z"></path>
<path fill="#fff" style="fill: var(--color1, #fff)" d="M59.216 24.425v-3.831c1.919-1.218 3.519-2.456 4.798-3.714 1.3-1.258 2.279-2.466 2.939-3.625s0.99-2.171 0.99-3.036c0-1.356-0.68-2.034-2.039-2.034-0.78 0-1.45 0.246-2.010 0.737-0.54 0.472-0.93 1.051-1.169 1.739l-4.169-2.269c0.36-1.022 0.93-1.916 1.71-2.682 0.779-0.786 1.719-1.395 2.819-1.827 1.1-0.452 2.289-0.678 3.569-0.678 1.479 0 2.749 0.275 3.808 0.825s1.869 1.307 2.429 2.269c0.56 0.943 0.83 2.024 0.81 3.242 0 1.729-0.54 3.468-1.62 5.217s-2.859 3.458-5.338 5.128h7.437v4.539h-14.965z"></path>
<path fill="#fff" style="fill: var(--color1, #fff)" d="M83.736 24.425v-4.48h-8.907v-3.861l10.436-12.644h4.049v12.29h2.999v4.215h-2.999v4.48h-5.578zM80.167 15.73h3.569v-4.303l-3.569 4.303z"></path>
<path fill="#fff" style="fill: var(--color1, #fff)" d="M9.192 24.749c-1.659 0-3.099-0.305-4.318-0.914-1.2-0.629-2.129-1.513-2.789-2.653s-0.99-2.476-0.99-4.008c0-1.592 0.36-2.996 1.080-4.215s1.709-2.171 2.969-2.859c1.28-0.688 2.749-1.032 4.408-1.032 1.459 0 2.729 0.275 3.809 0.825s1.899 1.366 2.459 2.446l-3.899 2.888c-0.38-0.943-1.12-1.415-2.219-1.415-0.86 0-1.549 0.305-2.069 0.914-0.52 0.59-0.78 1.375-0.78 2.358 0 0.923 0.23 1.641 0.69 2.152s1.12 0.766 1.979 0.766c1.1 0 1.929-0.501 2.489-1.503l3.749 3.036c-0.62 1.061-1.489 1.867-2.609 2.417-1.12 0.531-2.439 0.796-3.959 0.796z"></path>
<path fill="#fff" style="fill: var(--color1, #fff)" d="M22.808 9.276v15.149h-5.578v-15.149h5.578z"></path>
<path fill="#fff" style="fill: var(--color1, #fff)" d="M33.633 24.749c-2.039 0-3.639-0.54-4.798-1.621-1.16-1.1-1.729-2.535-1.709-4.303l0.090-5.040h-2.459v-4.509h2.549l0.060-3.065h5.518l-0.060 3.065h4.618v4.509h-4.678l-0.060 4.392c-0.020 0.609 0.14 1.081 0.48 1.415 0.36 0.314 0.85 0.471 1.469 0.471 0.42 0 0.84-0.049 1.26-0.147 0.42-0.118 0.85-0.324 1.29-0.619l1.559 4.126c-0.5 0.413-1.189 0.737-2.069 0.973s-1.899 0.354-3.059 0.354z"></path>
<path fill="#fff" style="fill: var(--color1, #fff)" d="M45.666 30.614c-0.64 0-1.339-0.049-2.099-0.147-0.74-0.079-1.46-0.216-2.159-0.413-0.68-0.196-1.249-0.442-1.709-0.737l1.319-4.657c0.76 0.373 1.529 0.658 2.309 0.855 0.8 0.216 1.689 0.324 2.669 0.324 1.58 0 2.709-0.334 3.389-1.002s1.080-1.71 1.2-3.124l0.060-0.737c-0.6 0.943-1.349 1.69-2.249 2.24s-1.929 0.825-3.089 0.825c-1.939 0-3.369-0.629-4.288-1.886s-1.369-2.996-1.35-5.217l0.030-7.663h5.578l-0.030 7.309c0 0.786 0.15 1.375 0.45 1.768 0.32 0.393 0.76 0.589 1.32 0.589 0.7 0 1.29-0.285 1.77-0.855 0.5-0.589 0.89-1.582 1.17-2.977 0.3-1.415 0.47-3.36 0.51-5.836h5.398v11.848c0 2.201-0.43 3.999-1.29 5.394-0.84 1.395-2.029 2.427-3.569 3.095-1.519 0.668-3.299 1.002-5.338 1.002z"></path>
</symbol>
<symbol id="birds" viewBox="0 0 32 32">
<path fill="#fff" style="fill: var(--color1, #fff)" d="M15.421 23.262c-5.357 0-9.7-4.343-9.7-9.7h-3.387c0 7.227 5.859 13.086 13.087 13.086s13.087-5.859 13.087-13.086h-3.387c0 5.357-4.343 9.7-9.7 9.7z"></path>
<path fill="#fff" style="fill: var(--color1, #fff)" d="M16.897 3.942c5.357 0 9.7 4.343 9.7 9.7h3.387c0-7.228-5.859-13.087-13.087-13.087s-13.087 5.859-13.087 13.087h3.387c0-5.357 4.343-9.7 9.7-9.7z"></path>
<path fill="#fff" style="fill: var(--color1, #fff)" d="M10.596 28.662v2.625h-0.735v-1.937h-1.265v1.937h-0.735v-2.625h2.735z"></path>
<path fill="#fff" style="fill: var(--color1, #fff)" d="M11.945 29.349h-0.987v-0.688h2.724v0.688h-1.003v1.937h-0.735v-1.937z"></path>
<path fill="#fff" style="fill: var(--color1, #fff)" d="M15.32 30.709c0.394 0 0.667-0.294 0.667-0.735 0-0.436-0.273-0.735-0.667-0.735-0.409 0-0.693 0.299-0.693 0.735s0.283 0.735 0.693 0.735zM16.071 31.286l-0.079-0.388c-0.21 0.294-0.525 0.467-0.892 0.467-0.688 0-1.207-0.593-1.207-1.386 0-0.803 0.514-1.396 1.207-1.396 0.367 0 0.682 0.173 0.892 0.467l0.079-0.388h0.651v2.625h-0.651z"></path>
<path fill="#fff" style="fill: var(--color1, #fff)" d="M19.914 31.286h-0.861l-0.567-0.751-0.562 0.751h-0.871l1.003-1.328-0.976-1.297h0.866l0.541 0.719 0.541-0.719h0.866l-0.971 1.297 0.992 1.328z"></path>
<path fill="#fff" style="fill: var(--color1, #fff)" d="M22.291 31.286v-1.517l-1.428 1.517h-0.619v-2.625h0.735v1.506l1.438-1.506h0.609v2.625h-0.735z"></path>
</symbol>
<symbol id="vodafone" viewBox="0 0 112 32">
<path fill="#fff" style="fill: var(--color1, #fff)" d="M28.894 15.849c0 7.445-5.944 13.481-13.279 13.481s-13.281-6.036-13.281-13.481c0-7.445 5.946-13.481 13.281-13.481s13.279 6.036 13.279 13.481z"></path>
<path fill="#fff" style="fill: var(--color1, #fff)" d="M15.717 23.366c-3.648 0.013-7.445-3.148-7.462-8.225-0.012-3.356 1.774-6.588 4.053-8.505 2.225-1.867 5.273-3.069 8.035-3.079 0.356 0 0.73 0.030 0.956 0.109-2.416 0.508-4.338 2.791-4.331 5.379 0 0.087 0.007 0.178 0.017 0.22 4.043 1.001 5.878 3.477 5.89 6.902 0.010 3.428-2.654 7.182-7.159 7.197z"></path>
<path fill="#fff" style="fill: var(--color1, #fff)" d="M37.47 21.432l-4.060-9.835h2.652l2.533 6.531 2.455-6.531h2.533l-3.941 9.835-2.172-0zM50.649 16.463c0-0.409-0.046-0.798-0.141-1.166-0.093-0.369-0.234-0.686-0.422-0.951-0.188-0.267-0.415-0.478-0.683-0.634-0.268-0.158-0.583-0.238-0.944-0.238s-0.678 0.079-0.944 0.238c-0.269 0.156-0.498 0.367-0.683 0.634-0.188 0.265-0.329 0.582-0.422 0.951-0.095 0.369-0.141 0.758-0.141 1.167 0 0.423 0.046 0.817 0.141 1.179 0.093 0.362 0.229 0.679 0.41 0.951s0.41 0.488 0.686 0.646c0.273 0.156 0.593 0.235 0.954 0.235s0.676-0.079 0.944-0.235c0.268-0.159 0.495-0.374 0.683-0.646s0.33-0.589 0.422-0.951c0.095-0.362 0.142-0.755 0.142-1.179zM53.101 16.474c0 0.641-0.098 1.27-0.29 1.89-0.195 0.619-0.483 1.172-0.866 1.662-0.381 0.49-0.864 0.884-1.447 1.184s-1.264 0.448-2.040 0.448c-0.778 0-1.459-0.149-2.040-0.448-0.583-0.3-1.066-0.694-1.449-1.184-0.38-0.49-0.669-1.043-0.864-1.662-0.193-0.619-0.291-1.248-0.291-1.89 0-0.639 0.098-1.263 0.291-1.877 0.195-0.612 0.483-1.159 0.864-1.642 0.383-0.483 0.866-0.869 1.449-1.162 0.581-0.292 1.262-0.441 2.040-0.441 0.776 0 1.454 0.149 2.030 0.441s1.059 0.679 1.447 1.162c0.39 0.483 0.681 1.030 0.876 1.642 0.193 0.614 0.29 1.238 0.29 1.877zM60.589 13.761c-0.481-0.191-0.927-0.287-1.342-0.287-0.424 0-0.793 0.084-1.098 0.248-0.307 0.163-0.561 0.384-0.761 0.664s-0.349 0.594-0.449 0.944c-0.101 0.349-0.152 0.711-0.151 1.075 0 0.409 0.044 0.8 0.132 1.176 0.086 0.374 0.22 0.703 0.401 0.983 0.178 0.28 0.405 0.505 0.678 0.676 0.273 0.168 0.598 0.255 0.971 0.255 0.307 0 0.62-0.087 0.939-0.255 0.32-0.171 0.547-0.374 0.681-0.604v-4.874zM60.789 21.432l-0.1-0.753c-0.227 0.258-0.527 0.485-0.903 0.681-0.373 0.198-0.815 0.297-1.322 0.297-0.666 0-1.257-0.144-1.762-0.428-0.51-0.285-0.937-0.666-1.284-1.142s-0.612-1.028-0.793-1.654c-0.178-0.624-0.269-1.278-0.269-1.959-0.001-0.636 0.093-1.269 0.278-1.877 0.188-0.612 0.471-1.159 0.852-1.642 0.383-0.483 0.859-0.869 1.435-1.162 0.573-0.292 1.249-0.441 2.023-0.441 0.508 0 1.056 0.097 1.644 0.285v-3.814h2.491v13.609h-2.291zM70.098 16.82c-0.269 0.014-0.547 0.040-0.83 0.072-0.271 0.033-0.54 0.077-0.808 0.134-0.542 0.109-0.915 0.295-1.125 0.56-0.207 0.267-0.312 0.555-0.312 0.869 0 0.324 0.117 0.587 0.354 0.785 0.237 0.196 0.568 0.295 1 0.295 0.325 0.001 0.645-0.069 0.942-0.203 0.303-0.136 0.564-0.307 0.778-0.51v-2.001zM70.298 21.424l-0.098-0.736c-0.271 0.302-0.612 0.54-1.029 0.711s-0.874 0.258-1.372 0.258c-0.417 0-0.82-0.072-1.2-0.216-0.386-0.141-0.725-0.347-1.020-0.612s-0.534-0.589-0.715-0.978c-0.183-0.389-0.273-0.827-0.273-1.318 0-0.488 0.093-0.921 0.283-1.295 0.188-0.374 0.442-0.689 0.766-0.949 0.322-0.258 0.693-0.468 1.11-0.632 0.415-0.163 0.854-0.287 1.31-0.369 0.322-0.067 0.676-0.116 1.059-0.151s0.703-0.064 0.959-0.092v-0.144c0-0.545-0.136-0.931-0.415-1.164-0.276-0.23-0.656-0.347-1.14-0.347-0.283 0-0.554 0.035-0.81 0.104-0.256 0.067-0.483 0.151-0.686 0.253-0.203 0.104-0.38 0.206-0.537 0.307-0.154 0.102-0.278 0.193-0.373 0.275l-0.825-1.773c0.107-0.097 0.271-0.211 0.493-0.347s0.488-0.27 0.805-0.399c0.315-0.129 0.669-0.238 1.064-0.327s0.822-0.134 1.276-0.134c0.537 0 1.027 0.072 1.469 0.215s0.825 0.367 1.147 0.674c0.32 0.305 0.571 0.691 0.754 1.162 0.18 0.468 0.271 1.035 0.271 1.701v6.32h-2.274zM80.273 10.066c-0.080-0.040-0.237-0.099-0.471-0.173-0.237-0.074-0.546-0.111-0.937-0.111-0.347 0-0.639 0.107-0.874 0.317s-0.351 0.555-0.351 1.030v0.468h2.091v2.041h-2.072v7.794h-2.494v-7.794h-1.286v-2.041h1.286v-0.53c0-0.639 0.081-1.179 0.242-1.622 0.162-0.441 0.385-0.802 0.674-1.080 0.288-0.28 0.627-0.485 1.015-0.614 0.391-0.129 0.813-0.193 1.269-0.193 0.603 0 1.1 0.057 1.496 0.173s0.627 0.193 0.693 0.235l-0.281 2.1zM87.068 16.463c0-0.409-0.048-0.798-0.141-1.166s-0.234-0.686-0.422-0.951c-0.188-0.267-0.415-0.478-0.683-0.634-0.269-0.158-0.583-0.238-0.944-0.238s-0.679 0.079-0.944 0.238c-0.269 0.156-0.498 0.367-0.685 0.634-0.186 0.265-0.327 0.582-0.423 0.951-0.092 0.369-0.138 0.758-0.138 1.167 0 0.423 0.046 0.817 0.138 1.179 0.095 0.362 0.232 0.679 0.412 0.951s0.411 0.488 0.684 0.646c0.275 0.156 0.595 0.235 0.956 0.235s0.676-0.079 0.944-0.235c0.268-0.159 0.495-0.374 0.683-0.646s0.329-0.589 0.422-0.951c0.093-0.362 0.141-0.755 0.141-1.179zM89.52 16.474c0 0.641-0.097 1.27-0.292 1.89-0.193 0.619-0.481 1.172-0.864 1.662-0.38 0.49-0.863 0.884-1.447 1.184s-1.264 0.448-2.040 0.448c-0.778 0-1.459-0.149-2.040-0.448-0.583-0.3-1.066-0.694-1.45-1.184-0.38-0.49-0.668-1.043-0.863-1.662-0.194-0.611-0.292-1.248-0.29-1.89 0-0.639 0.094-1.263 0.29-1.877 0.195-0.612 0.483-1.159 0.863-1.642 0.383-0.483 0.866-0.869 1.45-1.162 0.58-0.292 1.261-0.441 2.040-0.441 0.776 0 1.454 0.149 2.030 0.441s1.059 0.679 1.447 1.162c0.391 0.483 0.681 1.030 0.874 1.642 0.195 0.614 0.292 1.238 0.292 1.877zM97.258 21.432v-5.61c0-0.748-0.154-1.327-0.461-1.736-0.31-0.406-0.737-0.612-1.288-0.612-0.388 0-0.747 0.101-1.074 0.307-0.33 0.203-0.615 0.428-0.857 0.674v6.977h-2.491v-9.835h2.271l0.12 0.775c0.392-0.327 0.838-0.582 1.317-0.753 0.488-0.178 0.981-0.265 1.476-0.265 0.51 0 0.979 0.077 1.408 0.233 0.429 0.159 0.798 0.406 1.105 0.745 0.31 0.339 0.546 0.783 0.715 1.325 0.166 0.545 0.252 1.199 0.252 1.959v5.815h-2.494zM107.506 15.332c-0.027-0.339-0.097-0.636-0.212-0.887-0.115-0.253-0.256-0.456-0.424-0.612-0.169-0.159-0.349-0.272-0.545-0.349-0.197-0.074-0.395-0.111-0.598-0.111-0.432 0-0.842 0.163-1.232 0.49s-0.62 0.815-0.688 1.469l3.699-0zM103.748 17.147c0.054 0.83 0.307 1.429 0.766 1.796 0.457 0.367 1.050 0.552 1.774 0.552 0.337 0 0.654-0.032 0.95-0.092 0.295-0.062 0.559-0.139 0.788-0.235 0.229-0.094 0.424-0.191 0.586-0.285 0.161-0.096 0.281-0.186 0.363-0.267l0.664 2.063c-0.095 0.067-0.246 0.158-0.454 0.275s-0.466 0.223-0.773 0.327c-0.307 0.102-0.671 0.188-1.086 0.265-0.415 0.074-0.871 0.111-1.366 0.111-0.633 0-1.23-0.102-1.801-0.305-0.569-0.206-1.069-0.523-1.496-0.951-0.429-0.428-0.771-0.961-1.025-1.6-0.257-0.639-0.383-1.402-0.383-2.286 0-0.83 0.118-1.565 0.352-2.204s0.556-1.176 0.963-1.612c0.41-0.434 0.886-0.768 1.427-1.001 0.545-0.23 1.123-0.347 1.74-0.347s1.186 0.104 1.711 0.307c0.522 0.203 0.973 0.52 1.357 0.948 0.38 0.428 0.683 0.983 0.903 1.664 0.222 0.679 0.332 1.489 0.332 2.427v0.448l-6.291 0z"></path>
</symbol>
<symbol id="support-right-hand-desk" viewBox="0 0 56 32">
<path fill="#7ac76b" style="fill: var(--color1, #7ac76b)" d="M21.512 23.811c0.424 1.173 0.223 2.27-0.491 3.252-0.41 0.564-0.9 1.080-1.409 1.559-0.758 0.713-1.677 0.786-2.629 0.463-1.041-0.354-1.888-1.008-2.67-1.771-0.924-0.902-1.583-1.983-2.229-3.083-0.26-0.442-0.578-0.829-0.935-1.178l-2.903 4.863c0.352 0.55 0.698 1.104 1.044 1.658l0 0c0.354 0.566 0.708 1.131 1.067 1.693 0.701 1.096 1.522 2.084 2.585 2.859 2.611 1.906 6.442 2.972 8.545 2.366 0.050-0.015 0.103-0.029 0.157-0.044h0c0.787-0.215 2.028-0.555 4.755-3.549 2.916-3.201 2.353-6.308 2.149-7.315-0.246-1.214-0.858-2.394-1.428-3.491-0.953-1.835-1.787-3.44-0.585-4.593 1.732-1.662 4.035 0.479 5.786 2.105 0.19 0.177 0.374 0.348 0.55 0.507 1.793 1.623 5.57 7.761 5.57 7.761 4.057 5.026 6.44 6.253 22.364 8.619l3.753-8.577c-18.054 2.798-22.821-6.33-24.089-8.309s-4.564-6.287-6.994-7.941c-6.522-5.515-18.747 0.076-14.369 8.608 0.205 0.4 0.625 0.945 1.062 1.511 0.562 0.728 1.15 1.492 1.344 2.027z"></path>
<path fill="#7ac76b" style="fill: var(--color1, #7ac76b)" d="M7.966 18.067c0 0-2.237-3.604-4.483-1.285l0.086 0.046c-0.823-0.119-1.677 0.054-2.4 0.831-0.408 0.44-0.812 1.364 0.533 1.526-1.005 0.667-2.089 2.649-1.497 2.993 0.488 0.283 1.083-0.055 1.701-0.407 0.769-0.437 1.849-0.885 2.526-0.189 0.943 0.97 0.863 1.969 0 2.93s-3.486 1.193-3.892 1.321c-1.109 1.48 2.091 1.48 6.065 1.173 0.799 0.491 1.091 0.229 2.422 2.131l2.7-5.414c-0.681-1.438-3.215-5.64-3.762-5.656z"></path>
<path fill="#64b154" style="fill: var(--color2, #64b154)" d="M5.597 19.55c0.034 0 0.066-0.018 0.084-0.049 0.026-0.046 0.009-0.105-0.037-0.131-0.778-0.433-2.746-1.31-4.204-0.11-0.041 0.034-0.047 0.094-0.013 0.135s0.094 0.047 0.135 0.013c1.366-1.125 3.244-0.284 3.989 0.13 0.014 0.009 0.031 0.012 0.047 0.012v-0.001z"></path>
<path fill="#64b154" style="fill: var(--color2, #64b154)" d="M6.818 18.646c0.024 0 0.048-0.009 0.067-0.027 0.038-0.037 0.038-0.098 0.002-0.135-0.939-0.965-2.104-1.561-3.46-1.769-0.052-0.009-0.102 0.028-0.11 0.081s0.028 0.102 0.081 0.11c1.314 0.202 2.442 0.778 3.352 1.713 0.019 0.019 0.044 0.029 0.069 0.029h-0.001z"></path>
</symbol>
<symbol id="support-left-hand-desk" viewBox="0 0 39 32">
<path fill="#7ac76b" style="fill: var(--color1, #7ac76b)" d="M13.275 7.565c-1.39 1.398-2.211 3.043-2.3 5.029-0.006 0.124-0.012 0.243-0.018 0.358l-0 0.001c-0.057 1.093-0.096 1.83 0.611 3.44 0.353 0.803 0.951 1.304 1.535 1.791 0.709 0.592 1.395 1.165 1.591 2.24 0.666 3.652-2.090 4.327-7.296 5.602-0.281 0.069-0.569 0.139-0.864 0.212l1.645 5c0.333-0.11 0.773-0.221 1.342-0.331 4.527-0.871 9.933-3.478 11.131-6.538 1.821-4.65-0.213-6.987-1.638-8.624-0.161-0.185-0.314-0.361-0.453-0.53l-0-0-0-0c-0.349-0.418-0.697-0.835-1.018-1.273-0.606-0.825-0.541-1.636 0.129-2.351 1.006-1.073 2.244-1.69 3.713-1.828 1.209-0.114 2.379 0.096 3.533 0.431 0.188 0.055 0.375 0.114 0.563 0.172h0c0.419 0.132 0.839 0.264 1.268 0.349 0.546 0.108 1.085 0.172 1.619 0.194l0.424-4.139c-1.032 0.071-2.041-0.084-3.022-0.376-1.318-0.393-2.63-0.812-3.927-1.269-1.5-0.528-2.998-0.517-4.496-0.061-1.57 0.478-2.913 1.336-4.071 2.501z"></path>
<path fill="#7ac76b" style="fill: var(--color1, #7ac76b)" d="M30.59 6.229c-0.51 0.318-1.113 0.494-1.799 0.541l-0.424 4.139c1.906 0.081 3.018 0 4.714-0.975l-2.491-3.705z"></path>
<path fill="#7ac76b" style="fill: var(--color1, #7ac76b)" d="M36.689 0.943c-1.81-1.869-3.613 1.036-3.613 1.036-0.44 0.013-2.060 2.931-2.609 4.091-0.115 0.242-0.385 0.53-0.92 0.999l3.53 2.861c0.347-0.261 0.709-0.509 1.097-0.747 3.203 0.248 5.781 0.248 4.888-0.945-0.069-0.022-0.217-0.047-0.414-0.081-0.74-0.127-2.173-0.372-2.722-0.984-0.696-0.774-0.76-1.579 0-2.361 0.545-0.561 1.416-0.2 2.035 0.152 0.498 0.283 0.977 0.556 1.371 0.328 0.477-0.277-0.397-1.875-1.207-2.412 1.084-0.13 0.759-0.875 0.43-1.229-0.582-0.626-1.27-0.766-1.934-0.67l0.069-0.037z"></path>
<path fill="#64b154" style="fill: var(--color2, #64b154)" d="M34.985 3.173c-0.027 0-0.053-0.015-0.067-0.039-0.021-0.037-0.007-0.084 0.030-0.105 0.627-0.349 2.213-1.056 3.388-0.089 0.033 0.027 0.038 0.076 0.011 0.109s-0.076 0.038-0.109 0.011c-1.101-0.907-2.614-0.229-3.214 0.104-0.012 0.007-0.025 0.010-0.038 0.010v-0.001z"></path>
<path fill="#64b154" style="fill: var(--color2, #64b154)" d="M34.001 2.444c-0.019 0-0.039-0.007-0.054-0.022-0.031-0.030-0.031-0.079-0.002-0.109 0.757-0.778 1.695-1.258 2.788-1.426 0.042-0.007 0.082 0.022 0.088 0.065s-0.022 0.082-0.065 0.088c-1.059 0.163-1.968 0.627-2.701 1.38-0.016 0.015-0.036 0.023-0.056 0.023h0.001z"></path>
</symbol>
<symbol id="support-right-hand-mobile" viewBox="0 0 37 32">
<path fill="#7ac76b" style="fill: var(--color1, #7ac76b)" d="M16.745 14.435c0.331 0.915 0.174 1.77-0.383 2.535-0.32 0.439-0.702 0.842-1.099 1.215-0.591 0.556-1.308 0.613-2.050 0.361-0.812-0.276-1.472-0.786-2.082-1.381-0.72-0.704-1.235-1.546-1.738-2.404-0.203-0.345-0.451-0.647-0.729-0.919l-2.263 3.792c0.274 0.429 0.544 0.861 0.814 1.293l0 0c0.276 0.441 0.552 0.882 0.832 1.32 0.547 0.855 1.187 1.625 2.016 2.23 2.036 1.486 5.023 2.318 6.663 1.845 0.039-0.011 0.080-0.022 0.123-0.034h0c0.613-0.168 1.581-0.433 3.708-2.767 2.274-2.496 1.835-4.919 1.675-5.704-0.192-0.947-0.669-1.866-1.114-2.722-0.743-1.431-1.393-2.682-0.456-3.582 1.35-1.296 3.147 0.373 4.512 1.642 0.148 0.138 0.292 0.271 0.429 0.395 1.398 1.265 4.683 6.785 4.683 6.785l1.123-0.268 3.652-2.615c0 0-3.657-5.981-8.987-10.488-5.086-4.3-14.619 0.059-11.205 6.713 0.16 0.312 0.488 0.737 0.828 1.178 0.438 0.568 0.897 1.163 1.048 1.581z"></path>
<path fill="#7ac76b" style="fill: var(--color1, #7ac76b)" d="M6.183 9.957c0 0-1.745-2.811-3.496-1.002l0.067 0.036c-0.642-0.093-1.308 0.042-1.871 0.648-0.318 0.343-0.633 1.064 0.416 1.19-0.784 0.52-1.629 2.066-1.167 2.334 0.381 0.221 0.845-0.043 1.327-0.317 0.599-0.341 1.442-0.69 1.969-0.147 0.736 0.757 0.673 1.536 0 2.285s-2.718 0.931-3.035 1.030c-0.864 1.154 1.631 1.154 4.729 0.915 0.623 0.383 0.851 0.179 1.889 1.662l2.106-4.221c-0.531-1.122-2.507-4.398-2.933-4.411z"></path>
<path fill="#64b154" style="fill: var(--color2, #64b154)" d="M4.336 11.112c0.026 0 0.052-0.014 0.065-0.038 0.020-0.036 0.007-0.082-0.029-0.102-0.607-0.338-2.142-1.022-3.278-0.086-0.032 0.026-0.037 0.073-0.010 0.106s0.073 0.037 0.106 0.010c1.065-0.877 2.53-0.222 3.11 0.101 0.011 0.007 0.024 0.010 0.037 0.010v-0.001z"></path>
<path fill="#64b154" style="fill: var(--color2, #64b154)" d="M5.288 10.408c0.019 0 0.037-0.007 0.052-0.021 0.030-0.029 0.030-0.076 0.002-0.106-0.733-0.753-1.64-1.217-2.698-1.38-0.040-0.007-0.079 0.022-0.085 0.063s0.022 0.079 0.063 0.085c1.025 0.157 1.904 0.607 2.613 1.336 0.015 0.015 0.034 0.022 0.054 0.022h-0.001z"></path>
</symbol>
<symbol id="support-left-hand-mobile" viewBox="0 0 40 32">
<path fill="#7ac76b" style="fill: var(--color1, #7ac76b)" d="M13.271 7.563c-1.389 1.398-2.211 3.042-2.3 5.027-0.006 0.124-0.012 0.243-0.018 0.358v0.001c-0.057 1.093-0.096 1.83 0.611 3.439 0.353 0.803 0.951 1.303 1.534 1.791 0.708 0.592 1.394 1.165 1.59 2.239 0.666 3.651-2.089 4.326-7.294 5.6-0.281 0.069-0.569 0.139-0.864 0.212l1.645 4.999c0.333-0.11 0.773-0.221 1.342-0.33 4.526-0.871 9.93-3.477 11.128-6.536 1.821-4.648-0.213-6.985-1.637-8.622-0.161-0.185-0.314-0.36-0.453-0.53l-0-0c-0.348-0.418-0.697-0.835-1.018-1.273-0.605-0.825-0.541-1.635 0.129-2.35 1.006-1.073 2.243-1.689 3.712-1.827 1.208-0.114 2.378 0.096 3.532 0.431 0.188 0.055 0.375 0.113 0.562 0.172v0h0c0.419 0.132 0.839 0.264 1.267 0.348 0.546 0.108 1.085 0.171 1.618 0.194l0.424-4.138c-1.031 0.071-2.041-0.084-3.021-0.376-1.318-0.393-2.629-0.812-3.926-1.268-1.499-0.527-2.997-0.517-4.495-0.061-1.569 0.478-2.912 1.336-4.070 2.5z"></path>
<path fill="#7ac76b" style="fill: var(--color1, #7ac76b)" d="M30.581 6.227c-0.51 0.317-1.113 0.494-1.799 0.541l-0.424 4.138c1.906 0.081 3.018 0 4.713-0.975l-2.491-3.703z"></path>
<path fill="#7ac76b" style="fill: var(--color1, #7ac76b)" d="M36.678 0.942c-1.809-1.868-3.612 1.036-3.612 1.036-0.44 0.013-2.060 2.931-2.609 4.089-0.114 0.242-0.385 0.53-0.92 0.999l3.529 2.86c0.347-0.261 0.709-0.508 1.097-0.747 3.202 0.248 5.779 0.248 4.886-0.945-0.069-0.022-0.217-0.047-0.414-0.081-0.74-0.127-2.172-0.372-2.721-0.983-0.695-0.774-0.76-1.579 0-2.36 0.545-0.561 1.415-0.2 2.035 0.152 0.498 0.283 0.977 0.556 1.371 0.328 0.477-0.277-0.397-1.874-1.206-2.412 1.084-0.13 0.758-0.875 0.43-1.229-0.582-0.626-1.27-0.765-1.933-0.669l0.069-0.037z"></path>
<path fill="#64b154" style="fill: var(--color2, #64b154)" d="M34.974 3.172c-0.027 0-0.053-0.015-0.067-0.039-0.021-0.037-0.007-0.084 0.030-0.105 0.627-0.349 2.213-1.056 3.387-0.089 0.033 0.027 0.038 0.076 0.011 0.109s-0.076 0.038-0.109 0.011c-1.1-0.906-2.613-0.229-3.213 0.104-0.012 0.007-0.025 0.010-0.038 0.010v-0.001z"></path>
<path fill="#64b154" style="fill: var(--color2, #64b154)" d="M33.991 2.444c-0.019 0-0.039-0.007-0.054-0.022-0.031-0.030-0.031-0.079-0.002-0.109 0.757-0.778 1.695-1.258 2.788-1.426 0.042-0.007 0.082 0.022 0.088 0.065s-0.022 0.082-0.065 0.088c-1.059 0.163-1.967 0.627-2.7 1.38-0.016 0.015-0.036 0.023-0.056 0.023h0.001z"></path>
</symbol>
<symbol id="heart" viewBox="0 0 35 32">
<path fill="#f04a4a" style="fill: var(--color1, #f04a4a)" d="M27.776 23.22c1.869-1.806 3.688-3.936 5.018-6.286l0.472-0.887c1.41-2.818 2.074-5.922 1.282-9.143-0.745-3.030-3.329-5.835-6.448-5.929-7.764-0.233-10.376 8.437-10.376 8.437s-1.119-8.787-7.657-8.952c-3.404-0.086-6.779 1.862-8.432 4.839-2.034 3.664-0.945 8.185 0.944 11.826l0.472 0.865c0.194 0.337 0.393 0.665 0.596 0.982 0.221 0.344 0.453 0.681 0.696 1.009 1.414 1.913 3.161 3.549 4.898 5.173 1.92 1.796 3.84 3.591 5.759 5.387 0.484 0.453 1.041 0.935 1.704 0.92 0.457-0.010 0.87-0.259 1.255-0.504 3.521-2.241 6.815-4.837 9.816-7.737z"></path>
</symbol>
<symbol id="footer-logo" viewBox="0 0 81 32">
<path fill="#f47920" style="fill: var(--color1, #f47920)" d="M80.645 10.637c0.020-1.412-0.465-2.784-1.368-3.875-1.586-1.763-4.198-1.933-6.021-1.886-2.527 0-29.708 0.943-32.804 1.094h-0.171c0-0.104 0-0.198 0-0.198-0.168-1.196-0.69-2.315-1.501-3.215-0.756-0.778-1.681-1.374-2.705-1.742s-2.119-0.498-3.202-0.379c-3.695 0.141-6.24 2.697-7.427 4.215l-0.095 0.123-0.152-0.057c-2.678-0.871-5.545-0.999-8.291-0.368-3.486 0.761-6.756 2.285-9.573 4.46-5.024 4.149-7.598 9.099-7.313 13.927 0.084 1.368 0.474 2.7 1.143 3.899s1.599 2.235 2.722 3.031c3.856 2.829 10.143 2.093 12.67 1.631 2.849-0.528 47.022-9.109 52.816-10.306 5.281-1.084 10.295-2.951 11.197-9.165 0.054-0.372 0.079-0.747 0.076-1.122v-0.066z"></path>
<path fill="#fff" style="fill: var(--color2, #fff)" d="M32.995 9.411c1.539-0.094 3.039-0.802 3.144-2.395 0.066-1.066-0.788-2.159-2.469-2.225-0.858-0.063-1.712 0.173-2.412 0.669-0.485 0.352-0.823 0.869-0.95 1.452-0.093 0.284-0.116 0.587-0.068 0.882s0.166 0.575 0.344 0.816c0.305 0.32 0.685 0.56 1.105 0.7s0.869 0.175 1.307 0.102z"></path>
<path fill="#fff" style="fill: var(--color2, #fff)" d="M77.255 11.307c-0.093 0.242-0.236 0.463-0.419 0.648s-0.403 0.33-0.645 0.427h-0.19c0 0 0.151-1.075 0.151-1.405 0-1.471-0.361-3.017-2.687-2.829-1.002 0.137-1.924 0.617-2.607 1.358s-1.085 1.694-1.135 2.697c-0.005 0.018-0.005 0.038 0 0.057-0.342 0.943-0.95 2.225-1.434 2.291-0.046 0.006-0.093 0.001-0.138-0.014s-0.085-0.039-0.119-0.071c-0.048-0.050-0.084-0.11-0.107-0.175s-0.031-0.134-0.025-0.203c0.044-0.434 0.126-0.863 0.247-1.282 0.188-0.73 0.315-1.474 0.379-2.225 0.143-1.81-0.95-2.15-2.127-2.046-0.712 0.062-1.381 0.361-1.9 0.849l-0.408 0.481c0 0 0.171-0.943 0.228-1.141l-2.574 0.198-0.845 3.687c-0.272 0.404-0.663 0.714-1.121 0.886h-0.171v-0.179c-0.017-0.188-0.049-0.374-0.095-0.556-0.066-0.415-0.456-1.82-1.833-1.678-3.562 0.349-3.391 4.715-1.273 4.083l0.247-0.085v0.264c-0.256 1.744-0.997 2.678-2.013 2.829-0.075 0.010-0.152 0.003-0.224-0.019s-0.139-0.061-0.194-0.113c-0.103-0.116-0.182-0.253-0.231-0.4s-0.067-0.303-0.054-0.458c0-0.858 1.605-8.005 1.605-8.005l-3.305 0.179c-0.152 0.651-0.798 3.489-0.798 3.498l-0.095 0.368c-0.123 0.49-0.209 0.811-0.266 1.141v0.066c-0.503 1.348-1.387 2.829-2.070 2.914-0.063 0.008-0.128 0.002-0.188-0.018s-0.116-0.052-0.163-0.095c-0.053-0.051-0.095-0.113-0.123-0.181s-0.041-0.141-0.039-0.215l0.047-0.585c0 0 1.653-6.402 1.767-6.827l-3.799 0.132-0.323 1.169c-0.131-0.341-0.344-0.644-0.621-0.883s-0.609-0.407-0.967-0.488c-0.358-0.081-0.73-0.073-1.084 0.023s-0.679 0.277-0.946 0.527c-1.577 1.461-1.975 3.611-2.184 5.733v0.075c-0.294 2.546-0.855 4.3-2.64 4.564-0.349 0.076-0.714 0.033-1.035-0.123 0.51-0.354 0.94-0.81 1.263-1.339 0.146-0.185 0.253-0.398 0.314-0.626s0.074-0.465 0.039-0.698c-0.035-0.233-0.117-0.456-0.241-0.657s-0.289-0.374-0.482-0.509c-0.307-0.172-0.653-0.264-1.005-0.269s-0.7 0.078-1.012 0.241c-0.312 0.163-0.577 0.401-0.772 0.693s-0.314 0.627-0.344 0.975c-0.111 0.693 0.041 1.402 0.427 1.99-0.442 0.335-0.955 0.567-1.501 0.679-0.171 0.031-0.347 0.019-0.513-0.034s-0.316-0.145-0.437-0.268c-0.399-0.519 0.105-2.235 0.18-2.452 0 0 2.327-7.26 2.46-7.713l-5.148 0.264c-0.152 0.453-0.684 2.225-1.244 3.866-1.111 3.206-4.388 7.6-7.816 8.552-1.833 0.5-3.258 0.434-4.179-0.104-1.254-0.735-1.985-2.546-1.548-5.092 0.169-1.213 0.524-2.393 1.054-3.498 2.783-6.138 7.455-4.837 7.18-4.366-0.306 0.109-0.601 0.245-0.883 0.405-0.535 0.313-0.986 0.748-1.317 1.27s-0.53 1.114-0.582 1.729c-0.033 0.39 0.017 0.782 0.148 1.151s0.339 0.706 0.611 0.989c0.275 0.242 0.601 0.421 0.954 0.524s0.724 0.127 1.088 0.070c0.91-0.076 1.758-0.49 2.374-1.159s0.955-1.545 0.95-2.452c0.035-0.483-0.031-0.968-0.195-1.424s-0.421-0.873-0.755-1.226c-1.045-1.047-2.26-1.565-4.948-1.452-4.131 0.179-10.39 3.225-12.1 9.778-0.26 1.061-0.249 2.17 0.033 3.226s0.826 2.025 1.582 2.818c1.899 1.641 4.169 2.225 8.168 1.424 3.562-0.735 6.458-3.197 8.548-5.771-0.004 0.041-0.004 0.082 0 0.123-0.484 1.886 0.247 3.838 3.372 3.385 1.85-0.331 3.596-1.087 5.1-2.207 0.493 0.359 1.056 0.611 1.653 0.739s1.215 0.13 1.813 0.006c0.709-0.154 1.378-0.451 1.966-0.873s1.083-0.959 1.453-1.579c1.035-1.518 1.52-4.46 1.786-6.054 0.055-0.487 0.16-0.967 0.313-1.433 0.083-0.232 0.249-0.427 0.465-0.547 0.551-0.245 0.855 0.302 0.75 0.707s-0.655 2.433-0.655 2.433l-0.105 0.321c-0.402 1.058-0.639 2.171-0.703 3.3-0.032 0.357 0.013 0.717 0.132 1.055s0.311 0.647 0.561 0.906c0.239 0.202 0.523 0.345 0.828 0.417s0.624 0.071 0.929-0.002c1.966-0.321 3.334-2.32 3.98-3.489l0.085-0.16 0.133-0.236 0.086 0.434c0.342 1.726 1.719 2.395 3.799 2.065 2.669-0.434 4.245-1.839 4.701-4.234v-0.104h0.095c0.257-0.103 0.502-0.232 0.731-0.387l0.2-0.141-0.893 3.847 3.087-0.547c0-0.236 1.064-4.903 1.064-4.903 0.171-0.811 0.674-2.348 1.263-2.395 0.060-0.007 0.121 0 0.177 0.022s0.106 0.056 0.146 0.101c0.148 0.166 0.226 0.382 0.219 0.604-0.045 0.593-0.16 1.178-0.342 1.744-0.246 0.892-0.415 1.804-0.503 2.725-0.046 0.219-0.035 0.447 0.034 0.661s0.191 0.406 0.356 0.559c0.165 0.153 0.367 0.26 0.587 0.313s0.449 0.047 0.666-0.014c0.95-0.151 2.26-0.669 3.315-3.083l0.066 0.255c0.118 0.608 0.472 1.147 0.985 1.499s1.145 0.491 1.76 0.386c0.703-0.093 1.366-0.373 1.92-0.812s0.977-1.018 1.224-1.677v-0.094h0.095c0.39-0.101 0.747-0.302 1.034-0.583s0.494-0.633 0.6-1.020c-0.036-0.141-0.080-0.279-0.133-0.415zM35.808 19.35c-0.712-1.075-0.057-2.31 0.636-2.291s0.788 0.349 0.484 1.018c-0.272 0.503-0.655 0.938-1.121 1.273zM56.902 13.824c-0.084 0.095-0.186 0.172-0.3 0.227s-0.238 0.087-0.365 0.093c-0.361 0.057-0.456-0.132-0.475-0.217-0.005-0.2 0.045-0.397 0.143-0.571s0.243-0.319 0.417-0.419c0.066-0.040 0.141-0.061 0.218-0.061s0.153 0.021 0.218 0.061c0.082 0.131 0.137 0.277 0.161 0.429s0.018 0.308-0.019 0.457zM74.168 12.353c-0.15-0.128-0.248-0.305-0.278-0.498s0.012-0.392 0.116-0.558c0.031-0.051 0.081-0.089 0.138-0.106s0.12-0.013 0.175 0.012c-0.003 0.388-0.054 0.775-0.152 1.15zM74.358 10.137v0.057c0 0-1.064 0.066-1.149 1.631-0.010 0.274 0.054 0.546 0.184 0.787s0.322 0.445 0.556 0.589v0.207c-0.218 0.66-0.503 1.386-1.102 1.471-0.086 0.019-0.176 0.018-0.261-0.004s-0.165-0.062-0.233-0.119c-0.209-0.179-0.295-0.349-0.295-0.943 0-1.424 0.703-4.969 1.71-5.035 0.070-0.004 0.14 0.008 0.204 0.036s0.121 0.070 0.166 0.124c0.227 0.356 0.305 0.785 0.219 1.198z"></path>
</symbol>
<symbol id="instagram" viewBox="0 0 30 32">
<path d="M15.238 3.897c4.039 0 4.59 0 6.242 0 1.469 0 2.203 0.367 2.754 0.551 0.734 0.367 1.285 0.551 1.836 1.102s0.918 1.102 1.102 1.836c0.184 0.551 0.367 1.285 0.551 2.754 0 1.652 0 2.020 0 6.242s0 4.59 0 6.242c0 1.469-0.367 2.203-0.551 2.754-0.367 0.734-0.551 1.285-1.102 1.836s-1.102 0.918-1.836 1.102c-0.551 0.184-1.285 0.367-2.754 0.551-1.652 0-2.020 0-6.242 0s-4.59 0-6.242 0c-1.469 0-2.203-0.367-2.754-0.551-0.734-0.367-1.285-0.551-1.836-1.102s-0.918-1.102-1.102-1.836c-0.184-0.551-0.367-1.285-0.551-2.754 0-1.652 0-2.020 0-6.242s0-4.59 0-6.242c0-1.469 0.367-2.203 0.551-2.754 0.367-0.734 0.551-1.285 1.102-1.836s1.102-0.918 1.836-1.102c0.551-0.184 1.285-0.367 2.754-0.551 1.652 0 2.203 0 6.242 0zM15.238 1.143c-4.223 0-4.59 0-6.242 0s-2.754 0.367-3.672 0.734c-0.918 0.367-1.836 0.918-2.754 1.836s-1.285 1.652-1.836 2.754c-0.367 0.918-0.551 2.019-0.734 3.672 0 1.652 0 2.203 0 6.242 0 4.223 0 4.59 0 6.242s0.367 2.754 0.734 3.672c0.367 0.918 0.918 1.836 1.836 2.754s1.652 1.285 2.754 1.836c0.918 0.367 2.019 0.551 3.672 0.734 1.652 0 2.203 0 6.242 0s4.59 0 6.242 0c1.652 0 2.754-0.367 3.672-0.734s1.836-0.918 2.754-1.836c0.918-0.918 1.285-1.652 1.836-2.754 0.367-0.918 0.551-2.020 0.734-3.672 0-1.652 0-2.203 0-6.242s0-4.59 0-6.242c0-1.652-0.367-2.754-0.734-3.672s-0.918-1.836-1.836-2.754c-0.918-0.918-1.652-1.285-2.754-1.836-0.918-0.367-2.020-0.551-3.672-0.734-1.652 0-2.020 0-6.242 0z"></path>
<path d="M15.238 8.487c-4.406 0-7.894 3.488-7.894 7.894s3.488 7.894 7.894 7.894c4.406 0 7.894-3.488 7.894-7.894s-3.488-7.894-7.894-7.894zM15.238 21.522c-2.754 0-5.141-2.203-5.141-5.141 0-2.754 2.203-5.141 5.141-5.141 2.754 0 5.141 2.203 5.141 5.141 0 2.754-2.387 5.141-5.141 5.141z"></path>
<path d="M23.316 10.139c1.014 0 1.836-0.822 1.836-1.836s-0.822-1.836-1.836-1.836c-1.014 0-1.836 0.822-1.836 1.836s0.822 1.836 1.836 1.836z"></path>
</symbol>
<symbol id="telegram" viewBox="0 0 36 32">
<path d="M34.667 1.515l-5.343 27.893c0 0-0.748 1.934-2.801 1.006l-12.328-9.788-0.057-0.029c1.665-1.548 14.578-13.571 15.142-14.116 0.874-0.844 0.331-1.346-0.683-0.709l-19.073 12.543-7.359-2.564c0 0-1.158-0.427-1.269-1.354-0.113-0.929 1.308-1.431 1.308-1.431l29.998-12.187c0 0 2.466-1.122 2.466 0.735z"></path>
</symbol>
<symbol id="facebook" viewBox="0 0 16 32">
<path d="M10.209 16.82h4.963l0.779-5.072h-5.743v-2.772c0-2.107 0.684-3.976 2.643-3.976h3.148v-4.426c-0.553-0.075-1.723-0.24-3.933-0.24-4.616 0-7.322 2.452-7.322 8.040v3.374h-4.745v5.072h4.745v13.942c0.94 0.142 1.891 0.239 2.869 0.239 0.883 0 1.745-0.081 2.596-0.197v-13.983z"></path>
</symbol>
<symbol id="close" viewBox="0 0 31 32">
<path d="M8.192 25.032l-1.792-1.792 7.168-7.168-7.168-7.168 1.792-1.792 7.168 7.168 7.168-7.168 1.792 1.792-7.168 7.168 7.168 7.168-1.792 1.792-7.168-7.168-7.168 7.168z"></path>
</symbol>
<symbol id="card-nav-arrow" viewBox="0 0 32 32">
<path d="M24.535 16l-7.88 7.88-1.839-1.839 4.728-4.728h-12.082v-2.627h12.082l-4.728-4.728 1.839-1.839 7.88 7.88z"></path>
</symbol>
</defs>
</svg>
